<?xml version="1.0" standalone="no"?>
<!DOCTYPE svg PUBLIC "-//W3C//DTD SVG 20010904//EN"
 "http://www.w3.org/TR/2001/REC-SVG-20010904/DTD/svg10.dtd">
<svg version="1.0" xmlns="http://www.w3.org/2000/svg"
 width="600.000000pt" height="704.000000pt" viewBox="0 0 600.000000 704.000000"
 preserveAspectRatio="xMidYMid meet">
<g transform="translate(0.000000,704.000000) scale(0.100000,-0.100000)"
fill="#000000" stroke="none">
<path d="M4860 6498 c-24 -39 -22 -63 5 -63 17 0 20 6 17 34 -2 32 -1 33 25
26 38 -9 39 -12 18 -35 -24 -27 -14 -44 39 -66 50 -21 54 -30 30 -77 -29 -57
-30 -57 -94 -29 -47 21 -60 31 -60 49 0 12 4 24 9 27 15 10 61 -12 61 -29 0
-10 7 -15 18 -13 11 2 17 12 17 28 0 22 -5 26 -50 32 -27 4 -55 6 -62 3 -6 -2
-15 -25 -19 -51 l-7 -46 -36 7 c-94 18 -118 20 -149 11 -32 -9 -34 -12 -28
-44 4 -29 2 -35 -16 -39 -18 -5 -19 -11 -14 -47 4 -23 11 -45 16 -50 12 -12
100 3 105 17 13 35 9 61 -9 65 -26 5 -39 -19 -18 -34 21 -15 16 -21 -29 -29
-33 -6 -37 -5 -41 19 -6 32 4 41 63 56 63 16 114 2 114 -31 0 -17 -6 -25 -22
-27 -14 -2 -24 -13 -28 -31 -4 -21 -15 -31 -43 -40 -20 -6 -46 -18 -56 -26
-20 -15 -20 -16 -2 -66 15 -40 16 -53 6 -59 -8 -5 -10 -18 -5 -39 6 -27 3 -32
-19 -41 -14 -5 -26 -14 -26 -20 0 -13 27 -13 35 0 3 6 13 10 22 10 11 0 7 -9
-14 -34 -22 -28 -35 -35 -65 -35 -34 -1 -38 2 -38 23 0 16 7 26 21 29 24 7 21
30 -5 35 -11 2 -19 -4 -23 -17 -6 -23 -20 -26 -43 -11 -13 9 -12 13 9 30 14
12 21 26 17 36 -8 21 -38 14 -42 -9 -5 -33 -14 -48 -24 -42 -5 3 -10 15 -10
26 0 10 -7 19 -15 19 -18 0 -20 -45 -2 -57 6 -4 28 -13 47 -18 22 -7 40 -21
48 -38 13 -26 44 -41 72 -35 10 2 16 -11 20 -45 5 -40 3 -50 -15 -67 -31 -29
-45 -25 -45 15 0 38 -18 47 -40 20 -11 -13 -10 -18 5 -29 17 -12 16 -15 -24
-40 -35 -22 -45 -25 -58 -15 -13 11 -12 15 7 29 20 15 21 21 13 76 -8 58 -9
59 -41 62 -48 5 -83 -28 -46 -42 9 -4 25 1 34 9 21 19 26 9 25 -49 0 -46 -21
-59 -35 -22 -8 22 -14 25 -40 20 -30 -6 -30 -6 -30 40 0 29 6 53 15 63 18 18
11 33 -15 33 -15 0 -19 -9 -22 -47 -3 -44 -5 -48 -33 -53 -41 -7 -53 -45 -36
-108 18 -66 18 -76 -1 -80 -31 -6 -49 114 -27 188 3 11 -3 14 -20 12 -23 -2
-23 -1 -15 45 4 27 8 64 8 83 l1 34 -74 19 c-81 21 -91 17 -91 -34 0 -15 -10
-38 -21 -53 -15 -19 -18 -31 -11 -38 20 -20 40 0 47 45 10 67 13 69 73 53 29
-7 54 -15 57 -17 2 -3 -3 -35 -11 -72 -14 -60 -18 -67 -40 -67 -21 0 -24 5
-24 35 0 25 4 35 16 35 9 0 14 7 12 18 -2 11 -12 17 -28 17 -24 0 -25 -3 -27
-57 -1 -32 3 -60 7 -63 5 -3 31 -6 59 -6 l51 -2 0 -67 c0 -109 32 -161 80
-130 10 6 21 3 37 -12 l22 -20 27 21 c28 22 54 28 54 12 0 -5 -12 -18 -27 -30
-28 -20 -28 -20 -11 -51 23 -41 3 -39 -42 5 l-36 35 -38 -26 c-20 -14 -39 -24
-41 -22 -1 1 -12 22 -24 45 -11 23 -25 44 -31 48 -12 8 -141 -56 -147 -73 -9
-22 25 -95 78 -170 53 -75 146 -182 158 -182 5 0 18 9 31 20 13 11 27 20 32
20 14 0 9 37 -6 43 -17 7 -36 -11 -36 -35 0 -10 -7 -18 -15 -18 -23 0 -147
164 -173 228 -33 84 -35 92 -20 92 7 0 24 -27 37 -60 25 -63 27 -65 50 -51 17
11 7 41 -14 41 -8 0 -15 9 -15 19 0 14 5 18 20 14 15 -4 20 0 20 16 0 23 -19
28 -38 9 -8 -8 -15 -8 -27 2 -22 18 -19 26 15 40 34 14 42 8 75 -52 19 -34 23
-34 70 -2 l38 25 43 -47 c43 -46 45 -47 64 -29 24 22 25 38 5 55 -22 18 -18
39 10 52 33 15 32 36 -5 78 -16 19 -29 41 -30 48 0 21 -40 14 -40 -7 0 -11 9
-23 20 -26 27 -9 25 -19 -6 -40 -30 -19 -29 -19 -64 47 -41 76 -12 166 32 105
12 -16 25 -23 37 -20 14 3 32 -14 74 -71 l55 -76 30 25 c35 29 45 31 62 10 16
-20 49 -19 57 1 7 20 -16 36 -36 24 -8 -4 -22 -3 -32 3 -13 8 -23 6 -43 -6
-14 -9 -30 -17 -36 -17 -21 0 -9 18 28 43 28 18 43 22 55 16 18 -11 56 4 70
28 7 11 13 10 34 -7 14 -11 32 -20 39 -20 10 0 14 -13 14 -40 0 -43 -20 -55
-38 -23 -12 21 -45 9 -40 -14 2 -10 14 -19 26 -21 20 -3 23 -8 20 -45 -3 -35
-7 -43 -26 -45 -20 -3 -23 0 -17 17 5 16 -4 26 -47 54 l-53 34 -22 -20 c-28
-25 -32 -70 -5 -65 9 2 18 13 20 26 4 28 19 27 56 -2 33 -27 27 -51 -10 -42
-17 5 -26 1 -34 -15 -9 -15 -18 -19 -38 -14 -23 5 -30 1 -46 -30 l-19 -35 29
-31 c16 -17 48 -36 73 -42 45 -12 61 -31 43 -49 -17 -17 -70 10 -129 65 -51
48 -52 48 -64 26 l-12 -23 -20 28 c-25 35 -83 96 -90 96 -3 0 -33 -23 -67 -51
l-60 -50 36 -44 c19 -24 35 -46 35 -49 -3 -20 1 -26 14 -26 25 0 17 39 -15 73
-16 18 -30 35 -30 38 0 4 20 23 44 42 l43 36 29 -32 c69 -76 69 -75 49 -97
-16 -18 -18 -18 -41 -2 -16 12 -21 23 -17 40 5 22 -3 27 -31 16 -27 -10 -18
-30 31 -68 l47 -37 37 43 37 43 29 -26 c44 -42 95 -69 128 -69 25 0 33 6 42
31 8 20 17 30 26 26 24 -9 36 7 38 56 2 25 1 49 -2 51 -2 3 -22 6 -44 8 -32 2
-40 -1 -43 -16 -4 -16 0 -18 32 -12 l36 7 0 -37 0 -37 -45 6 c-49 7 -93 27
-119 52 -23 23 -4 60 24 45 15 -8 22 -5 38 15 18 22 25 24 64 19 65 -9 88 6
88 59 0 30 6 48 20 60 11 9 20 26 20 38 0 17 4 20 24 15 29 -7 59 20 33 30 -9
3 -25 1 -36 -5 -13 -7 -22 -8 -26 -1 -6 10 34 30 60 30 8 0 17 5 20 10 9 14
17 12 43 -9 27 -23 20 -51 -14 -51 -27 0 -32 -21 -9 -40 13 -11 18 -10 30 6
13 18 15 18 44 -10 17 -17 31 -35 31 -40 0 -6 -18 -28 -40 -50 -33 -33 -38
-42 -29 -58 13 -24 5 -33 -41 -46 -24 -6 -41 -6 -52 2 -26 16 -48 -8 -27 -29
12 -13 21 -14 43 -5 43 16 53 12 65 -21 10 -30 13 -31 52 -26 22 3 58 17 80
32 32 21 43 24 55 14 7 -6 11 -15 8 -20 -12 -20 -86 -49 -139 -55 -53 -7 -56
-8 -51 -30 6 -24 5 -24 -68 -24 -62 0 -77 -3 -84 -17 -11 -24 -13 -81 -4 -123
7 -33 9 -34 49 -32 23 2 51 -2 63 -8 26 -14 44 -1 34 23 -5 13 -19 17 -65 17
l-59 0 0 54 c0 52 1 54 31 60 17 3 51 6 74 6 37 0 43 -3 47 -25 3 -13 3 -27 0
-30 -10 -9 -62 -5 -62 5 0 16 -30 12 -36 -5 -4 -8 -1 -21 5 -29 11 -13 34 -10
110 10 13 4 11 30 -5 100 -5 19 0 22 47 28 59 8 127 39 136 63 3 8 -1 27 -10
42 -15 25 -15 29 0 44 16 16 15 19 -17 52 -19 19 -39 35 -46 35 -20 0 -67 -61
-55 -73 15 -15 41 0 41 23 0 25 11 25 41 0 l24 -19 -40 -37 c-44 -39 -73 -54
-111 -54 -28 0 -33 30 -9 50 9 8 13 21 9 36 -5 18 2 33 24 58 49 56 50 74 6
111 -28 24 -36 36 -30 50 5 14 1 24 -15 36 l-21 16 22 21 c12 11 19 25 15 31
-11 18 -25 12 -36 -15 -16 -43 -24 -18 -9 28 16 49 25 58 58 58 22 0 23 -3 17
-40 -6 -35 -5 -40 13 -40 23 0 35 23 20 38 -13 13 -3 17 54 25 27 4 38 1 42
-10 11 -26 6 -34 -16 -31 -21 3 -23 -2 -30 -56 -8 -62 0 -80 29 -69 10 4 12
13 8 27 -4 11 -9 34 -12 49 -5 24 -3 28 13 25 12 -2 20 -13 22 -31 2 -19 9
-27 22 -27 10 0 22 -4 25 -10 9 -15 -26 -82 -47 -88 -23 -6 -24 -42 0 -42 9 0
26 16 38 38 12 22 26 35 35 33 54 -14 56 -14 78 31 11 24 21 60 21 80 0 24 5
38 17 42 21 9 34 -12 26 -44 -9 -39 -54 -130 -64 -130 -5 0 -9 -7 -9 -15 0 -8
9 -15 20 -15 24 0 26 -13 6 -30 -26 -21 -78 -109 -71 -120 9 -14 112 -90 122
-90 5 0 14 9 21 21 l13 21 23 -21 c12 -12 26 -21 32 -21 12 0 56 55 77 97 17
32 17 32 -16 62 -37 35 -40 36 -57 16 -17 -20 -4 -35 31 -35 37 0 37 -16 -1
-69 -27 -37 -32 -40 -50 -29 -25 16 -25 28 -1 35 26 7 35 32 15 40 -12 4 -27
-7 -51 -35 -19 -23 -40 -42 -46 -42 -7 0 -30 15 -51 33 l-39 34 43 56 c23 31
45 57 49 57 3 0 14 -7 23 -14 15 -11 16 -17 5 -39 -8 -17 -20 -27 -34 -27 -13
0 -23 -6 -23 -14 0 -13 20 -26 40 -26 13 0 52 91 46 107 -3 6 -24 22 -46 33
-23 12 -40 24 -38 28 44 84 59 126 56 159 -3 35 -6 38 -35 41 -23 2 -33 9 -37
28 -5 18 -13 24 -36 24 -56 0 -78 -15 -78 -54 0 -36 19 -63 38 -51 16 10 12
33 -7 44 -22 12 -10 27 29 36 25 6 27 5 34 -40 7 -51 -7 -115 -30 -134 -20
-17 -46 -2 -46 25 0 13 -4 24 -9 24 -20 0 -41 33 -41 63 0 18 -7 43 -16 55
-14 21 -21 23 -69 17 -43 -6 -53 -4 -58 9 -4 10 -18 16 -37 16 -25 0 -30 4
-30 25 0 15 -6 25 -14 25 -23 0 -29 -19 -12 -36 9 -9 14 -20 11 -25 -9 -14
-13 -11 -31 24 -9 17 -21 35 -27 39 -7 4 -6 17 3 37 16 39 47 42 56 5 4 -16
12 -24 23 -22 25 5 26 38 2 45 -26 7 -26 5 5 53 22 33 29 38 45 29 16 -8 17
-13 7 -29 -10 -15 -7 -27 14 -67 15 -26 33 -49 40 -51 7 -1 28 7 46 18 28 17
32 23 22 35 -17 21 -37 19 -43 -5 -8 -31 -22 -24 -43 21 -17 39 -17 42 -1 54
23 17 22 22 -13 40 -48 25 -66 19 -92 -27 -13 -24 -31 -43 -40 -43 -8 0 -25
-11 -37 -25 -20 -23 -22 -24 -35 -7 -18 23 -36 22 -36 -3 0 -16 7 -20 30 -20
17 0 30 -4 30 -10 0 -6 -24 -8 -57 -6 -54 4 -59 7 -70 35 -11 26 -10 31 3 39
15 9 15 13 -1 55 -18 46 -15 77 6 77 6 0 13 -9 16 -20 5 -20 16 -24 86 -34 37
-5 39 -3 54 31 14 34 13 38 -3 50 -24 18 -36 6 -28 -29 6 -29 5 -30 -17 -25
-13 4 -34 7 -46 7 -16 0 -23 6 -23 19 0 13 8 21 23 23 16 2 23 11 25 32 3 27
5 28 45 23 27 -4 47 -14 58 -29 14 -18 21 -20 30 -11 19 19 3 40 -38 50 -35 8
-38 12 -43 48 -4 33 -10 40 -35 47 -16 5 -53 6 -81 3 -43 -5 -53 -3 -58 11 -4
10 -1 21 6 26 25 15 71 9 187 -28 21 -6 22 -4 16 15 -8 27 1 27 67 -4 83 -39
90 -36 127 45 17 39 31 72 31 73 0 2 -18 10 -40 17 -53 17 -68 35 -52 61 20
32 14 45 -27 57 -51 16 -48 17 -71 -20z m-84 -704 c69 -73 22 -174 -82 -174
-13 0 -39 14 -59 31 -27 24 -35 39 -35 64 0 73 39 114 109 115 26 0 41 -8 67
-36z"/>
<path d="M4466 6491 c-3 -5 1 -14 10 -21 11 -10 18 -10 26 -2 15 15 55 16 63
2 4 -6 -7 -13 -23 -16 -26 -5 -29 -10 -27 -42 0 -25 6 -37 15 -37 11 0 14 10
12 33 -2 26 1 32 18 32 13 0 24 -10 31 -26 5 -15 8 -28 7 -30 -2 -1 -26 -11
-53 -22 -45 -18 -50 -23 -46 -49 8 -72 7 -75 -34 -98 -41 -23 -53 -48 -36 -74
8 -12 14 -13 36 -3 45 21 52 15 71 -55 10 -38 24 -79 31 -93 11 -22 10 -27
-12 -48 -30 -28 -31 -38 -5 -52 16 -9 22 -8 26 5 4 9 4 19 0 22 -3 4 1 14 9
23 14 15 12 27 -16 116 -17 54 -33 105 -35 113 -4 13 -18 12 -56 -4 -12 -5
-18 -3 -18 7 0 8 18 23 41 33 43 20 45 28 24 101 -6 19 -1 23 45 34 l52 13 -6
36 c-3 20 -11 53 -16 74 l-11 37 -59 0 c-32 0 -61 -4 -64 -9z"/>
<path d="M4310 6437 c-57 -28 -109 -59 -114 -68 -13 -23 20 -91 42 -87 29 6
26 37 -4 48 -26 10 -26 11 -9 30 28 31 164 92 187 84 23 -7 39 11 31 33 -8 20
-21 17 -133 -40z"/>
<path d="M5017 6473 c-15 -14 -5 -33 21 -39 36 -9 68 -30 120 -78 44 -41 58
-75 23 -56 -11 5 -33 24 -50 41 -19 18 -38 29 -46 25 -25 -9 -17 -34 12 -38
33 -4 42 -27 14 -35 -26 -7 -22 -27 6 -31 14 -2 22 4 26 18 5 18 9 20 27 10
l21 -11 -21 -30 -21 -29 -43 25 c-56 33 -69 32 -92 -10 -10 -19 -21 -35 -24
-35 -3 0 -28 9 -57 20 -44 16 -53 17 -63 5 -17 -20 -8 -48 18 -60 18 -8 22
-15 16 -35 -12 -46 -9 -53 36 -86 52 -38 80 -43 80 -14 0 16 -7 20 -30 20 -32
0 -38 14 -16 43 19 24 36 21 79 -14 49 -40 73 -85 56 -105 -7 -8 -20 -12 -30
-9 -25 8 -25 -14 1 -57 13 -23 16 -38 10 -48 -15 -23 -12 -30 10 -30 28 0 35
24 16 52 -23 32 -20 53 9 66 14 6 25 20 25 30 0 23 -45 91 -71 110 -22 15 -25
37 -7 48 18 11 72 -58 93 -121 19 -54 28 -65 40 -45 13 21 23 7 39 -57 9 -37
21 -72 26 -77 14 -14 160 22 160 39 0 16 49 26 71 14 12 -6 21 -4 29 6 24 29
-10 61 -37 34 -6 -6 -26 -9 -44 -7 -33 3 -34 4 -31 46 2 37 0 43 -15 40 -19
-4 -22 -27 -10 -89 l7 -36 -56 -12 c-30 -7 -57 -11 -58 -9 -6 8 -36 111 -36
123 0 12 21 25 40 25 18 0 32 -40 20 -56 -13 -14 -7 -44 8 -44 4 0 17 6 27 14
17 12 17 14 2 37 -10 13 -17 29 -17 37 0 15 108 68 118 57 4 -4 7 -27 6 -51
-1 -37 2 -44 18 -44 22 0 34 25 20 43 -5 6 -13 27 -17 45 -4 18 -13 36 -21 39
-7 2 -39 -8 -71 -23 -32 -15 -71 -28 -88 -29 -16 -1 -44 -9 -62 -18 l-32 -17
-31 64 c-44 93 -96 130 -120 86 -9 -17 -17 -20 -44 -14 -30 5 -35 3 -47 -25
-8 -17 -20 -31 -26 -31 -16 0 -16 12 -1 45 11 24 9 29 -18 50 -34 29 -16 33
39 10 50 -21 50 -20 76 25 l23 40 36 -28 c20 -16 42 -32 49 -36 13 -7 93 93
93 117 0 20 -99 118 -143 142 -20 11 -37 23 -37 27 0 10 -24 11 -33 1z"/>
<path d="M4444 6393 c-10 -16 -13 -16 -28 -4 -15 12 -22 11 -56 -8 -22 -12
-45 -21 -52 -20 -26 3 -38 -1 -38 -15 0 -24 23 -24 78 1 l52 23 25 -52 c14
-28 25 -53 25 -54 0 -1 -28 -16 -61 -34 -57 -29 -63 -30 -78 -16 -23 23 -3 51
37 51 40 0 49 11 28 34 -17 19 -18 19 -61 -12 -24 -18 -44 -39 -44 -47 -1 -9
13 -32 30 -53 17 -21 30 -39 28 -41 -2 -1 -20 -12 -40 -24 -58 -35 -109 -112
-91 -138 4 -6 15 -14 26 -17 12 -5 17 -14 13 -26 -7 -28 7 -44 52 -57 44 -13
43 -13 68 34 15 28 6 54 -16 50 -12 -3 -15 -12 -13 -36 3 -34 -2 -37 -42 -22
-22 8 -24 12 -16 41 16 56 65 119 93 119 24 0 37 -21 24 -41 -9 -14 -8 -22 6
-37 9 -10 17 -26 17 -35 0 -25 15 -21 52 16 l33 32 3 -32 c4 -36 13 -41 36
-17 14 14 14 18 -6 45 -26 35 -31 35 -69 8 -29 -21 -49 -19 -49 5 0 23 65 66
89 59 25 -6 29 18 7 36 -11 9 -21 5 -47 -18 l-33 -31 -21 20 c-12 11 -28 20
-37 20 -23 0 -66 -37 -94 -81 -24 -39 -54 -45 -54 -11 0 21 96 111 126 118 28
7 29 12 9 34 -14 16 -11 19 37 44 29 14 62 33 72 41 20 15 20 16 -2 60 -28 58
-28 65 4 65 19 0 25 5 22 17 -4 24 -31 27 -44 6z"/>
<path d="M3060 6182 c0 -15 -92 -60 -156 -76 -115 -30 -247 -14 -327 39 -41
27 -39 2 6 -84 74 -139 98 -167 154 -180 63 -15 88 -6 142 55 43 49 48 71 15
66 -10 -2 -34 -6 -52 -9 -31 -5 -41 -28 -12 -28 25 0 21 -23 -7 -45 -62 -49
-157 7 -182 107 -7 25 -10 47 -9 49 2 2 24 -4 48 -12 38 -13 60 -14 137 -6 51
6 113 20 139 31 26 12 50 21 53 21 4 0 4 -36 0 -81 -6 -69 -12 -88 -42 -132
-19 -29 -53 -65 -76 -81 -37 -26 -46 -28 -97 -22 -69 8 -74 11 -74 42 0 31
-35 34 -43 3 -12 -47 16 -61 146 -73 68 -7 68 -7 104 29 19 19 38 35 42 35 15
0 94 193 110 268 15 71 14 92 -4 92 -8 0 -15 -4 -15 -8z"/>
<path d="M3995 6079 c-41 -50 -70 -116 -94 -219 -27 -115 -26 -144 9 -148 14
-2 31 -9 38 -15 16 -13 48 15 38 32 -9 14 -43 14 -51 1 -13 -21 -25 -8 -25 28
0 59 44 204 81 266 31 52 49 69 49 47 0 -16 -30 -80 -40 -86 -20 -12 -10 -35
16 -35 23 0 25 3 19 29 -8 36 10 50 25 20 11 -19 14 -20 27 -6 19 18 9 37 -18
37 -27 0 -21 34 6 38 38 4 49 -12 38 -54 -6 -22 -14 -47 -18 -56 -7 -17 19
-34 76 -51 14 -5 15 -13 7 -57 -11 -62 -6 -80 22 -80 15 0 26 11 36 35 8 19
16 35 19 35 2 0 38 -13 80 -30 42 -16 82 -30 90 -30 9 0 15 -10 15 -24 0 -37
10 -56 30 -56 29 0 35 21 13 40 -12 9 -22 25 -24 34 -3 13 -32 28 -94 51 -49
18 -98 36 -108 40 -14 6 -20 1 -30 -24 -18 -48 -28 -37 -25 26 l3 57 -40 12
c-43 12 -46 23 -19 76 21 41 18 47 -38 73 -69 32 -81 31 -113 -6z"/>
<path d="M1955 6018 c-10 -43 -65 -127 -121 -182 -54 -53 -161 -108 -222 -116
-25 -3 -47 -10 -49 -16 -4 -11 224 -124 250 -124 28 0 107 41 121 63 15 23 26
141 14 152 -8 8 -78 -59 -78 -75 0 -13 17 -13 25 0 14 22 26 8 23 -27 -4 -50
-55 -87 -111 -80 -36 5 -137 61 -137 77 0 4 12 11 27 15 71 17 195 121 233
194 11 23 24 41 29 41 13 0 65 -87 81 -134 14 -45 9 -147 -11 -189 -7 -16 -35
-41 -66 -58 l-54 -31 -21 22 c-18 19 -22 20 -35 7 -12 -12 -13 -18 -1 -36 20
-32 53 -26 139 25 87 51 93 61 92 169 -1 102 -77 335 -109 335 -7 0 -16 -15
-19 -32z"/>
<path d="M4821 5993 c-6 -12 -22 -18 -48 -18 -28 0 -38 -5 -41 -18 -5 -22 27
-35 42 -16 6 8 18 13 28 11 15 -3 48 32 48 50 0 15 -19 8 -29 -9z"/>
<path d="M3595 5893 c-3 -21 -10 -60 -15 -86 -6 -27 -10 -76 -10 -109 0 -59 2
-62 45 -106 44 -44 46 -45 95 -39 56 7 101 25 108 45 2 6 -4 12 -13 12 -9 0
-30 8 -46 17 -30 18 -51 11 -31 -9 18 -18 15 -25 -16 -36 -55 -19 -111 37
-112 112 0 49 18 126 29 126 4 0 23 -19 43 -43 46 -56 145 -115 225 -134 35
-9 63 -20 63 -24 0 -5 -27 -36 -59 -68 -66 -66 -125 -91 -213 -91 -44 0 -54 4
-96 44 -40 38 -44 46 -33 60 16 19 8 46 -13 46 -20 0 -39 -36 -31 -60 3 -10
36 -44 72 -76 70 -62 60 -59 168 -52 11 1 49 19 84 40 34 21 65 38 68 38 17 0
163 128 163 142 0 4 -23 8 -50 8 -57 0 -167 35 -226 72 -61 39 -128 109 -153
161 -12 26 -27 47 -31 47 -5 0 -12 -17 -15 -37z"/>
<path d="M2567 5899 c-9 -6 -74 -13 -142 -16 -69 -3 -125 -9 -125 -12 0 -3 11
-28 25 -55 25 -49 34 -116 15 -116 -5 0 -14 9 -20 20 -15 27 -30 25 -30 -4 0
-24 23 -56 39 -56 13 0 38 33 54 72 23 56 80 67 124 25 20 -18 22 -27 17 -72
-8 -63 7 -98 39 -93 30 4 36 38 7 38 -19 0 -20 4 -14 38 8 44 12 49 43 54 31
4 50 33 34 49 -10 10 -17 9 -31 -4 -37 -34 -40 -16 -6 41 19 31 33 66 32 77
-3 23 -34 30 -61 14z m8 -39 c9 -15 -16 -90 -30 -90 -7 0 -18 6 -24 14 -25 30
-67 36 -107 15 -21 -10 -38 -18 -39 -16 -11 22 -25 60 -25 68 0 5 16 7 38 4
20 -3 64 -2 97 3 83 13 83 13 90 2z"/>
<path d="M5171 5901 c-9 -6 -12 -20 -9 -41 6 -40 -7 -45 -120 -53 l-82 -5 -15
29 c-17 32 -25 35 -43 17 -20 -20 -14 -38 13 -38 16 0 25 -6 25 -16 0 -13 11
-14 83 -8 45 3 100 9 122 13 38 7 40 8 37 40 -5 50 20 35 38 -23 l14 -48 48 6
47 7 3 -58 3 -58 83 0 c99 0 100 1 109 107 6 65 5 70 -13 66 -16 -3 -18 -11
-16 -47 5 -63 -4 -91 -30 -91 -19 0 -20 4 -16 65 6 63 5 65 -18 65 -24 0 -33
-23 -14 -35 13 -8 13 -45 1 -45 -6 0 -13 5 -16 10 -10 17 -25 11 -25 -9 0 -25
17 -36 34 -22 10 9 15 7 19 -8 6 -25 0 -31 -35 -31 -31 0 -35 5 -41 63 -6 49
-10 52 -64 52 l-45 0 -16 50 c-17 50 -34 63 -61 46z"/>
<path d="M3236 5804 c-7 -55 -32 -110 -53 -118 -12 -5 -14 -1 -9 18 9 34 -18
55 -34 26 -7 -12 -9 -33 -6 -46 8 -30 38 -32 84 -4 54 33 122 19 122 -25 0 -7
3 -20 6 -28 3 -9 -9 -32 -31 -56 -29 -32 -36 -47 -33 -73 2 -22 9 -34 21 -36
22 -4 35 27 16 39 -11 6 -8 14 15 37 26 28 29 29 54 16 34 -18 37 -17 56 2 21
20 10 37 -19 30 -50 -13 -33 14 25 40 61 27 81 48 73 72 -3 6 -13 12 -24 12
-25 0 -118 51 -183 100 -29 22 -57 40 -63 40 -6 0 -13 -21 -17 -46z m111 -49
c38 -25 78 -48 91 -52 32 -8 27 -28 -13 -58 -39 -30 -50 -28 -58 14 -9 44 -41
71 -82 71 -34 0 -35 1 -29 28 7 30 13 42 19 42 3 0 35 -20 72 -45z"/>
<path d="M2983 5800 c-13 -5 -23 -13 -23 -18 0 -18 29 -34 49 -27 13 4 28 -3
47 -20 24 -23 26 -28 15 -49 -31 -58 -101 -53 -101 7 0 37 -15 58 -36 50 -28
-11 -16 -64 23 -100 30 -29 41 -34 67 -29 44 9 77 46 83 93 4 32 1 44 -18 66
-27 30 -72 41 -106 27z"/>
<path d="M2688 5713 c-54 -56 -82 -117 -86 -191 -3 -35 0 -68 5 -73 10 -10 94
44 132 84 39 43 14 52 -31 12 -44 -41 -62 -41 -66 -1 -7 59 66 176 110 176 26
0 40 -33 28 -65 -14 -36 -13 -45 6 -45 21 0 47 65 35 89 -13 23 -55 51 -79 51
-10 0 -34 -17 -54 -37z"/>
<path d="M2129 5689 c-16 -17 -26 -35 -23 -40 9 -15 46 -10 59 7 9 13 20 15
48 10 42 -8 54 -33 35 -73 -18 -39 -59 -43 -82 -9 -18 29 -56 35 -56 11 0 -30
50 -65 91 -65 84 0 116 90 58 163 -31 40 -91 38 -130 -4z"/>
<path d="M2375 5636 c-30 -30 -53 -102 -38 -117 22 -22 48 6 48 52 0 48 23 72
53 53 30 -19 28 -99 -5 -164 -15 -30 -37 -59 -48 -65 -40 -20 -65 -42 -80 -71
-19 -37 -19 -64 0 -64 8 0 15 7 15 15 0 16 57 85 71 85 5 0 7 -11 3 -24 -7
-28 20 -86 41 -86 21 0 30 22 12 31 -21 12 -31 63 -17 88 16 31 129 30 185 -2
37 -21 40 -26 40 -67 0 -35 4 -45 17 -48 18 -3 38 31 38 63 0 23 -40 55 -108
87 -49 24 -72 29 -103 25 -45 -6 -48 3 -20 49 43 70 34 141 -20 169 -39 21
-56 19 -84 -9z"/>
<path d="M2842 5625 c-35 -39 -91 -125 -110 -168 -33 -76 2 -137 79 -137 36 0
39 2 39 29 0 20 13 45 40 76 22 25 40 49 40 53 0 18 -33 52 -49 52 -22 0 -91
-85 -91 -112 0 -24 17 -23 25 1 8 25 54 71 71 71 19 0 18 -29 -1 -36 -8 -3
-30 -30 -50 -60 -20 -30 -38 -54 -41 -54 -21 0 -44 25 -44 46 0 58 105 224
141 224 19 0 99 -54 99 -67 0 -6 -9 -15 -20 -18 -24 -8 -27 -47 -5 -65 12 -10
16 -9 21 4 4 9 4 19 2 22 -3 2 10 20 29 39 35 35 36 55 5 55 -19 0 -108 44
-133 67 -14 12 -20 9 -47 -22z"/>
<path d="M4895 5640 c-4 -6 -2 -17 4 -24 6 -7 9 -21 5 -29 -7 -18 140 -187
162 -187 7 0 18 9 24 20 6 11 15 20 20 20 18 0 10 -28 -15 -58 -14 -17 -25
-34 -25 -38 0 -4 14 -23 32 -41 l31 -32 -43 -39 -43 -38 44 -51 c24 -28 52
-52 63 -52 19 -1 101 43 145 78 15 12 22 24 18 35 -8 20 -37 21 -37 1 0 -16
-119 -99 -128 -90 -8 8 40 56 66 66 13 5 22 17 22 29 0 28 -29 25 -40 -5 -11
-30 -30 -33 -30 -5 0 13 -7 20 -20 20 -25 0 -26 -28 -2 -46 24 -17 0 -44 -25
-28 -38 24 -38 40 0 78 21 20 37 42 37 48 0 7 -13 26 -30 43 l-29 30 29 44
c35 52 37 67 11 81 -16 8 -26 5 -51 -17 l-32 -27 -37 45 c-20 24 -51 57 -68
73 -32 28 -32 31 -17 54 8 13 13 30 10 38 -6 16 -42 19 -51 4z"/>
<path d="M3124 5601 c-18 -11 -39 -30 -48 -42 -14 -21 -14 -24 0 -32 22 -12
40 -3 56 30 17 36 61 44 78 14 16 -32 -12 -75 -77 -118 -51 -35 -60 -37 -119
-35 -66 3 -117 -15 -129 -46 -9 -25 2 -26 54 -3 76 32 105 26 61 -14 -25 -23
-25 -90 0 -90 8 0 15 9 16 20 2 37 4 42 24 68 19 23 24 25 48 15 54 -24 100
-68 118 -113 l17 -45 -27 -35 c-15 -19 -24 -40 -21 -45 19 -31 75 20 75 69 0
55 -76 172 -122 187 -28 9 -22 17 33 42 84 39 114 118 64 167 -29 30 -59 32
-101 6z"/>
<path d="M1735 5531 c-8 -25 -100 -110 -165 -152 -28 -18 -50 -36 -50 -41 0
-4 27 -21 60 -38 36 -18 65 -41 72 -55 13 -28 4 -45 -14 -27 -17 17 -38 15
-38 -3 0 -21 44 -47 65 -39 15 6 16 16 10 78 -6 67 -5 73 19 95 21 19 31 22
61 17 29 -6 39 -14 51 -41 14 -35 57 -75 81 -75 17 0 27 25 19 46 -5 13 -9 14
-21 4 -18 -15 -17 -15 -38 25 -14 28 -14 32 4 54 21 26 22 62 2 69 -12 3 -16
-3 -29 -47 -7 -24 -15 -6 -24 59 -9 63 -23 90 -46 90 -7 0 -15 -9 -19 -19z
m39 -81 c9 -22 16 -45 16 -50 0 -6 -21 -10 -47 -10 -54 0 -93 -28 -93 -67 0
-29 -8 -29 -45 3 -28 24 -29 26 -11 37 32 21 120 97 129 112 14 26 34 16 51
-25z"/>
<path d="M2265 5515 c-16 -8 -56 -14 -87 -15 -76 0 -83 -13 -75 -137 12 -176
64 -238 153 -182 38 23 41 33 18 57 -13 13 -15 28 -10 78 6 56 4 64 -15 78
-17 11 -27 12 -46 3 -22 -10 -24 -15 -21 -80 2 -46 7 -72 16 -75 9 -3 11 6 6
37 -7 44 11 104 30 98 12 -4 9 -167 -4 -180 -4 -5 -18 -7 -31 -5 -33 4 -58 74
-58 165 -1 108 6 120 74 125 31 1 59 0 61 -4 2 -3 -1 -18 -7 -32 -9 -20 -9
-29 1 -41 16 -19 50 -20 50 0 0 8 -4 15 -9 15 -6 0 -7 24 -4 55 6 59 4 61 -42
40z"/>
<path d="M4740 5504 c0 -9 -9 -18 -20 -21 -11 -3 -20 -8 -20 -12 0 -3 -7 -53
-15 -111 -8 -58 -15 -108 -15 -112 0 -4 15 -8 33 -10 40 -4 42 -22 2 -26 -67
-6 -72 -9 -79 -57 -8 -49 -12 -51 -79 -36 -35 8 -39 7 -47 -15 -5 -13 -11 -47
-12 -76 l-3 -53 55 -30 c54 -29 58 -30 197 -30 96 0 146 4 154 12 10 10 14 43
10 91 -1 17 -38 15 -45 -3 -3 -8 1 -21 9 -29 35 -35 2 -46 -130 -46 -109 0
-247 41 -222 66 3 3 30 -4 61 -14 46 -15 58 -17 67 -6 15 18 1 37 -24 30 -11
-3 -40 -2 -64 1 -42 6 -44 7 -41 37 l3 31 62 -2 61 -3 7 49 7 49 59 6 c57 7
59 8 59 36 0 19 -5 30 -14 30 -8 0 -25 4 -39 9 -23 9 -23 10 -12 82 8 55 15
75 27 77 12 2 18 -5 20 -25 2 -20 9 -29 26 -31 25 -4 32 25 7 34 -8 4 -15 16
-15 29 0 18 -4 21 -25 17 -18 -3 -25 0 -25 12 0 10 8 16 23 16 28 0 47 17 40
36 -7 19 -43 18 -43 -2z"/>
<path d="M1963 5500 c-60 -24 -44 -217 25 -300 16 -18 33 -30 39 -27 16 10 55
132 51 157 -5 36 -22 23 -33 -27 -8 -37 -14 -48 -30 -48 -46 0 -84 149 -51
200 24 36 58 30 71 -12 10 -37 45 -47 45 -13 0 37 -22 68 -52 74 -36 7 -37 7
-65 -4z"/>
<path d="M3384 5470 c-88 -46 -149 -113 -137 -147 9 -27 193 -8 193 18 0 7
-22 10 -57 7 -49 -3 -58 0 -61 15 -8 42 106 111 171 105 47 -4 50 -43 5 -79
-27 -23 -30 -29 -16 -34 22 -9 75 20 83 45 4 12 -1 36 -12 58 -16 34 -22 37
-64 40 -35 2 -58 -4 -105 -28z"/>
<path d="M3723 5379 c4 -13 7 -27 7 -31 0 -5 7 -8 15 -8 17 0 35 -30 35 -59 0
-43 -81 -54 -107 -15 -12 18 -11 24 9 49 15 20 19 32 12 43 -15 24 -26 19 -46
-20 -17 -33 -18 -41 -6 -74 9 -26 23 -41 46 -51 43 -18 75 -8 113 34 25 29 30
41 25 67 -8 38 -41 72 -80 82 -27 6 -29 5 -23 -17z"/>
<path d="M3490 5321 c-87 -28 -148 -61 -175 -93 -38 -45 -31 -95 20 -128 l30
-19 20 25 c13 17 38 29 74 37 64 14 80 33 63 72 -11 25 -16 26 -50 20 -57 -11
-102 -32 -102 -50 0 -14 3 -14 31 0 32 17 105 17 102 0 -1 -5 -26 -14 -55 -20
-29 -6 -63 -16 -75 -23 -12 -7 -26 -12 -32 -12 -15 0 -32 36 -25 54 16 42 230
135 254 110 5 -5 18 -33 29 -61 l21 -53 -30 0 c-36 0 -66 -36 -48 -58 11 -12
14 -11 26 7 11 15 25 21 53 21 49 0 56 13 25 52 -13 18 -33 56 -44 83 -23 58
-34 62 -112 36z"/>
<path d="M2502 5318 c-16 -16 -15 -48 1 -48 7 0 19 6 26 13 10 10 15 8 27 -7
26 -35 27 -86 7 -199 -31 -173 -19 -187 146 -166 130 16 134 19 126 80 -5 32
-3 49 4 49 16 0 43 47 47 81 2 17 6 34 8 38 11 17 -13 33 -39 27 -22 -6 -26
-11 -21 -29 3 -12 8 -31 11 -42 3 -11 -2 -29 -11 -40 -15 -20 -15 -20 -30 -1
-23 32 -19 137 7 170 24 30 45 33 72 9 18 -17 19 -17 33 2 32 43 6 65 -56 46
-55 -16 -98 -56 -110 -101 -9 -32 -7 -49 10 -97 11 -31 20 -59 20 -60 0 -10
-47 0 -86 18 -52 25 -69 52 -79 129 -8 57 -27 114 -41 122 -24 13 -62 16 -72
6z m130 -243 c27 -34 53 -47 112 -54 48 -6 51 -8 54 -38 3 -35 1 -36 -110 -48
-76 -8 -98 6 -98 61 0 46 10 104 17 104 3 0 14 -11 25 -25z"/>
<path d="M1150 5283 c1 -5 7 -35 15 -68 31 -131 -18 -318 -106 -406 -22 -22
-39 -41 -39 -44 0 -14 146 7 242 35 40 12 81 56 99 107 9 26 7 38 -11 73 -12
24 -34 54 -48 69 l-27 26 -8 -53 c-10 -60 -3 -77 19 -47 15 20 15 20 34 -5 25
-32 25 -44 -2 -91 -18 -33 -31 -42 -73 -54 -55 -16 -113 -17 -121 -3 -4 5 3
20 15 32 19 21 28 42 61 152 7 24 11 73 8 113 l-4 72 31 -6 c88 -18 189 -114
216 -206 11 -35 10 -44 -15 -95 -26 -52 -30 -56 -56 -51 -22 5 -29 2 -33 -14
-6 -23 31 -46 57 -36 20 8 89 156 88 190 0 16 -8 39 -16 52 -9 14 -16 29 -16
36 0 10 -18 28 -126 123 -73 64 -185 124 -184 99z"/>
<path d="M3054 5269 c-8 -13 5 -26 31 -31 15 -3 19 -10 16 -28 -6 -48 -41 -96
-119 -167 -123 -112 -118 -132 55 -224 l84 -44 25 28 c13 15 24 35 24 43 0 8
10 14 26 14 33 0 58 14 95 52 35 37 36 46 7 57 -31 11 -48 3 -48 -24 0 -26
-29 -55 -54 -55 -15 0 -17 5 -11 28 16 64 81 132 127 132 22 0 48 -27 42 -44
-7 -19 7 -25 34 -15 13 5 22 17 22 29 0 31 -61 53 -129 48 -65 -6 -93 -33
-117 -115 -8 -29 -19 -53 -24 -53 -18 0 -63 75 -67 114 -4 33 2 56 31 116 20
41 36 84 36 95 0 39 -67 73 -86 44z m20 -340 c14 -21 34 -40 46 -44 22 -7 25
-17 10 -46 -15 -27 -36 -24 -110 19 -56 33 -65 42 -68 70 -3 25 5 40 40 78
l43 47 7 -43 c4 -24 19 -60 32 -81z"/>
<path d="M3944 5234 c-38 -41 -87 -64 -102 -49 -4 3 1 11 11 16 20 12 23 49 4
49 -20 0 -47 -33 -47 -58 0 -21 36 -38 99 -44 13 -2 32 -14 43 -28 16 -22 17
-30 7 -58 -12 -36 -35 -52 -73 -52 -14 0 -40 -13 -58 -29 -31 -28 -32 -31 -16
-47 22 -22 48 -12 41 15 -4 16 -1 21 13 21 11 0 28 3 39 5 15 4 24 -2 37 -25
10 -18 25 -30 38 -30 27 0 26 24 -2 43 -32 21 -20 28 27 17 95 -22 149 -4 112
38 -23 26 -58 100 -86 181 -14 41 -30 75 -36 76 -5 1 -28 -17 -51 -41z m67
-51 c6 -21 24 -66 40 -100 27 -60 27 -63 9 -73 -10 -5 -35 -10 -56 -10 -33 0
-36 2 -29 23 4 12 10 41 12 64 4 37 2 43 -27 64 l-31 24 28 22 c15 13 31 23
35 23 3 0 12 -17 19 -37z"/>
<path d="M1763 5240 c-32 -13 -46 -46 -38 -94 7 -50 28 -81 50 -73 21 9 19 39
-5 60 -26 22 -26 63 1 78 28 14 60 -15 88 -81 27 -62 27 -93 2 -161 -16 -46
-18 -63 -10 -93 6 -20 16 -36 24 -36 12 0 15 15 15 64 0 36 5 68 10 71 6 3 10
0 10 -8 0 -7 10 -23 23 -35 27 -26 77 -30 77 -7 0 8 -6 15 -14 15 -22 0 -76
50 -76 70 0 18 52 65 97 89 12 6 44 11 71 11 47 0 51 -2 66 -35 11 -23 21 -32
31 -29 20 8 19 44 -1 73 -16 22 -22 23 -89 18 -75 -5 -130 -23 -158 -51 -22
-22 -37 -12 -37 25 0 43 -23 92 -55 117 -30 23 -47 26 -82 12z"/>
<path d="M2324 5213 c-33 -35 -54 -83 -54 -124 0 -24 10 -42 43 -73 23 -23 53
-49 67 -58 l25 -16 -37 -16 c-21 -9 -58 -16 -82 -16 -42 0 -51 5 -111 59 -76
69 -95 77 -136 61 -35 -15 -42 -60 -9 -60 11 0 20 6 20 14 0 28 21 28 61 0 32
-22 50 -48 93 -138 61 -127 86 -150 133 -119 53 35 163 146 163 165 0 10 -11
29 -25 42 -20 18 -25 33 -25 68 0 44 -23 106 -44 120 -11 8 -46 -26 -46 -42 0
-5 9 -12 20 -15 27 -9 52 -48 44 -69 -9 -23 -18 -20 -58 14 -46 41 -71 105
-56 144 9 25 14 28 39 23 21 -4 31 -2 35 9 10 25 7 33 -14 44 -17 9 -25 6 -46
-17z m120 -299 c25 -25 19 -39 -35 -91 -86 -82 -115 -79 -165 18 l-23 47 62
-5 c55 -4 66 -2 97 20 42 31 45 31 64 11z"/>
<path d="M1519 5141 c-21 -22 -29 -39 -29 -65 0 -23 5 -36 13 -36 19 0 37 21
37 42 0 11 14 25 36 35 35 17 36 17 55 -6 24 -29 24 -63 1 -84 -15 -14 -23
-15 -50 -5 -25 10 -34 10 -44 -1 -11 -10 -9 -15 6 -27 30 -21 71 -17 105 12
55 46 39 114 -36 153 -35 18 -63 13 -94 -18z"/>
<path d="M3688 5143 c-22 -5 -23 -26 -4 -42 11 -9 22 -8 50 6 36 16 37 16 58
-4 12 -13 18 -28 15 -38 -10 -24 -70 -45 -129 -45 -56 0 -68 5 -144 58 -47 32
-86 40 -114 22 -18 -11 -10 -19 25 -26 15 -3 44 -12 64 -20 l36 -16 -40 -18
c-23 -10 -46 -28 -52 -43 -17 -38 4 -46 31 -13 13 16 35 29 57 32 35 6 36 5
57 -44 24 -56 28 -103 11 -150 -10 -29 -27 -41 -68 -47 -23 -3 -25 -32 -2 -40
37 -11 71 5 87 44 20 45 23 177 5 209 -15 29 -9 37 17 23 12 -6 43 -11 71 -11
68 0 111 35 111 89 0 25 -7 44 -20 56 -20 18 -88 28 -122 18z"/>
<path d="M4269 5073 c-131 -136 -132 -139 -126 -205 6 -68 23 -92 82 -119 49
-23 85 -24 85 -4 0 8 -4 15 -8 15 -4 0 -14 16 -21 36 -14 38 -38 42 -33 4 3
-20 1 -22 -24 -16 -35 9 -51 31 -59 78 -6 31 -2 44 21 76 25 35 93 92 109 92
4 0 4 -14 0 -30 -12 -56 59 -227 121 -291 l35 -36 -48 -14 c-82 -24 -169 -18
-236 14 -69 35 -86 58 -94 130 -5 50 -4 54 17 60 26 7 24 40 -3 45 -48 9 -57
-34 -31 -145 18 -79 22 -85 79 -116 71 -40 298 -58 388 -31 25 8 22 16 -27 57
-42 35 -90 96 -121 156 -28 55 -48 169 -40 237 4 35 3 64 -2 64 -5 0 -33 -26
-64 -57z"/>
<path d="M1663 4984 c-35 -35 -63 -68 -63 -74 0 -18 52 -94 99 -143 78 -82
129 -97 173 -49 14 15 28 37 31 50 4 18 -1 25 -25 35 -21 8 -40 29 -57 62 -31
59 -68 72 -95 34 -13 -19 -13 -25 -1 -49 19 -36 64 -90 76 -90 5 0 9 7 9 15 0
8 -4 15 -9 15 -9 0 -51 78 -51 93 0 4 7 7 15 7 8 0 22 -16 31 -35 9 -20 29
-49 45 -66 23 -25 27 -35 19 -50 -17 -30 -55 -23 -102 19 -57 50 -73 69 -100
120 l-23 44 45 39 c25 21 48 39 52 39 3 0 11 -14 17 -31 9 -25 15 -30 37 -27
33 4 42 23 15 31 -11 2 -27 21 -35 41 -8 20 -21 35 -28 35 -7 -1 -41 -30 -75
-65z"/>
<path d="M3490 4908 c0 -6 8 -20 17 -30 16 -18 16 -20 -12 -43 -40 -33 -72
-42 -190 -55 -115 -13 -149 -33 -138 -79 9 -41 89 -207 103 -216 6 -4 29 1 50
10 36 16 42 16 72 2 39 -18 111 -13 130 10 9 11 7 19 -10 36 l-22 21 -23 -22
c-25 -24 -53 -28 -77 -12 -13 9 -12 13 5 26 85 68 231 53 197 -20 -13 -28 -7
-36 25 -36 72 0 -4 123 -89 144 -32 7 -86 -12 -136 -50 -18 -14 -36 -23 -40
-20 -3 4 -6 28 -6 54 0 60 27 107 74 128 19 9 56 30 82 47 48 32 59 57 42 101
-7 18 -54 22 -54 4z m-144 -180 c-26 -40 -35 -101 -20 -144 7 -21 12 -39 11
-40 -11 -8 -48 -24 -55 -24 -5 0 -26 34 -46 75 -28 59 -33 81 -26 99 11 30 19
35 72 45 76 15 81 14 64 -11z"/>
<path d="M3785 4893 c-90 -15 -116 -42 -72 -74 67 -49 102 -69 118 -69 31 0
21 18 -21 40 -27 14 -40 27 -40 40 0 22 36 41 67 36 10 -2 36 -7 58 -11 57
-10 95 -35 95 -62 0 -27 -35 -45 -69 -36 -16 4 -21 1 -21 -16 0 -11 6 -21 13
-21 6 0 22 -3 34 -6 46 -12 89 67 63 115 -19 37 -155 75 -225 64z"/>
<path d="M1485 4855 c-30 -29 -31 -44 -6 -94 57 -111 257 -217 235 -124 -12
52 -57 143 -70 143 -18 0 -18 0 6 -55 11 -26 18 -51 14 -56 -22 -36 -142 50
-165 118 -10 32 -9 38 7 50 20 15 55 8 67 -13 12 -21 37 -17 37 5 0 49 -85 67
-125 26z"/>
<path d="M1937 4853 c-4 -3 -7 -31 -7 -62 0 -102 58 -155 163 -150 29 2 52 -1
54 -8 2 -5 -16 -32 -41 -59 l-44 -49 -68 4 c-147 8 -162 7 -179 -14 -21 -28
-15 -70 10 -70 16 0 19 6 17 27 -2 22 2 29 24 34 27 7 95 -9 129 -30 95 -61
156 -87 189 -81 39 8 45 22 73 169 16 86 16 89 -2 102 -10 8 -31 14 -47 14
-20 0 -31 8 -43 30 -18 34 -88 83 -113 78 -11 -2 -17 -13 -17 -28 0 -22 5 -25
40 -28 46 -4 65 -17 65 -43 0 -24 -38 -25 -103 -3 -77 26 -111 91 -62 118 11
6 22 12 24 13 2 2 -4 12 -14 23 -18 20 -36 25 -48 13z m287 -216 c17 -13 17
-19 5 -87 -13 -76 -34 -110 -66 -110 -29 0 -125 49 -118 60 3 5 14 10 24 10
25 0 90 74 98 110 6 33 27 39 57 17z"/>
<path d="M1270 4713 c0 -27 -14 -93 -30 -148 -16 -55 -30 -108 -30 -117 0 -20
11 -23 26 -9 14 13 95 19 127 8 33 -11 35 -24 5 -29 -13 -2 -24 -11 -26 -20
-3 -14 3 -18 25 -18 31 0 53 16 53 38 0 7 -18 31 -40 53 -49 49 -53 87 -14
118 32 25 61 27 92 5 48 -33 134 -8 102 30 -16 21 -44 21 -36 1 7 -19 5 -19
-43 1 -37 14 -39 18 -34 48 3 22 0 36 -11 46 -24 19 -42 -1 -26 -30 22 -42 -1
-34 -52 18 -66 68 -88 69 -88 5z m87 -39 l34 -26 -40 -35 c-43 -36 -53 -72
-31 -114 10 -17 7 -19 -35 -19 -50 0 -51 0 -31 38 8 15 20 62 27 105 15 87 22
92 76 51z"/>
<path d="M3664 4726 c-45 -20 -58 -81 -28 -125 12 -16 19 -20 27 -12 16 16 38
14 82 -9 46 -24 78 -25 95 -6 21 26 8 60 -30 78 -38 19 -110 24 -110 8 0 -5
11 -10 24 -10 32 0 96 -38 96 -56 0 -19 -13 -18 -52 5 -18 10 -49 22 -68 26
-62 13 -73 32 -39 66 18 18 28 20 72 14 60 -7 107 -20 161 -43 40 -17 42 -23
22 -107 -2 -11 -5 -23 -5 -27 -2 -13 -24 -9 -42 8 -14 12 -22 13 -38 4 -29
-15 -28 -44 0 -37 13 4 32 -2 50 -15 38 -28 59 -18 59 30 0 20 6 62 14 92 8
30 11 59 7 63 -4 4 -41 20 -82 34 -90 31 -173 39 -215 19z"/>
<path d="M1815 4642 c-60 -37 -104 -97 -129 -175 -5 -15 -12 -11 -46 23 -66
66 -110 75 -159 34 -44 -37 -42 -76 6 -120 45 -42 83 -46 83 -9 0 20 -5 25
-26 25 -38 0 -64 18 -64 44 0 59 59 57 144 -6 45 -33 56 -48 66 -85 16 -67 37
-101 70 -118 40 -21 51 0 16 31 -30 28 -61 84 -47 84 6 0 21 -5 34 -11 28 -13
77 5 85 30 4 11 -3 12 -33 7 -52 -10 -95 9 -95 42 0 52 24 103 67 142 l43 40
36 -15 c47 -19 54 -19 54 4 0 41 -61 60 -105 33z"/>
<path d="M4005 4618 c-38 -34 -47 -79 -24 -117 10 -17 30 -33 44 -37 36 -9 94
2 116 22 28 25 25 86 -5 121 l-25 28 -9 -25 c-6 -16 -6 -31 1 -41 7 -12 7 -26
-3 -48 -9 -24 -19 -31 -40 -31 -36 0 -62 31 -58 67 2 22 9 29 31 31 15 2 31
11 37 21 19 37 -25 43 -65 9z"/>
<path d="M3686 4561 c-3 -4 4 -17 15 -27 12 -11 30 -37 41 -58 19 -37 19 -38
1 -31 -36 16 -78 16 -98 1 -27 -20 -7 -44 22 -26 15 10 27 9 57 -4 37 -15 38
-18 34 -54 -9 -60 -33 -107 -72 -137 -35 -27 -39 -27 -76 -15 -22 7 -43 10
-47 6 -11 -11 11 -39 40 -54 29 -14 54 -4 110 47 30 27 77 110 77 136 0 20 16
19 32 -3 28 -39 85 -72 122 -72 44 0 86 36 86 73 0 30 -33 73 -70 92 -42 21
-52 19 -48 -12 2 -23 8 -29 35 -31 69 -7 77 -82 10 -82 -58 0 -167 85 -167
130 0 31 -29 88 -56 109 -29 23 -40 26 -48 12z"/>
<path d="M4095 4431 c-46 -9 -44 -40 5 -85 36 -33 41 -43 38 -74 -2 -29 -10
-40 -37 -56 l-34 -20 -40 23 c-29 17 -48 21 -74 16 -34 -6 -53 -29 -37 -45 16
-15 38 -15 39 0 1 18 28 15 60 -6 16 -10 20 -21 17 -42 -4 -34 24 -70 41 -53
7 7 6 18 -3 36 -23 44 -5 37 53 -21 31 -31 62 -54 69 -52 8 3 16 29 19 64 3
32 13 84 22 114 31 104 40 141 34 147 -3 3 -20 0 -38 -6 -40 -14 -94 -14 -120
-1 -27 15 -24 30 6 30 15 0 25 6 25 14 0 20 -10 23 -45 17z m124 -153 c-10
-29 -21 -77 -25 -105 -5 -46 -9 -53 -28 -53 -29 1 -86 50 -66 58 8 3 28 18 44
34 26 26 28 34 22 74 l-6 44 39 0 38 0 -18 -52z"/>
<path d="M3259 4398 c-20 -38 -49 -219 -39 -239 6 -9 27 -20 48 -24 29 -5 41
-13 50 -35 8 -17 33 -40 59 -55 40 -22 49 -24 61 -11 9 8 11 22 7 35 -5 17
-13 21 -40 19 -35 -2 -65 15 -65 38 0 17 65 19 107 3 73 -27 108 -100 58 -119
-22 -8 -24 -13 -15 -31 7 -13 19 -19 33 -17 19 3 22 10 25 60 4 77 -16 114
-75 140 -35 15 -58 19 -95 15 -62 -8 -62 5 -4 68 l44 47 115 -7 115 -7 17 25
c21 33 16 61 -13 65 -20 3 -23 0 -20 -25 l3 -28 -60 1 c-46 0 -70 7 -100 26
-134 84 -193 99 -216 56z m130 -47 l55 -28 -37 -18 c-45 -21 -86 -68 -94 -106
-6 -29 -23 -36 -57 -23 -20 8 -20 30 0 108 17 65 37 96 63 96 9 -1 40 -14 70
-29z"/>
<path d="M1377 4350 c-16 -5 -35 -17 -43 -27 -19 -26 -17 -87 4 -113 27 -34
46 -17 38 33 -8 46 13 87 44 87 55 0 82 -91 30 -98 -22 -4 -49 -27 -50 -44 0
-14 55 -8 77 7 26 18 46 81 34 104 -25 47 -81 68 -134 51z"/>
<path d="M1540 4297 c0 -24 -7 -66 -15 -92 -8 -27 -11 -53 -8 -58 19 -31 205
-78 265 -67 67 13 94 63 67 123 -10 22 -16 24 -50 20 -28 -4 -48 0 -74 16 -44
26 -57 26 -78 3 -31 -34 -21 -58 32 -81 52 -22 101 -28 101 -11 0 5 -19 14
-42 21 -42 11 -78 34 -78 51 0 13 23 9 65 -12 22 -11 48 -20 60 -20 31 0 47
-15 43 -40 -5 -39 -29 -45 -117 -33 -73 11 -152 40 -165 61 -4 7 21 107 31
121 2 2 12 -4 23 -14 25 -23 70 -13 70 15 0 21 -19 27 -36 10 -7 -7 -16 -4
-29 10 -10 11 -29 20 -42 20 -21 0 -23 -5 -23 -43z"/>
<path d="M1995 4323 c-40 -6 -49 -17 -36 -42 15 -26 25 -26 61 1 25 18 33 20
56 9 32 -14 22 -31 -40 -60 -53 -26 -107 -27 -137 -2 -21 17 -22 22 -11 45 15
34 16 33 -9 39 -27 7 -49 -1 -49 -19 0 -20 38 -76 67 -98 54 -40 144 -26 197
33 27 30 36 18 36 -47 0 -71 -15 -94 -83 -128 -88 -44 -117 -71 -117 -108 0
-34 15 -56 37 -56 23 0 27 30 7 46 -18 14 -18 15 14 43 40 34 88 48 197 56 66
6 84 11 106 32 33 30 29 53 -27 167 -47 96 -61 107 -107 83 -30 -16 -35 -17
-62 -3 -30 16 -43 17 -100 9z m247 -100 c30 -65 37 -108 18 -127 -9 -9 -133
-37 -139 -30 -2 2 3 12 11 21 33 38 41 128 15 161 -13 17 9 42 39 42 20 0 30
-12 56 -67z"/>
<path d="M963 4203 c-33 -6 -28 -24 17 -55 39 -27 106 -118 128 -173 38 -96
51 -200 32 -251 -21 -55 7 -47 73 23 100 105 127 142 127 177 0 52 -20 105
-45 122 -27 18 -116 46 -123 40 -7 -7 39 -96 49 -96 5 0 9 9 9 20 0 13 7 20
20 20 29 0 56 -32 64 -74 9 -45 -16 -90 -74 -136 -46 -37 -64 -39 -56 -6 13
54 -54 222 -116 288 -15 17 -28 33 -28 37 0 12 97 31 156 31 39 0 71 -8 109
-26 76 -37 93 -59 101 -127 6 -54 5 -59 -15 -64 -21 -5 -29 -37 -12 -47 5 -4
22 -1 37 4 26 10 27 12 20 73 -3 34 -12 82 -19 107 -12 39 -20 49 -63 70 -27
14 -68 31 -90 38 -39 11 -251 15 -301 5z"/>
<path d="M3760 4202 c0 -19 38 -122 54 -146 16 -26 36 -35 36 -17 0 5 -9 28
-20 52 -16 37 -17 46 -6 58 42 41 193 -120 155 -165 -16 -20 -49 -17 -74 6
-18 17 -24 18 -33 7 -9 -11 -5 -20 18 -42 26 -25 33 -27 61 -19 18 5 41 21 52
36 18 24 18 30 7 58 -36 88 -146 180 -214 180 -20 0 -36 -4 -36 -8z"/>
<path d="M3615 4108 c-34 -31 -51 -87 -27 -94 35 -11 48 -22 73 -65 26 -46 58
-60 85 -39 21 19 17 42 -17 93 -20 31 -38 47 -52 47 l-20 0 21 -23 c25 -26 54
-92 45 -101 -13 -13 -23 -5 -37 27 -7 19 -28 50 -46 71 l-33 37 21 22 22 22
36 -20 c44 -24 110 -96 137 -151 l20 -42 -43 -38 c-54 -50 -58 -51 -66 -19 -7
29 -35 48 -58 39 -22 -9 -20 -34 3 -34 13 0 23 -11 31 -34 11 -35 41 -57 49
-35 5 15 103 109 113 109 15 0 7 35 -15 72 -57 92 -153 178 -200 178 -9 0 -27
-10 -42 -22z"/>
<path d="M1476 4068 c-25 -46 -18 -78 23 -105 49 -33 107 -46 181 -41 70 5
112 24 108 48 -4 17 -101 85 -135 95 -38 11 -27 -18 15 -40 50 -27 55 -60 10
-69 -44 -8 -130 7 -162 28 -29 19 -35 60 -10 70 9 3 29 6 46 6 23 0 29 4 26
18 -2 12 -15 18 -44 20 -37 3 -42 0 -58 -30z"/>
<path d="M1882 4094 c-46 -20 -63 -170 -28 -255 6 -14 -3 -15 -73 -11 -77 4
-81 4 -105 -23 -34 -37 -36 -97 -4 -119 24 -17 104 -21 127 -7 24 15 5 44 -24
37 -14 -3 -37 -9 -52 -12 -52 -13 -66 52 -17 75 14 6 60 11 103 11 66 0 81 -3
96 -20 34 -38 83 -61 120 -58 38 3 51 21 19 26 -35 6 -104 35 -104 43 0 5 9 9
21 9 24 0 83 55 74 70 -9 15 -32 12 -38 -4 -8 -19 -65 -49 -82 -43 -7 3 -23
26 -35 52 -18 38 -22 57 -17 103 7 63 30 92 74 92 18 0 24 5 21 18 -3 17 -49
27 -76 16z"/>
<path d="M3144 4087 c-44 -25 -164 -145 -164 -164 0 -11 11 -30 25 -43 20 -19
25 -33 25 -70 0 -46 21 -103 42 -116 6 -4 20 3 30 16 18 22 18 23 -18 54 -29
25 -35 36 -30 54 10 31 20 28 65 -17 72 -72 78 -161 11 -161 -33 0 -44 -12
-35 -40 10 -33 47 -24 77 18 56 80 44 155 -36 212 -26 19 -45 38 -43 44 2 6
22 17 46 25 60 19 108 7 151 -38 19 -20 52 -49 73 -65 38 -29 38 -29 73 -12
27 12 35 22 32 39 -4 29 -34 34 -43 8 -3 -12 -14 -21 -22 -21 -31 0 -97 85
-132 169 -31 75 -67 122 -95 121 -6 -1 -21 -6 -32 -13z m51 -53 c18 -18 55
-88 55 -104 0 -7 -6 -8 -19 0 -37 19 -118 3 -152 -31 -20 -20 -22 -20 -40 -3
-30 27 -23 45 38 101 60 55 90 64 118 37z"/>
<path d="M4310 4036 c-58 -12 -115 -29 -128 -37 -12 -7 -34 -37 -48 -65 -21
-42 -23 -55 -14 -79 14 -38 63 -105 76 -105 12 0 28 99 18 109 -3 3 -12 -3
-20 -14 -15 -20 -15 -20 -35 4 -35 43 4 122 69 141 39 11 132 14 132 4 0 -3
-11 -20 -25 -38 -36 -48 -68 -185 -62 -268 l4 -68 -26 7 c-41 9 -97 40 -136
75 -36 31 -95 133 -95 162 0 9 12 41 26 71 25 52 29 56 55 50 25 -6 29 -3 29
14 0 30 -37 47 -59 27 -26 -23 -82 -143 -83 -176 -2 -73 93 -183 241 -279 74
-47 107 -54 97 -18 -24 86 -27 121 -17 199 13 97 54 190 111 252 22 24 40 46
40 50 0 10 -39 5 -150 -18z"/>
<path d="M2324 3997 c-12 -26 -26 -36 -57 -45 -25 -6 -56 -25 -77 -47 -34 -35
-35 -37 -15 -51 29 -21 48 -13 57 24 8 32 50 63 64 49 13 -13 -28 -97 -63
-127 -42 -37 -95 -39 -101 -5 -6 29 -17 38 -41 30 -13 -4 -21 -15 -21 -29 0
-18 10 -27 46 -41 94 -36 168 1 195 97 7 24 16 47 20 52 12 13 49 -22 65 -61
21 -49 17 -79 -21 -159 -41 -85 -43 -103 -12 -132 27 -26 52 -28 61 -6 9 22
-3 37 -25 31 -15 -4 -19 0 -19 21 0 47 40 106 120 177 66 58 79 75 80 101 0
38 -21 58 -122 112 -94 51 -113 53 -134 9z m124 -34 c37 -20 70 -42 74 -47 19
-28 7 -63 -37 -106 l-45 -44 0 27 c0 39 -35 102 -70 129 -17 12 -30 26 -30 32
0 10 29 46 37 46 3 0 35 -17 71 -37z"/>
<path d="M3585 3970 c-4 -6 -2 -17 4 -24 11 -12 6 -79 -6 -99 -3 -5 -13 5 -23
21 -19 31 -66 50 -83 33 -13 -13 0 -31 23 -31 27 0 66 -58 53 -79 -22 -35 -91
-78 -137 -84 -57 -8 -68 -4 -90 33 -22 39 -46 39 -46 2 0 -32 29 -64 61 -69
47 -7 145 17 186 46 l42 30 6 -37 c17 -100 50 -142 111 -142 42 0 74 32 74 74
0 40 -31 101 -50 101 -24 0 -25 -45 -1 -62 13 -9 21 -25 21 -43 0 -24 -5 -31
-27 -36 -36 -9 -66 27 -92 111 -20 64 -20 65 -1 107 11 24 20 60 20 81 0 57
-27 97 -45 67z"/>
<path d="M2762 3904 c-112 -14 -126 -24 -118 -78 6 -33 3 -43 -19 -66 -31 -32
-49 -114 -29 -131 18 -15 58 7 50 28 -18 45 -18 65 0 84 18 20 18 20 31 -3 17
-32 16 -123 -2 -158 -19 -37 -50 -47 -76 -24 -18 16 -21 16 -36 2 -17 -18 -12
-45 10 -54 8 -3 39 6 70 20 47 21 60 32 78 69 21 42 21 45 5 98 -10 30 -20 60
-22 67 -9 20 55 14 93 -9 39 -25 58 -57 67 -119 11 -74 36 -130 62 -136 34 -9
58 -1 62 20 6 30 -15 42 -38 21 -19 -18 -20 -17 -35 18 -20 48 -19 85 5 202
17 86 17 101 5 125 -18 35 -43 38 -163 24z m116 -36 c13 -13 14 -82 3 -133
l-7 -30 -18 28 c-24 35 -78 61 -130 61 -40 1 -41 2 -41 36 0 33 2 35 40 41 70
11 141 9 153 -3z"/>
<path d="M1476 3883 c-3 -4 6 -17 21 -30 25 -20 26 -22 8 -22 -11 0 -40 4 -65
10 -79 18 -118 -12 -70 -56 22 -20 75 -142 85 -198 4 -21 13 -41 21 -44 7 -2
34 16 61 41 34 33 56 46 77 46 28 0 28 -1 13 -18 -32 -35 -11 -58 25 -29 43
34 15 77 -50 77 -72 0 -104 41 -77 100 15 34 22 39 61 45 52 7 100 44 91 68
-7 18 -42 23 -52 8 -3 -5 0 -13 6 -17 17 -10 -10 -24 -47 -24 -23 0 -36 7 -48
25 -16 24 -45 33 -60 18z m28 -90 c-4 -10 -9 -37 -12 -61 -4 -37 0 -45 26 -68
l30 -27 -28 -23 c-15 -13 -30 -24 -32 -24 -3 0 -11 19 -17 43 -7 23 -26 69
-42 101 -34 68 -30 76 40 76 37 0 42 -2 35 -17z"/>
<path d="M3839 3817 c-35 -24 -46 -56 -35 -104 12 -43 91 -76 141 -57 30 12
59 97 39 117 -11 11 -44 -13 -44 -32 0 -25 -32 -51 -62 -51 -34 0 -56 49 -40
85 12 26 40 33 59 14 8 -8 17 -8 32 0 28 15 27 25 -4 39 -36 17 -47 15 -86
-11z"/>
<path d="M2100 3715 c0 -16 -35 -34 -85 -42 -60 -10 -76 -32 -59 -77 8 -22 70
-21 113 2 38 18 59 51 25 37 -41 -17 -94 -27 -110 -21 -26 10 2 36 40 36 17 0
50 9 74 20 l42 19 16 -25 c14 -20 14 -27 3 -40 -36 -43 -168 -104 -226 -104
-28 0 -33 5 -46 43 -8 23 -18 50 -22 59 -5 14 0 17 32 20 33 3 38 7 41 31 4
29 -21 39 -32 12 -3 -9 -18 -15 -39 -15 -41 0 -71 -27 -45 -41 8 -5 28 -39 44
-76 16 -38 32 -71 37 -74 13 -9 109 17 171 47 113 53 144 117 87 175 -32 31
-61 38 -61 14z"/>
<path d="M2250 3672 c-25 -25 -29 -36 -24 -59 13 -55 54 -121 99 -161 l46 -41
-43 -19 c-86 -38 -124 -120 -78 -169 30 -33 55 -36 99 -13 59 30 82 80 37 80
-17 0 -29 -9 -38 -27 -20 -41 -43 -51 -68 -28 -14 12 -18 25 -14 39 16 55 121
129 176 125 70 -4 104 2 132 24 37 30 28 54 -12 33 -15 -8 -45 -18 -67 -22
l-38 -7 22 32 c27 37 25 84 -3 89 -15 3 -18 0 -13 -19 6 -24 -26 -89 -44 -89
-16 0 -73 31 -97 54 -26 23 -62 87 -62 109 0 8 12 26 27 41 24 25 25 28 10 43
-14 15 -18 13 -47 -15z"/>
<path d="M3214 3627 c-26 -23 -26 -24 -9 -50 14 -21 16 -38 10 -87 -7 -58 -6
-60 20 -72 46 -21 60 -2 60 77 0 43 -4 70 -12 72 -8 3 -10 -8 -6 -34 6 -46
-11 -93 -32 -93 -13 0 -14 7 -8 38 4 20 7 60 6 89 -1 58 15 73 52 49 36 -24
59 -160 41 -242 -7 -30 -9 -32 -69 -37 -34 -3 -63 -4 -65 -3 -1 2 2 16 8 31 9
22 7 31 -6 46 -10 11 -21 19 -26 19 -14 0 -22 -31 -10 -39 8 -5 9 -17 2 -40
-12 -43 -3 -64 24 -57 11 4 56 11 98 18 l77 11 6 40 c8 45 -1 155 -17 207 -24
79 -89 104 -144 57z"/>
<path d="M3442 3633 c-12 -22 -42 -134 -42 -157 0 -9 6 -16 14 -16 8 0 15 16
19 40 3 23 10 47 17 55 43 51 102 -123 66 -194 -9 -17 -22 -31 -30 -31 -19 0
-46 34 -46 58 0 16 -6 22 -21 22 -19 0 -21 -4 -15 -31 3 -17 6 -36 6 -41 0
-14 59 -35 86 -30 40 7 58 46 57 121 -1 75 -33 160 -76 199 -24 23 -26 23 -35
5z"/>
<path d="M3805 3629 c-4 -6 -4 -39 0 -74 6 -56 4 -66 -14 -84 -12 -12 -33 -21
-49 -21 -33 0 -72 25 -72 46 0 24 -47 64 -75 64 -20 0 -25 -5 -25 -25 0 -25
14 -33 25 -15 9 14 23 4 41 -32 15 -28 14 -31 -6 -53 -25 -26 -23 -58 3 -63
12 -3 17 3 17 22 0 50 19 35 26 -21 9 -78 20 -103 43 -103 10 0 26 11 35 25
22 34 98 103 157 143 27 18 49 36 49 40 0 5 -18 16 -40 26 -50 22 -100 63
-100 82 0 17 12 18 27 3 13 -13 33 -4 33 16 0 27 -62 47 -75 24z m66 -136 c16
-10 29 -21 29 -25 0 -4 -19 -20 -42 -37 -24 -16 -59 -45 -77 -65 -19 -20 -40
-36 -46 -36 -14 0 -51 77 -42 86 3 3 27 7 53 8 50 2 84 29 84 67 0 23 4 24 41
2z"/>
<path d="M1704 3591 c-17 -10 -37 -33 -44 -51 -12 -28 -11 -36 4 -65 18 -32
52 -55 83 -55 10 0 13 6 9 16 -3 9 -6 20 -6 25 0 5 -7 9 -15 9 -21 0 -39 43
-31 73 7 29 37 39 77 25 23 -8 29 -16 29 -38 0 -16 -7 -30 -15 -34 -17 -6 -19
-24 -5 -46 8 -13 12 -12 29 5 50 52 13 155 -56 155 -15 0 -42 -9 -59 -19z"/>
<path d="M2793 3563 c-7 -3 -15 -20 -19 -39 -8 -44 10 -66 90 -106 44 -22 73
-30 111 -29 l51 0 -28 -57 c-36 -74 -36 -106 1 -143 54 -54 118 -31 142 52 15
47 3 70 -29 58 -20 -8 -23 -14 -17 -39 11 -49 -2 -72 -38 -68 l-32 3 0 60 c0
69 33 150 65 160 38 12 100 83 100 115 0 36 -15 39 -31 8 -18 -33 -63 -88 -72
-88 -4 0 -5 15 -2 33 5 27 2 40 -18 63 -20 23 -28 26 -38 17 -10 -10 -9 -16 4
-31 10 -11 17 -35 17 -60 l0 -41 -46 -7 c-63 -9 -110 1 -151 32 -32 24 -35 30
-30 65 5 38 -4 51 -30 42z"/>
<path d="M2057 3489 c-30 -18 -9 -28 48 -22 51 5 55 4 55 -15 0 -55 -150 -131
-194 -99 -26 19 -14 64 20 78 22 8 24 12 14 24 -17 20 -24 19 -60 -12 -27 -22
-31 -31 -26 -57 8 -37 30 -62 61 -70 32 -8 129 28 182 68 42 31 88 98 76 110
-10 10 -156 6 -176 -5z"/>
<path d="M2643 3493 c-7 -2 -13 -15 -13 -28 0 -13 -18 -44 -40 -70 -22 -25
-40 -53 -40 -60 0 -14 38 -55 51 -55 17 0 89 95 89 116 0 33 -6 30 -35 -16
-26 -42 -59 -65 -76 -55 -6 4 7 26 31 51 22 24 46 55 52 69 18 41 68 27 68
-19 0 -34 -54 -138 -96 -185 l-40 -44 -58 33 -59 34 27 23 c31 26 32 66 4 71
-13 2 -18 -3 -18 -18 0 -12 -13 -35 -30 -50 -35 -32 -38 -50 -10 -50 20 0 73
-27 122 -61 14 -11 30 -19 35 -19 14 0 86 95 121 161 20 39 32 75 32 100 0 34
-5 42 -32 59 -32 19 -60 24 -85 13z"/>
<path d="M1735 3393 c-55 -7 -204 -97 -283 -170 -57 -53 -55 -63 18 -63 133 0
315 -111 370 -225 12 -25 25 -45 30 -45 11 0 30 101 37 197 l6 81 -45 47 c-39
41 -49 47 -84 47 -51 -1 -119 -25 -119 -42 0 -8 14 -17 32 -22 18 -5 35 -13
38 -18 3 -6 10 -10 16 -10 14 0 11 27 -3 34 -17 7 19 36 45 36 10 0 35 -16 54
-35 34 -34 35 -37 31 -98 -3 -34 -11 -75 -18 -92 -11 -29 -13 -29 -24 -10 -37
65 -189 161 -274 172 -23 3 -42 11 -42 18 0 6 25 37 56 68 62 63 125 90 210
91 42 1 56 -4 86 -29 48 -41 63 -64 49 -78 -16 -16 -13 -37 4 -44 18 -6 44 23
45 48 0 9 -32 46 -71 83 -74 69 -78 70 -164 59z"/>
<path d="M2825 3351 c-41 -26 -105 -86 -105 -100 0 -19 17 -12 52 19 18 17 40
30 50 30 50 0 -9 -163 -72 -195 -27 -14 -30 -14 -44 6 -11 16 -12 28 -5 47 22
57 -14 71 -37 15 -13 -31 -14 -40 -2 -61 17 -33 72 -56 98 -42 31 17 87 97
105 150 17 51 17 141 0 147 -5 1 -23 -6 -40 -16z"/>
<path d="M2163 3353 c-16 -6 -17 -30 -2 -35 9 -3 8 -10 -1 -24 -19 -31 -50
-48 -63 -35 -16 16 -52 14 -67 -4 -10 -12 -9 -16 3 -21 8 -3 23 -4 32 -2 35 6
25 -18 -12 -31 -43 -15 -103 -57 -103 -72 0 -6 17 -17 38 -25 76 -32 105 -48
169 -95 37 -26 70 -46 74 -44 4 3 10 27 14 54 7 51 37 111 56 111 7 0 9 -9 5
-24 -8 -32 13 -45 31 -21 18 26 16 53 -6 64 -14 8 -30 5 -65 -14 -26 -14 -55
-25 -65 -25 -28 0 -59 31 -66 66 -5 27 -1 37 29 69 50 53 49 125 -1 108z m-51
-199 c11 -42 42 -68 84 -68 28 0 33 -3 29 -18 -3 -10 -8 -27 -11 -38 -6 -22
-19 -26 -29 -10 -8 13 -111 79 -141 91 -32 11 -30 33 4 58 36 27 54 23 64 -15z"/>
<path d="M3502 3279 c-40 -23 -80 -52 -88 -65 -37 -56 -12 -245 50 -386 28
-63 43 -78 52 -51 40 122 130 224 247 282 52 26 97 41 120 41 20 0 37 5 37 11
0 15 -223 119 -256 119 -36 0 -106 -34 -121 -59 -18 -28 -26 -130 -13 -146 9
-11 19 -6 47 26 37 41 38 63 2 41 -19 -12 -20 -11 -17 30 3 40 6 45 48 66 44
21 48 21 90 7 25 -9 61 -29 80 -45 32 -26 33 -29 15 -35 -86 -26 -210 -128
-245 -200 -12 -25 -25 -45 -29 -45 -12 0 -69 103 -80 145 -14 51 -14 81 0 145
9 43 18 56 52 81 55 40 84 46 102 23 12 -17 15 -17 29 -4 14 14 14 18 0 38
-21 30 -38 28 -122 -19z"/>
<path d="M3219 3261 c-40 -40 -39 -84 2 -134 42 -51 78 -51 128 1 l36 37 -27
3 c-15 2 -38 -4 -51 -13 -18 -12 -31 -13 -50 -6 -43 17 -45 65 -3 100 18 15
56 5 56 -15 0 -15 39 -35 53 -27 27 16 -39 83 -83 83 -22 0 -41 -9 -61 -29z"/>
<path d="M2897 3223 c-4 -3 -7 -15 -7 -25 0 -15 5 -18 20 -13 22 7 24 -2 14
-54 -5 -23 -12 -31 -29 -31 -30 0 -63 -36 -47 -52 9 -9 17 -7 32 7 33 30 33
11 1 -50 -50 -93 -41 -116 34 -90 30 10 82 15 150 15 59 0 107 4 110 10 3 6
-8 39 -25 74 -28 56 -30 67 -19 87 l12 24 10 -23 c6 -12 16 -22 24 -22 18 0
17 44 -2 60 -24 20 -49 7 -71 -39 -37 -76 -81 -91 -128 -44 -24 23 -26 31 -20
74 5 37 2 55 -10 74 -16 24 -36 32 -49 18z m131 -223 c13 0 35 9 50 20 l25 21
13 -38 c7 -20 12 -38 11 -39 -1 -1 -53 -4 -114 -7 -126 -7 -126 -7 -98 59 l14
35 38 -25 c21 -15 48 -26 61 -26z"/>
<path d="M2432 3194 c-51 -21 -80 -105 -49 -145 27 -35 93 -51 127 -29 12 7
12 12 -4 29 -14 15 -23 18 -31 11 -19 -16 -75 34 -68 61 8 29 48 52 78 45 20
-5 25 -12 25 -40 0 -35 21 -63 40 -51 21 13 11 66 -20 95 -38 35 -60 41 -98
24z"/>
<path d="M2541 3011 c-47 -48 -69 -88 -111 -200 -39 -103 -50 -181 -27 -181 9
0 19 5 22 10 9 15 81 50 139 67 101 30 261 14 334 -33 12 -8 27 -12 32 -9 11
7 -10 53 -78 167 -37 63 -52 80 -84 93 -57 22 -101 19 -137 -10 -31 -26 -77
-93 -69 -100 2 -3 28 -2 56 2 34 4 52 10 52 19 0 8 -9 14 -20 14 -24 0 -25 8
-4 39 15 21 23 23 71 19 65 -6 93 -33 118 -112 20 -67 20 -67 -20 -50 -62 26
-231 12 -305 -26 -21 -11 -39 -17 -42 -15 -10 10 11 155 27 186 21 42 81 106
116 124 16 9 41 12 70 8 57 -7 79 -19 79 -43 0 -26 36 -27 43 0 9 33 -15 50
-83 60 -119 17 -136 14 -179 -29z"/>
<path d="M1955 3010 c-28 -53 -62 -180 -70 -256 l-7 -72 36 -12 c20 -6 36 -14
36 -17 0 -3 -12 -14 -26 -26 -28 -21 -54 -73 -54 -105 0 -17 11 -20 85 -25 47
-3 92 -4 100 -1 8 4 24 33 36 65 12 33 26 62 32 66 13 8 37 -25 37 -51 0 -38
-79 -99 -183 -140 -70 -28 -105 -48 -127 -73 -34 -38 -45 -37 -53 5 -7 34 -57
97 -110 138 -94 72 -97 76 -104 133 -8 71 13 66 38 -9 24 -75 45 -90 129 -90
82 0 89 10 58 81 l-21 50 35 29 c32 26 36 35 41 92 5 54 3 64 -14 76 -11 7
-29 32 -40 55 -29 58 -48 77 -77 77 -44 0 -78 -50 -108 -157 -2 -10 -10 -10
-30 -3 -20 8 -32 7 -50 -5 -13 -8 -26 -15 -29 -15 -3 0 -5 27 -5 60 l0 60 -58
0 c-48 0 -62 -4 -80 -23 -27 -29 -27 -38 -1 -133 20 -72 21 -118 5 -154 -4
-11 13 -41 50 -90 81 -105 224 -324 224 -343 0 -9 5 -19 10 -22 6 -4 22 -29
35 -56 29 -56 45 -60 99 -28 33 19 36 24 36 70 0 36 4 49 14 49 11 0 16 -15
18 -51 2 -42 7 -53 29 -66 43 -26 69 -10 123 73 28 42 80 111 116 153 36 42
81 96 99 121 19 25 54 66 79 91 l44 47 2 95 c1 91 3 98 44 178 27 52 41 91 37
101 -9 24 -90 61 -115 53 -11 -4 -27 -21 -34 -39 -9 -22 -23 -36 -41 -40 -30
-8 -55 -56 -55 -106 0 -25 -4 -30 -24 -30 -24 0 -24 1 -19 80 4 58 2 84 -7 95
-13 16 -60 39 -110 55 -14 4 -33 11 -42 15 -12 5 -21 -2 -33 -25z m113 -35
c58 -27 62 -38 41 -135 -13 -60 -37 -79 -71 -56 -14 9 -29 12 -37 7 -16 -10
-6 -31 13 -31 18 0 46 -43 46 -70 0 -11 7 -20 15 -20 17 0 20 36 5 60 -13 21
6 30 65 30 37 0 60 -6 87 -25 64 -43 83 -25 23 22 -51 41 -44 108 15 141 16 9
33 25 36 34 3 10 12 25 20 33 14 13 19 13 45 0 36 -19 36 -32 0 -98 -37 -66
-49 -112 -55 -210 l-4 -78 -60 -62 c-50 -51 -203 -242 -299 -373 -18 -24 -25
-27 -40 -18 -11 7 -18 23 -18 44 0 27 4 34 22 35 36 3 64 35 61 69 -3 27 -8
32 -56 46 -47 13 -52 17 -40 32 7 10 45 30 85 46 147 60 217 120 217 188 0 42
-29 76 -63 72 -31 -4 -71 -60 -71 -99 l0 -29 -75 0 c-59 0 -75 3 -75 15 0 19
56 82 81 90 29 9 23 23 -16 42 -21 10 -38 27 -42 41 -17 68 40 282 76 282 9 0
40 -11 69 -25z m-291 -54 c12 -24 32 -54 43 -67 14 -14 18 -24 11 -29 -6 -3
-11 -28 -11 -56 0 -35 -4 -49 -14 -49 -8 0 -24 -8 -37 -19 l-23 -19 27 -50
c15 -27 27 -53 27 -56 0 -4 -28 -6 -62 -4 l-61 3 -18 52 c-17 52 -56 113 -71
113 -15 0 -38 -73 -38 -123 0 -44 4 -53 36 -83 19 -19 40 -34 46 -34 27 0 100
-67 123 -113 13 -27 22 -53 20 -57 -3 -4 -18 -10 -33 -13 -20 -4 -33 -15 -42
-36 -16 -40 -2 -59 51 -67 34 -6 39 -10 39 -34 0 -15 -9 -35 -21 -46 -20 -18
-21 -18 -35 1 -8 11 -45 73 -82 138 -59 104 -135 214 -217 314 -22 26 -24 35
-16 52 17 30 13 80 -10 140 -24 65 -19 95 21 116 52 27 56 22 52 -52 -2 -38
-8 -73 -13 -78 -4 -6 -4 -17 2 -25 8 -13 12 -12 24 5 28 39 49 55 74 57 83 6
126 -16 103 -52 -14 -23 -16 -50 -3 -50 5 0 16 11 25 25 10 14 29 31 44 37
l27 11 -26 6 c-33 8 -79 45 -79 64 0 21 29 89 48 110 24 27 44 17 69 -32z
m142 -632 c31 -11 31 -12 15 -30 -14 -15 -31 -19 -88 -19 -116 0 -147 17 -83
45 39 17 113 19 156 4z"/>
<path d="M2307 2882 c-27 -28 -35 -52 -18 -52 9 0 81 66 81 74 0 17 -40 2 -63
-22z"/>
<path d="M987 2759 c-22 -13 -47 -61 -47 -93 0 -16 9 -32 24 -41 17 -11 22
-22 18 -40 -5 -29 44 -82 81 -87 23 -3 35 -34 20 -49 -5 -5 -38 4 -78 21 -39
16 -75 30 -82 30 -17 0 -87 -74 -109 -116 l-19 -36 46 -42 c51 -46 142 -97
207 -117 39 -11 45 -11 72 9 l29 22 17 -35 c19 -40 68 -85 92 -85 22 0 77 139
68 172 -3 13 -27 38 -52 56 -46 34 -55 64 -21 70 28 6 65 -25 82 -66 9 -20 21
-86 26 -147 9 -102 30 -175 51 -175 4 0 8 -7 8 -15 0 -11 -12 -15 -49 -15 -54
0 -139 -33 -187 -73 -58 -48 -102 -59 -159 -37 -43 16 -19 29 52 28 60 -1 69
2 89 25 25 29 58 132 48 148 -4 6 -33 9 -73 7 l-66 -3 -3 33 c-3 29 -10 36
-67 63 -59 27 -66 29 -87 15 -13 -8 -49 -18 -81 -21 -66 -8 -87 -24 -87 -64 0
-35 69 -116 106 -125 20 -5 24 -11 18 -24 -4 -9 -9 -34 -12 -55 -4 -34 -7 -38
-26 -32 -89 26 -110 13 -111 -67 0 -70 23 -86 139 -98 67 -7 94 -14 110 -30
29 -26 40 -26 127 10 41 16 128 45 194 64 66 19 132 39 147 45 15 6 64 15 110
21 45 5 86 14 91 19 4 4 7 30 5 56 l-3 48 -55 16 c-34 10 -55 22 -55 31 0 9 7
13 15 11 55 -16 92 -12 116 10 28 26 31 61 8 80 -24 20 -116 146 -159 219 -22
36 -62 99 -90 142 -27 42 -59 91 -70 109 -17 28 -31 36 -85 49 -81 21 -136 55
-191 119 -43 51 -60 59 -92 40z m96 -82 c48 -49 78 -70 130 -90 37 -15 76 -27
87 -27 14 0 29 -18 51 -62 32 -64 112 -187 234 -362 60 -86 66 -99 53 -112
-11 -12 -23 -13 -49 -7 -31 8 -34 12 -31 41 9 81 -58 99 -93 25 -22 -47 -27
-50 -49 -28 -16 17 -19 29 -34 171 -12 106 -38 166 -83 189 -43 23 -109 -4
-109 -44 0 -24 50 -75 88 -90 17 -7 32 -17 32 -21 0 -7 -50 -121 -56 -129 -6
-7 -45 33 -60 61 -8 15 -14 36 -14 47 0 33 -17 33 -50 1 -27 -27 -36 -30 -68
-24 -20 3 -57 16 -81 28 -47 24 -137 94 -145 113 -8 19 64 103 88 103 22 0 96
-24 126 -40 26 -14 31 -69 8 -81 -10 -5 -18 -19 -18 -29 0 -25 11 -25 33 0 12
14 29 20 57 20 29 0 40 4 40 15 0 10 -11 15 -35 15 -34 0 -35 1 -35 37 0 43
41 119 70 128 22 7 26 20 10 30 -6 3 -22 -3 -36 -14 -15 -12 -37 -21 -50 -21
-34 0 -84 47 -84 78 0 16 -8 32 -20 40 -11 7 -20 22 -20 35 0 25 26 67 41 67
5 0 37 -28 72 -63z m-93 -531 c41 -12 46 -16 56 -57 l11 -44 62 2 c70 3 74 -4
45 -75 l-15 -39 -88 -5 c-109 -7 -120 -12 -89 -45 43 -48 123 -67 171 -42 12
6 45 28 72 49 57 42 122 70 165 70 28 0 30 -2 30 -39 0 -23 8 -48 18 -61 25
-31 54 -15 76 41 14 35 19 39 32 28 8 -7 27 -14 41 -15 44 -5 60 -50 21 -59
-192 -42 -307 -72 -387 -101 -53 -20 -119 -42 -148 -51 -50 -15 -53 -15 -89 6
-36 21 -72 29 -141 30 -44 1 -73 32 -73 76 0 27 4 35 19 35 31 0 84 -22 114
-47 40 -33 51 -20 21 25 -32 47 -28 102 10 141 22 22 29 24 44 13 47 -34 65
-26 33 14 -12 15 -19 35 -16 45 10 31 -16 32 -27 1 -21 -55 -82 -56 -138 -4
-64 61 -47 102 43 102 18 0 39 5 47 10 19 13 26 12 80 -4z m530 -81 c0 -30
-38 -154 -53 -173 -13 -17 -37 3 -37 32 0 28 66 166 80 166 5 0 10 -11 10 -25z"/>
<path d="M1030 2661 c0 -20 36 -71 51 -71 14 0 11 26 -6 40 -8 7 -15 21 -15
31 0 11 -7 19 -15 19 -8 0 -15 -8 -15 -19z"/>
<path d="M2602 2640 c-12 -5 -39 -21 -59 -35 -28 -19 -51 -25 -89 -25 l-52 0
-55 -77 c-30 -43 -88 -117 -128 -164 -184 -215 -214 -251 -217 -265 -2 -8 -8
-14 -13 -14 -19 0 -8 -27 25 -59 37 -35 42 -36 109 -7 32 14 37 14 37 1 0 -8
-15 -21 -32 -28 -42 -17 -54 -34 -60 -75 -6 -43 8 -52 144 -98 164 -56 348
-124 410 -151 l57 -26 53 23 c66 29 171 37 243 20 43 -10 57 -10 69 -1 22 18
29 66 16 106 -10 30 -17 36 -51 41 -23 4 -39 12 -39 20 0 30 -72 44 -126 24
-31 -12 -33 -11 -36 19 -2 18 3 24 22 27 49 7 132 39 140 54 5 9 10 51 11 95
2 75 1 79 -22 88 -30 11 -202 2 -249 -14 -51 -18 -90 -48 -90 -70 0 -23 -3
-23 -38 -5 -43 21 -121 30 -127 14 -8 -20 23 -161 38 -175 7 -7 33 -13 57 -14
68 -1 100 -9 100 -25 0 -16 -39 -34 -76 -34 -35 0 -87 38 -140 101 -77 93
-106 119 -137 127 -42 11 -43 23 -2 49 40 26 77 86 111 179 29 79 34 87 80
109 55 26 67 3 16 -28 -48 -31 -84 -75 -78 -96 3 -9 12 -42 21 -73 14 -49 20
-58 39 -58 13 0 39 16 60 36 l36 35 32 -26 c25 -21 38 -25 62 -20 17 3 46 9
64 12 23 4 37 14 47 34 9 15 35 48 60 72 25 25 45 49 45 55 0 5 -9 21 -21 35
-24 31 -88 51 -142 44 -35 -5 -38 -3 -51 28 -8 18 -19 36 -25 39 -20 12 -12
23 21 30 18 3 42 16 54 27 19 18 21 25 12 50 -12 34 -66 79 -94 78 -10 0 -29
-4 -42 -9z m88 -55 c13 -13 20 -30 17 -37 -6 -17 -96 -41 -133 -36 -16 2 -29
-2 -31 -9 -3 -8 4 -13 17 -13 33 0 90 -62 90 -96 0 -58 -10 -74 -43 -71 -41 3
-48 -21 -7 -29 17 -4 37 -15 43 -25 7 -11 15 -19 19 -19 12 0 10 38 -2 45 -17
10 18 64 46 71 43 11 115 -2 138 -25 l21 -22 -47 -42 c-25 -23 -51 -51 -56
-62 -7 -14 -29 -26 -62 -34 -50 -13 -52 -13 -79 13 -15 14 -32 26 -38 26 -6 0
-27 -16 -46 -35 -19 -19 -39 -35 -45 -35 -10 0 -42 76 -42 100 0 8 23 30 51
48 28 19 54 42 56 53 3 10 9 19 14 19 15 0 10 28 -7 34 -23 9 -69 7 -97 -3
-42 -16 -74 -61 -92 -125 -20 -72 -75 -161 -106 -171 -16 -5 -27 -2 -38 13
-33 41 -82 50 -95 17 -3 -8 -1 -29 5 -47 13 -46 14 -43 -37 -63 -44 -16 -46
-16 -59 1 -16 22 -18 31 -7 36 4 2 25 26 47 53 22 28 62 74 89 103 28 29 68
78 90 110 146 210 147 212 182 212 30 0 99 27 162 64 29 17 54 11 82 -19z
m-446 -567 c26 -87 25 -93 -9 -93 -28 0 -30 3 -47 65 -19 70 -22 112 -11 124
13 13 50 -40 67 -96z m716 23 c0 -52 -3 -62 -26 -80 -14 -11 -50 -25 -81 -31
-51 -11 -56 -10 -78 10 -19 18 -22 29 -18 57 5 28 3 35 -8 31 -8 -2 -15 -16
-17 -31 -2 -14 -17 -38 -34 -52 -48 -41 -27 -45 43 -8 3 2 14 -14 24 -36 13
-29 16 -56 13 -100 -5 -71 11 -82 34 -23 25 63 115 78 133 22 5 -15 15 -20 39
-20 42 0 58 -19 54 -62 -3 -30 -6 -33 -33 -30 -177 16 -233 12 -306 -24 -23
-12 -34 -9 -115 30 -49 24 -109 51 -134 59 -25 9 -103 37 -175 63 -71 25 -140
49 -152 51 -35 8 -30 49 7 68 32 16 50 13 50 -9 0 -18 30 -42 62 -50 40 -9 63
28 53 90 -6 44 -6 45 14 35 11 -6 37 -33 58 -59 21 -26 63 -73 94 -104 53 -56
58 -58 107 -58 65 0 79 6 98 41 28 55 -8 83 -105 84 l-54 0 -13 60 c-7 33 -13
63 -13 68 -2 24 91 -5 118 -37 20 -24 41 -19 41 9 0 40 40 72 96 80 27 3 56 8
64 9 8 2 48 4 88 5 l72 1 0 -59z"/>
<path d="M2890 1755 c0 -8 8 -15 18 -15 10 0 28 -7 40 -16 33 -23 40 -9 12 21
-26 28 -70 34 -70 10z"/>
<path d="M2022 1759 c-16 -36 -17 -48 -7 -64 6 -11 18 -30 26 -42 24 -39 0
-38 -34 2 -33 38 -34 38 -78 29 l-44 -9 -3 -70 c-16 -436 -22 -563 -28 -582
-5 -19 3 -32 44 -70 61 -59 82 -111 82 -203 0 -88 16 -101 88 -74 59 23 74 40
68 83 -3 21 0 39 9 48 22 22 18 66 -10 108 -20 29 -23 40 -14 51 18 21 35 17
48 -13 19 -44 63 -103 83 -114 18 -10 86 5 150 34 27 11 28 15 23 52 -13 87
-92 242 -135 265 -10 5 -30 10 -43 10 -23 0 -24 3 -20 44 7 56 -4 115 -21 122
-13 5 -149 -76 -161 -96 -3 -5 1 -37 10 -71 22 -86 9 -113 -35 -69 -41 41 -21
120 58 236 42 61 64 129 55 164 -7 26 0 25 45 -4 51 -34 149 -57 204 -50 53 7
109 -14 133 -50 30 -45 11 -47 -44 -6 -29 22 -57 40 -62 40 -17 0 -83 -38
-119 -68 l-35 -30 34 -31 c18 -17 39 -31 46 -31 23 0 28 -20 15 -60 -12 -36
-11 -41 21 -94 25 -41 40 -56 57 -56 12 0 30 -4 40 -9 9 -5 36 -18 59 -30 33
-17 47 -20 63 -11 44 24 53 96 19 169 -15 35 -17 46 -7 53 7 4 16 8 21 8 4 0
16 14 26 31 l19 30 28 -40 c48 -67 98 -52 124 38 13 45 -10 88 -71 131 -34 25
-54 48 -65 77 -16 41 -20 44 -88 64 -135 39 -311 105 -449 168 -26 12 -60 24
-76 27 -27 6 -31 3 -49 -37z m118 -28 c41 -15 112 -44 157 -64 45 -20 118 -46
163 -58 146 -39 173 -52 198 -98 13 -22 44 -58 70 -78 26 -21 50 -42 54 -48
13 -17 9 -54 -8 -88 l-17 -32 -43 50 c-30 33 -44 59 -44 77 0 18 -5 28 -15 28
-11 0 -14 -7 -9 -24 7 -31 -20 -90 -52 -111 -37 -24 -87 -16 -94 14 -8 37 -30
38 -30 2 0 -16 -5 -42 -12 -56 -15 -34 -1 -46 22 -18 14 18 24 22 50 17 43 -9
62 -43 64 -112 1 -69 -14 -76 -84 -38 -26 14 -56 26 -67 26 -12 0 -30 17 -47
43 -25 38 -27 45 -16 72 24 60 24 60 -26 86 -26 13 -49 29 -51 35 -6 17 88 79
103 68 7 -5 30 -21 52 -37 21 -15 53 -32 70 -37 31 -8 32 -8 32 21 0 41 -24
83 -63 113 -30 23 -43 26 -119 26 -83 0 -165 17 -192 40 -12 9 -11 17 6 48 16
30 18 42 9 65 -13 32 -29 34 -81 7 -50 -26 -52 -25 -72 10 -14 25 -15 35 -6
55 6 14 14 25 17 25 3 0 40 -13 81 -29z m40 -96 c0 -19 -33 -49 -101 -91 -62
-37 -87 -42 -96 -19 -6 17 22 55 41 55 6 0 36 16 66 35 57 37 90 44 90 20z
m-179 -11 c11 -14 9 -19 -14 -36 -29 -21 -35 -54 -17 -89 14 -24 47 -24 85 1
17 11 34 20 39 20 22 0 -6 -83 -57 -168 -60 -101 -77 -164 -56 -214 16 -40 60
-62 94 -46 14 6 25 16 26 22 0 6 2 20 4 31 2 11 -5 40 -16 65 -19 42 -19 46
-3 55 9 6 35 22 58 37 22 15 44 28 47 28 16 0 19 -71 4 -106 -21 -51 -20 -54
28 -54 36 0 46 -5 70 -35 40 -50 97 -174 97 -210 0 -29 -4 -33 -53 -48 -30 -9
-59 -17 -65 -17 -6 0 -27 21 -47 47 -31 41 -36 53 -33 93 3 44 4 45 41 48 30
3 37 7 35 20 -3 13 -12 16 -42 14 -30 -3 -44 2 -66 23 -20 19 -30 23 -36 14
-4 -8 3 -21 19 -35 34 -29 34 -34 0 -65 -35 -32 -75 -49 -113 -49 -20 0 -30
-5 -30 -15 0 -11 12 -15 44 -15 40 0 47 -4 65 -34 25 -39 27 -84 6 -93 -12 -4
-14 -15 -10 -47 6 -37 4 -43 -17 -53 -64 -31 -78 -21 -78 52 0 67 -25 132 -77
202 -38 50 -43 63 -39 93 3 19 10 152 16 295 6 143 13 266 15 273 6 17 60 15
76 -4z"/>
<path d="M2037 818 c-2 -29 -3 -55 0 -58 11 -12 34 38 31 69 -5 56 -25 48 -31
-11z"/>
<path d="M1595 1774 c-22 -9 -61 -24 -87 -35 -53 -22 -285 -84 -403 -108 -72
-15 -82 -20 -102 -51 -64 -101 -71 -108 -160 -152 -81 -41 -88 -47 -91 -77 -3
-25 3 -38 28 -61 32 -30 82 -41 95 -20 3 5 25 7 49 4 41 -6 46 -4 86 36 37 37
44 40 57 27 13 -13 9 -22 -36 -78 -28 -35 -51 -72 -51 -83 0 -28 89 -156 108
-156 22 0 120 76 179 139 55 59 75 110 55 141 -9 15 -5 18 29 24 48 8 119 50
119 71 0 8 -4 15 -8 15 -5 0 -35 23 -66 50 -31 28 -64 50 -73 50 -9 0 -40 -16
-69 -36 -29 -20 -57 -33 -63 -30 -18 12 -12 41 12 64 31 29 124 30 232 2 94
-24 133 -25 162 -5 25 18 42 3 23 -20 -21 -25 -23 -125 -5 -195 29 -111 30
-151 1 -185 -32 -40 -43 -26 -22 28 19 51 21 97 4 119 -7 8 -34 30 -61 48 -43
31 -49 32 -63 18 -9 -9 -19 -37 -21 -62 l-6 -46 -47 0 c-44 0 -50 -3 -88 -49
l-41 -49 -2 -92 c-1 -80 1 -95 17 -107 10 -7 27 -13 38 -13 34 1 109 38 132
66 l22 26 21 -21 c11 -11 27 -21 34 -21 6 0 18 -4 26 -9 11 -7 9 -15 -12 -42
-30 -41 -39 -70 -28 -87 8 -14 69 -31 109 -32 33 0 79 55 92 111 8 34 22 57
50 81 l38 34 6 220 c3 120 9 272 12 337 l5 117 -55 0 c-51 0 -56 -2 -76 -35
-12 -19 -25 -35 -30 -35 -20 0 -18 19 5 53 30 44 30 47 4 91 -24 40 -28 41
-84 20z m61 -58 c8 -31 -11 -66 -36 -66 -11 0 -20 5 -20 10 0 6 -15 10 -33 10
-63 0 -75 -43 -26 -92 43 -44 33 -60 -33 -52 -29 3 -77 13 -107 21 -73 21
-182 14 -211 -12 -29 -26 -42 -60 -34 -90 12 -49 72 -44 132 9 l37 34 53 -49
53 -48 -27 -18 c-15 -9 -49 -18 -76 -19 -28 -2 -52 -5 -55 -8 -3 -3 4 -20 15
-37 20 -32 20 -34 2 -68 -28 -55 -165 -181 -196 -181 -8 0 -30 25 -50 55 -43
64 -41 72 25 147 39 44 43 46 71 35 17 -6 30 -20 32 -32 2 -12 12 -21 26 -23
26 -4 27 1 5 34 -14 22 -15 31 -4 61 7 19 10 37 7 40 -9 10 -36 -18 -36 -38 0
-11 -5 -19 -10 -19 -40 0 -130 84 -130 120 0 11 -4 20 -9 20 -19 0 -22 -20
-10 -54 15 -40 0 -71 -45 -95 -22 -12 -30 -12 -50 -1 -21 11 -27 10 -41 -4
-22 -22 -51 -20 -75 4 -35 35 -26 55 37 79 71 27 131 76 172 140 29 45 36 50
84 59 74 14 422 109 482 132 66 25 73 25 81 -4z m-30 -109 c91 -73 106 -88
100 -102 -5 -13 -15 -11 -63 14 -64 32 -129 93 -119 110 12 19 40 12 82 -22z
m170 -14 c-14 -130 -18 -213 -17 -382 l1 -184 -38 -37 c-21 -20 -44 -56 -52
-79 -21 -64 -46 -91 -84 -91 -18 0 -40 6 -49 12 -15 12 -14 17 19 58 20 25 46
51 60 58 45 24 26 48 -20 25 -31 -14 -35 -14 -77 7 -24 13 -47 28 -51 34 -13
20 -9 66 6 66 14 0 31 29 22 38 -3 2 -19 -1 -36 -8 -23 -10 -34 -10 -43 -1
-15 15 -27 14 -27 -4 0 -8 9 -19 20 -25 24 -13 27 -56 5 -87 -23 -33 -81 -65
-112 -61 -23 2 -28 8 -26 28 1 14 4 52 5 85 3 48 10 68 32 98 28 36 29 37 81
31 l52 -6 6 57 c3 31 8 60 11 63 7 6 73 -28 87 -45 7 -7 4 -33 -6 -74 -9 -35
-15 -74 -12 -87 3 -14 -1 -26 -9 -29 -8 -3 -14 -12 -14 -20 0 -34 73 11 121
74 35 47 36 73 4 157 -27 71 -31 128 -14 189 10 37 22 46 34 27 16 -26 95 0
95 30 0 5 -17 24 -37 43 -36 35 -36 35 -20 61 13 20 26 26 53 26 l35 0 -5 -47z"/>
<path d="M910 1380 c-8 -5 -28 -10 -44 -10 -24 0 -27 -2 -16 -15 16 -19 49
-19 74 0 23 18 10 40 -14 25z"/>
</g>
</svg>
