<?xml version="1.0" standalone="no"?>
<!DOCTYPE svg PUBLIC "-//W3C//DTD SVG 20010904//EN"
 "http://www.w3.org/TR/2001/REC-SVG-20010904/DTD/svg10.dtd">
<svg version="1.0" xmlns="http://www.w3.org/2000/svg"
 width="600.000000pt" height="623.000000pt" viewBox="0 0 600.000000 623.000000"
 preserveAspectRatio="xMidYMid meet">
<g transform="translate(0.000000,623.000000) scale(0.100000,-0.100000)"
fill="#000000" stroke="none">
<path d="M3383 5678 c-30 -33 -93 -66 -191 -98 -79 -26 -106 -30 -198 -30 -66
0 -127 6 -162 16 -67 18 -119 41 -127 54 -3 6 -13 10 -21 10 -18 0 -18 -39 0
-65 12 -17 36 -60 81 -140 62 -113 114 -165 165 -165 12 0 31 -5 42 -11 15 -8
32 -8 64 1 45 13 97 64 139 137 25 43 11 60 -31 38 -16 -8 -46 -15 -67 -15
-31 0 -38 -3 -35 -17 2 -10 12 -18 23 -19 35 -2 36 -3 20 -34 -26 -50 -56 -63
-122 -55 -47 6 -63 13 -88 39 -35 38 -75 110 -75 136 0 11 -4 22 -10 25 -5 3
-10 15 -10 26 0 16 5 18 28 13 15 -4 31 -11 36 -15 16 -15 230 -10 288 5 80
22 120 37 150 58 14 10 29 18 32 18 10 0 6 -189 -4 -195 -5 -3 -10 -16 -10
-28 0 -27 -48 -111 -88 -154 -59 -63 -99 -83 -167 -83 -34 0 -76 5 -94 11 -26
9 -31 16 -31 44 0 19 -3 36 -7 38 -17 10 -51 -13 -55 -37 -12 -59 40 -81 207
-90 99 -6 99 -6 145 42 25 27 52 51 61 54 9 4 19 21 22 38 4 17 16 43 27 57
11 14 20 34 20 45 0 10 9 38 20 62 10 23 26 72 35 107 9 35 21 78 26 95 23 75
0 124 -38 82z"/>
<path d="M1852 5458 c-5 -7 -13 -29 -17 -48 -4 -19 -14 -48 -22 -65 -24 -46
-108 -157 -145 -190 -100 -90 -249 -165 -329 -165 -27 0 -39 -4 -39 -14 0 -19
12 -26 125 -75 55 -24 124 -54 154 -67 70 -31 87 -30 168 11 85 43 103 74 103
175 0 37 -3 75 -6 84 -8 22 -31 20 -39 -3 -3 -11 -22 -34 -41 -51 -23 -20 -34
-36 -30 -47 6 -14 9 -13 32 2 14 9 28 15 30 12 2 -2 5 -22 6 -45 2 -48 -17
-74 -74 -103 -46 -23 -85 -24 -140 -2 -50 19 -133 79 -133 96 0 6 17 15 38 19
88 18 265 174 313 276 16 33 34 61 41 61 16 1 69 -77 104 -154 25 -55 29 -77
29 -149 0 -61 -6 -100 -20 -138 -17 -46 -28 -58 -79 -90 -85 -52 -95 -54 -121
-21 -17 22 -24 25 -38 17 -26 -17 -26 -39 1 -69 22 -26 26 -27 58 -16 18 6 76
37 127 68 102 62 114 79 113 152 0 25 4 51 10 58 31 36 -117 493 -160 493 -5
0 -13 -6 -19 -12z"/>
<path d="M4145 5328 c-7 -19 -25 -181 -32 -274 -6 -89 2 -112 54 -170 34 -38
91 -74 117 -74 26 0 109 27 156 50 26 12 24 40 -2 40 -13 0 -41 12 -62 26 -29
20 -41 23 -49 14 -9 -9 -6 -16 12 -31 23 -19 23 -20 5 -34 -51 -38 -106 -25
-163 40 -28 32 -31 42 -31 102 0 72 28 173 47 173 7 0 19 -13 27 -28 19 -36
82 -88 171 -139 78 -46 137 -68 208 -78 26 -4 50 -11 53 -16 8 -14 -51 -93
-107 -142 -68 -59 -107 -78 -206 -97 -91 -18 -126 -8 -195 57 -61 59 -67 73
-43 93 21 17 19 33 -7 49 -20 12 -24 11 -45 -15 -13 -16 -23 -36 -23 -46 0
-15 139 -153 185 -184 32 -21 70 -23 116 -8 23 8 48 13 55 10 48 -18 435 266
421 308 -2 7 -25 10 -60 8 -30 -2 -70 1 -89 7 -18 6 -62 20 -98 31 -36 12 -93
37 -128 56 -84 47 -205 167 -233 233 -22 49 -45 65 -54 39z"/>
<path d="M2695 5275 c-69 -23 -157 -35 -263 -35 -94 0 -102 -1 -102 -19 0 -11
4 -22 8 -25 8 -5 55 -97 66 -130 8 -24 -3 -86 -15 -86 -5 0 -14 11 -19 25 -19
50 -62 41 -52 -11 5 -29 47 -65 67 -58 19 8 65 80 65 102 0 34 52 72 97 72 35
0 46 -6 78 -41 26 -29 34 -46 29 -57 -4 -10 -9 -38 -12 -64 -5 -61 26 -111 67
-106 20 2 27 9 29 32 3 26 1 28 -22 22 -25 -6 -26 -4 -26 33 0 59 15 91 43 91
34 0 67 27 67 56 0 30 -34 33 -50 4 -6 -11 -20 -20 -30 -20 -25 0 -25 5 -2 38
42 62 75 141 68 166 -7 30 -28 32 -91 11z m15 -50 c13 -16 7 -48 -21 -123 -10
-25 -10 -25 -32 -5 -71 65 -140 69 -204 10 -21 -18 -23 -19 -23 -3 0 9 -9 35
-19 57 -14 28 -16 41 -8 44 7 2 62 6 122 8 61 3 121 10 135 16 34 13 36 13 50
-4z"/>
<path d="M3647 5223 c-2 -4 -8 -41 -11 -82 -4 -40 -13 -83 -19 -95 -37 -65
-72 -78 -61 -21 5 28 3 36 -11 42 -24 9 -45 -22 -45 -64 0 -60 65 -64 133 -7
35 30 95 32 128 6 12 -11 28 -40 34 -67 13 -48 13 -48 -37 -102 -46 -51 -49
-57 -46 -101 3 -43 6 -47 30 -50 19 -2 30 3 38 18 10 18 9 22 -9 27 -29 8 -26
18 18 66 30 32 42 39 52 30 41 -32 109 -21 109 18 0 18 -5 20 -42 17 -63 -5
-57 16 14 46 75 33 128 71 128 93 0 21 -29 42 -57 43 -30 0 -154 67 -243 130
-80 57 -96 65 -103 53z m105 -98 c25 -19 82 -53 127 -76 44 -22 81 -46 81 -53
0 -21 -89 -96 -113 -96 -2 0 -7 15 -10 34 -8 47 -45 101 -79 114 -16 6 -44 8
-63 5 -37 -6 -43 3 -26 35 6 9 12 29 16 45 3 15 9 27 14 27 4 0 28 -16 53 -35z"/>
<path d="M3293 5149 c-43 -13 -51 -29 -23 -51 17 -13 32 -17 56 -12 28 5 37 1
63 -25 37 -38 39 -61 9 -96 -52 -59 -145 -34 -131 35 4 22 0 36 -12 50 -32 35
-45 25 -45 -34 0 -59 20 -90 79 -120 98 -51 206 81 162 197 -18 47 -95 75
-158 56z"/>
<path d="M2874 5015 c-73 -77 -115 -180 -116 -282 0 -86 9 -103 47 -83 39 21
136 102 158 132 36 49 8 51 -45 3 -87 -78 -135 -50 -99 58 33 102 98 187 143
187 39 0 61 -67 37 -112 -9 -16 -7 -24 6 -37 15 -15 17 -15 31 4 8 11 20 36
26 57 13 44 -3 77 -55 108 -52 32 -75 26 -133 -35z"/>
<path d="M2096 4968 c-47 -55 -46 -68 4 -68 28 0 40 4 40 15 0 37 92 44 121 8
19 -22 15 -90 -5 -112 -10 -11 -29 -22 -44 -26 -21 -5 -31 -1 -48 19 -12 13
-24 30 -26 36 -2 6 -16 12 -33 13 -42 3 -43 -23 -2 -67 32 -34 38 -36 94 -36
49 0 63 4 80 23 50 55 56 108 18 173 -31 54 -50 64 -114 64 -46 0 -52 -3 -85
-42z"/>
<path d="M3083 4889 c-98 -132 -153 -249 -153 -328 0 -60 67 -102 145 -91 39
5 40 6 37 40 -2 27 5 46 28 78 16 23 34 42 38 42 5 0 17 16 28 35 18 34 18 35
-2 62 -32 43 -68 42 -110 -4 -39 -42 -78 -118 -69 -133 11 -18 22 -11 36 22
13 31 59 82 90 99 12 6 21 4 29 -6 10 -12 5 -22 -29 -55 -22 -22 -55 -64 -72
-95 -33 -59 -49 -66 -88 -39 -20 14 -23 23 -19 59 9 75 83 210 152 278 34 32
54 31 111 -8 20 -13 45 -27 56 -30 28 -9 23 -27 -16 -58 -40 -32 -43 -45 -16
-78 19 -23 21 -23 37 -7 14 14 15 21 6 30 -9 9 -1 21 33 53 25 23 45 48 45 56
0 9 -18 20 -47 28 -26 7 -81 32 -122 57 -40 24 -77 44 -81 44 -5 0 -25 -23
-47 -51z"/>
<path d="M2465 4921 c-31 -13 -51 -41 -70 -100 -13 -41 -15 -58 -6 -77 11 -24
31 -33 31 -14 0 6 7 10 15 10 17 0 17 3 19 79 1 48 4 57 27 69 23 13 28 13 53
-3 28 -19 28 -20 24 -99 -7 -108 -44 -196 -93 -219 -79 -38 -135 -112 -135
-179 0 -30 28 -20 45 16 19 39 82 116 96 116 5 0 6 -19 3 -42 -5 -35 -1 -50
18 -78 13 -19 31 -36 41 -38 27 -5 31 25 8 54 -15 19 -21 41 -21 75 0 62 18
73 125 73 85 0 133 -17 183 -64 20 -19 23 -30 20 -74 -3 -47 -1 -51 20 -54 18
-3 26 4 37 32 8 19 15 42 15 50 0 28 -54 78 -124 113 -60 31 -84 37 -153 41
-46 2 -83 8 -83 13 0 4 9 23 19 41 11 18 27 55 36 82 14 41 15 56 4 93 -19 70
-91 109 -154 84z"/>
<path d="M3499 4873 c-61 -32 -103 -88 -78 -104 30 -19 63 -6 75 30 13 39 38
61 69 61 27 0 55 -29 55 -56 0 -37 -51 -99 -122 -148 -70 -48 -70 -48 -162
-47 -88 2 -94 0 -134 -29 -62 -45 -57 -83 7 -51 63 33 151 53 151 35 0 -3 -11
-15 -25 -26 -33 -26 -51 -87 -35 -117 16 -32 46 -23 42 13 -2 17 8 45 25 72
26 43 30 45 63 40 57 -9 140 -75 172 -137 36 -68 35 -92 -2 -139 -38 -48 -38
-60 1 -60 43 0 79 42 79 91 0 77 -97 223 -176 265 -40 22 -42 30 -11 38 34 8
131 74 147 99 42 68 21 164 -42 186 -41 14 -36 15 -99 -16z"/>
<path d="M1536 4719 c-40 -59 -230 -229 -257 -229 -5 0 -13 -9 -19 -20 -9 -17
-3 -23 64 -54 75 -36 126 -83 126 -117 0 -23 -13 -25 -30 -4 -14 17 -46 20
-54 6 -10 -15 3 -36 34 -54 23 -14 33 -15 54 -6 23 11 26 18 26 60 0 26 -4 51
-10 54 -5 3 -10 26 -10 49 0 64 33 96 100 96 57 0 80 -17 104 -75 28 -65 127
-100 134 -47 2 13 -2 30 -9 38 -12 14 -14 14 -26 -2 -12 -17 -14 -17 -32 1
-11 9 -25 33 -31 51 -10 30 -9 37 14 67 29 37 32 57 14 75 -19 19 -38 14 -38
-11 0 -26 -25 -66 -35 -56 -3 4 -9 38 -12 76 -11 135 -57 179 -107 102z m61
-89 c43 -89 43 -90 -27 -90 -40 0 -69 -6 -86 -16 -28 -19 -54 -63 -54 -94 0
-23 -13 -26 -29 -6 -6 8 -25 19 -41 26 -42 17 -38 33 18 69 26 16 76 60 112
96 35 36 69 64 75 62 5 -2 20 -23 32 -47z"/>
<path d="M2305 4731 c-13 -11 -129 -31 -183 -31 -38 0 -41 -2 -52 -36 -21 -61
2 -279 35 -345 27 -53 65 -89 96 -89 40 0 96 27 115 54 14 23 14 27 -7 55 -20
27 -21 37 -15 115 6 80 5 86 -16 100 -28 20 -58 20 -86 0 -20 -14 -22 -24 -22
-98 0 -79 9 -106 35 -106 6 0 10 30 10 79 0 79 13 115 39 105 16 -6 9 -245 -8
-256 -24 -16 -66 -8 -82 17 -32 49 -57 174 -51 260 7 112 7 111 85 119 37 4
76 8 87 9 21 2 21 -2 9 -70 -5 -26 -2 -34 18 -47 27 -18 58 -12 58 10 0 7 -9
18 -19 23 -17 10 -18 14 -5 51 8 23 11 52 8 65 -6 25 -31 33 -49 16z"/>
<path d="M3940 4726 c-25 -6 -66 -23 -93 -36 -97 -48 -203 -173 -176 -206 24
-29 222 -12 259 22 17 17 19 16 -84 14 -65 -1 -85 6 -86 32 0 22 73 85 134
114 107 52 175 43 176 -24 0 -15 -13 -31 -40 -50 -42 -29 -48 -43 -26 -61 19
-16 94 32 102 66 10 36 -4 88 -31 117 -27 29 -61 32 -135 12z"/>
<path d="M1880 4702 c-53 -26 -61 -52 -57 -167 3 -77 9 -113 28 -158 26 -64
90 -142 111 -135 19 7 67 155 67 211 1 41 -2 48 -16 45 -14 -2 -20 -18 -26
-63 -5 -33 -13 -66 -19 -72 -32 -39 -80 13 -102 109 -20 88 -20 108 0 158 14
35 20 40 49 40 37 0 65 -32 65 -75 0 -20 5 -25 25 -25 21 0 25 5 25 30 0 47
-26 88 -66 105 -45 19 -42 19 -84 -3z"/>
<path d="M4330 4592 c0 -25 21 -62 34 -62 44 0 66 -107 29 -136 -26 -19 -87
-17 -111 4 -34 29 -37 59 -8 86 29 27 35 73 10 83 -21 8 -61 -41 -70 -83 -4
-22 1 -47 15 -78 37 -84 126 -98 200 -31 51 46 64 91 41 142 -9 21 -29 47 -44
57 -33 21 -96 33 -96 18z"/>
<path d="M4086 4511 c-3 -4 -25 -11 -48 -15 -74 -12 -218 -87 -265 -139 -49
-53 -54 -84 -23 -135 18 -29 73 -72 93 -72 4 0 11 10 16 23 13 33 51 55 110
63 88 12 123 58 85 113 -15 21 -22 23 -66 17 -27 -4 -57 -11 -66 -15 -10 -5
-30 -15 -46 -22 -29 -14 -44 -35 -32 -47 4 -3 16 0 28 7 31 19 107 40 131 36
42 -9 48 -45 7 -45 -48 0 -180 -45 -180 -62 0 -19 -30 -6 -51 23 -19 27 -20
34 -8 55 24 46 154 118 275 154 70 21 75 17 124 -89 28 -63 26 -71 -17 -71
-48 0 -60 -8 -69 -44 -5 -19 -2 -31 7 -37 22 -14 29 -11 39 15 8 21 17 25 61
28 60 3 88 29 57 52 -20 15 -91 148 -102 190 -5 19 -13 26 -31 26 -13 0 -26
-4 -29 -9z"/>
<path d="M2623 4459 c-16 -16 -17 -55 -3 -64 6 -4 22 1 36 10 36 23 49 14 69
-46 14 -41 16 -69 11 -132 -4 -44 -11 -87 -16 -96 -5 -10 -12 -56 -16 -103 -6
-74 -4 -90 12 -118 19 -32 19 -32 89 -27 114 9 228 25 263 38 33 11 33 11 31
78 -3 57 0 70 18 88 32 32 50 72 57 128 8 60 -3 80 -35 71 -50 -13 -53 -20
-34 -74 18 -49 18 -50 -4 -81 -12 -17 -27 -29 -32 -25 -20 12 -39 79 -39 139
0 78 21 130 60 150 32 17 41 14 76 -17 22 -19 22 -19 45 13 22 32 22 32 0 50
-26 21 -48 19 -121 -13 -55 -23 -77 -43 -101 -90 -25 -48 -24 -100 2 -168 36
-94 36 -90 -7 -90 -22 0 -57 9 -80 19 -72 33 -107 85 -118 176 -8 69 -46 174
-65 179 -49 15 -87 16 -98 5z m181 -327 c13 -25 40 -42 131 -84 11 -5 40 -8
65 -6 43 3 44 2 51 -31 4 -19 5 -40 2 -47 -6 -17 -65 -34 -118 -34 -22 0 -56
-4 -75 -9 -26 -6 -43 -3 -65 9 -27 15 -30 22 -33 71 -4 68 6 159 18 159 5 0
16 -13 24 -28z"/>
<path d="M4652 4380 c-54 -60 -107 -88 -140 -75 -15 6 -15 8 6 25 21 17 29 49
16 63 -12 11 -65 -27 -70 -50 -13 -49 25 -75 104 -74 52 0 87 -20 107 -63 14
-30 14 -35 -10 -84 -21 -45 -29 -52 -54 -52 -42 0 -93 -20 -123 -48 -30 -28
-35 -51 -16 -70 26 -26 72 -5 49 22 -16 19 4 32 64 40 49 7 50 7 62 -23 19
-50 93 -69 93 -24 0 11 -12 23 -30 30 -16 6 -30 18 -30 27 0 19 -4 19 67 1 75
-20 137 -19 157 1 20 20 21 15 -15 60 -41 51 -79 130 -113 235 -47 141 -49
142 -124 59z m88 -70 c15 -48 72 -174 92 -202 22 -31 -6 -48 -78 -48 -69 0
-74 6 -49 50 8 14 14 44 15 66 0 42 -25 80 -75 111 -20 13 -20 13 2 29 12 9
32 24 44 35 26 23 31 19 49 -41z"/>
<path d="M3416 4417 c-28 -21 -16 -52 19 -52 26 0 30 -4 33 -32 6 -59 -46
-139 -161 -245 -96 -89 -105 -101 -111 -143 -7 -42 -5 -47 22 -70 28 -23 101
-65 226 -128 69 -35 78 -32 116 39 19 35 34 50 51 52 56 6 73 15 120 63 27 27
49 54 49 58 0 15 -24 29 -55 33 -27 3 -30 0 -43 -45 -11 -39 -20 -51 -48 -64
-51 -25 -60 -9 -34 61 14 36 39 74 70 106 44 45 53 50 92 50 51 0 68 -13 68
-52 0 -23 4 -28 23 -28 33 0 64 36 51 58 -31 49 -177 72 -243 37 -41 -21 -87
-93 -102 -162 -7 -30 -16 -56 -22 -60 -12 -7 -65 45 -87 87 -10 19 -21 54 -25
77 -6 37 -2 52 29 113 41 81 66 146 66 176 0 20 -57 84 -76 84 -6 0 -18 -6
-28 -13z m-2 -447 c23 -45 65 -90 94 -101 28 -11 28 -38 1 -73 -24 -31 -41
-33 -77 -8 -15 10 -52 31 -82 46 -68 34 -90 59 -90 102 0 27 12 46 63 100 62
67 62 67 67 18 3 -27 14 -65 24 -84z"/>
<path d="M734 4369 c-6 -10 2 -33 29 -84 6 -11 10 -74 9 -146 -1 -112 -5 -136
-32 -218 -35 -104 -81 -182 -135 -230 -49 -43 -42 -60 22 -50 127 21 164 29
238 49 91 25 105 35 140 98 50 90 41 152 -36 245 -46 55 -59 47 -65 -41 -3
-57 -2 -73 8 -70 7 3 14 14 16 26 2 12 10 22 17 22 16 0 53 -45 61 -74 6 -27
-28 -105 -58 -133 -36 -33 -128 -56 -193 -48 -30 4 -55 9 -55 11 0 2 15 25 33
51 19 27 41 77 51 113 9 36 22 79 27 96 12 40 12 196 -1 228 -6 16 -6 27 0 31
15 9 129 -34 186 -70 113 -72 202 -237 169 -312 -59 -132 -54 -126 -96 -119
-35 6 -39 4 -45 -19 -8 -32 -5 -35 44 -42 38 -5 42 -3 65 33 13 22 28 50 32
64 4 14 18 48 31 77 32 70 31 117 -5 172 -16 24 -27 50 -24 57 3 8 0 14 -7 14
-6 0 -31 19 -55 43 -89 85 -219 180 -297 216 -53 24 -64 25 -74 10z"/>
<path d="M1605 4333 c-30 -8 -63 -42 -70 -73 -8 -38 21 -132 49 -159 23 -22
23 -22 40 3 21 33 21 33 -19 77 -40 44 -44 70 -15 99 28 28 51 25 87 -12 39
-41 56 -76 78 -160 18 -67 18 -67 -5 -120 -30 -69 -33 -162 -7 -202 17 -25 21
-27 34 -13 12 12 13 19 3 37 -14 27 -9 135 7 151 9 9 16 2 27 -25 24 -57 121
-90 121 -41 0 14 -8 21 -27 23 -29 4 -88 67 -88 96 0 23 46 71 99 105 70 44
211 54 211 15 0 -8 4 -14 10 -14 5 0 13 -11 16 -26 5 -18 12 -24 28 -22 33 5
33 52 0 95 -27 36 -27 36 -121 29 -102 -7 -171 -33 -225 -84 -15 -14 -31 -23
-34 -19 -4 3 -9 28 -11 54 -3 26 -9 53 -13 58 -4 6 -10 21 -13 35 -14 60 -100
110 -162 93z"/>
<path d="M2369 4299 c-61 -78 -76 -167 -36 -231 23 -38 81 -89 129 -114 16 -8
25 -20 22 -28 -11 -28 -113 -53 -195 -48 -16 1 -53 27 -100 70 -130 118 -147
126 -204 93 -36 -21 -48 -74 -18 -85 18 -7 43 16 43 41 0 28 49 12 99 -33 42
-38 62 -70 118 -185 58 -119 72 -141 101 -155 20 -9 44 -13 59 -9 14 3 74 54
134 112 126 123 133 142 74 194 -34 30 -35 33 -29 83 5 45 2 60 -22 107 -40
76 -53 85 -81 53 -32 -35 -29 -47 17 -78 22 -14 42 -37 46 -50 6 -25 -16 -81
-24 -58 -2 6 -9 12 -16 12 -20 0 -103 93 -121 136 -18 42 -15 95 6 121 8 8 26
13 46 11 49 -4 70 34 37 66 -25 26 -50 19 -85 -25z m202 -423 c10 -11 14 -27
10 -36 -3 -9 -40 -48 -82 -88 -64 -61 -82 -72 -111 -72 -24 0 -42 8 -60 28
-25 27 -94 152 -83 152 3 0 21 -7 41 -15 55 -23 157 1 209 49 30 28 40 25 76
-18z"/>
<path d="M4320 4251 c-14 -3 -34 -11 -45 -18 -19 -11 -19 -12 -1 -32 22 -24
53 -27 80 -6 27 20 70 19 89 -3 53 -58 -29 -121 -158 -121 -83 -1 -125 11
-161 45 -61 57 -134 83 -192 68 -31 -9 -25 -39 8 -39 34 -1 126 -33 140 -50 9
-11 4 -16 -30 -25 -49 -13 -92 -55 -88 -84 4 -31 36 -32 47 -3 11 29 62 57
103 57 26 0 32 -7 59 -65 31 -66 37 -116 24 -194 -8 -48 -29 -68 -81 -79 -48
-10 -61 -46 -21 -61 42 -16 97 10 118 55 39 86 38 248 -2 312 -18 28 -6 37 32
23 45 -16 145 -14 179 4 47 24 70 62 70 115 0 42 -4 52 -31 74 -17 15 -43 26
-59 26 -16 0 -34 2 -42 4 -7 2 -24 1 -38 -3z"/>
<path d="M5124 4178 c-77 -81 -168 -187 -182 -215 -25 -47 -5 -168 35 -208 33
-33 132 -75 176 -75 26 0 30 20 9 43 -11 12 -27 39 -36 60 -19 46 -42 45 -38
-1 4 -36 -5 -39 -56 -21 -35 12 -57 51 -67 119 -6 42 -4 50 32 97 42 56 119
123 142 123 10 0 12 -9 8 -37 -4 -25 1 -61 14 -105 42 -143 102 -247 184 -320
30 -27 30 -27 0 -38 -17 -6 -43 -16 -60 -23 -17 -7 -75 -12 -135 -12 -98 0
-110 2 -170 32 -77 37 -125 85 -134 133 -18 98 -19 130 -4 130 28 0 48 24 41
48 -5 20 -10 23 -36 18 -17 -3 -36 -11 -44 -17 -15 -13 -17 -68 -2 -124 5 -22
16 -66 23 -98 15 -67 44 -103 99 -119 21 -6 44 -19 50 -28 14 -20 34 -22 267
-23 175 -1 250 8 257 30 2 6 -15 25 -39 41 -81 56 -164 162 -208 262 -22 53
-27 69 -49 171 -10 48 -9 120 4 182 11 55 -10 48 -81 -25z"/>
<path d="M1288 4214 c-45 -24 -68 -66 -68 -123 0 -55 7 -60 45 -35 18 12 23
22 19 39 -4 17 2 28 22 44 41 32 71 37 96 15 45 -41 47 -110 3 -138 -22 -14
-26 -14 -53 1 -25 14 -34 15 -57 5 -52 -24 1 -66 73 -59 32 4 53 13 78 38 29
28 34 40 34 80 0 59 -33 102 -98 130 -50 22 -57 22 -94 3z"/>
<path d="M1517 4025 c-15 -24 -54 -65 -87 -92 -33 -26 -60 -56 -60 -65 0 -20
57 -104 126 -183 52 -62 103 -99 164 -120 33 -12 41 -11 68 5 41 25 63 60 69
111 6 40 5 42 -16 36 -26 -7 -75 39 -106 99 -24 46 -43 63 -71 64 -24 0 -64
-34 -64 -56 0 -44 92 -164 125 -164 21 0 18 23 -4 37 -28 18 -73 98 -69 124 6
40 26 31 53 -22 15 -28 47 -73 71 -99 44 -47 44 -47 23 -74 -30 -38 -67 -34
-126 13 -101 79 -192 207 -179 248 4 11 27 34 51 52 25 18 45 36 45 41 0 4 7
11 15 14 12 4 21 -7 35 -39 17 -39 23 -45 48 -45 37 0 58 22 38 39 -8 6 -20
10 -27 9 -7 -2 -19 14 -26 37 -15 43 -40 75 -57 75 -6 -1 -24 -21 -39 -45z"/>
<path d="M4027 3923 c-14 -14 -6 -45 13 -50 28 -8 25 -37 -8 -65 -52 -43 -123
-65 -264 -84 -128 -16 -140 -20 -168 -47 -16 -16 -30 -37 -30 -47 0 -39 124
-295 152 -315 20 -13 26 -12 72 14 51 29 51 29 90 9 30 -16 52 -19 100 -15 98
7 113 21 80 72 -21 32 -31 31 -66 -2 -20 -19 -38 -27 -62 -26 -71 2 -74 26 -8
70 87 60 199 65 247 13 18 -20 18 -22 1 -57 -14 -29 -15 -38 -4 -44 23 -15 67
-10 76 9 13 24 1 49 -51 108 -59 66 -119 88 -184 68 -46 -14 -90 -41 -136 -83
-39 -36 -52 -18 -51 73 1 99 29 139 131 190 40 19 91 52 114 73 38 35 41 40
35 78 -4 22 -14 46 -23 53 -18 13 -46 16 -56 5z m-187 -251 c0 -5 -8 -17 -19
-26 -34 -31 -45 -151 -18 -205 16 -32 16 -35 0 -53 -20 -23 -82 -21 -94 2 -77
150 -88 179 -79 210 11 37 36 59 67 60 12 0 25 5 28 10 7 12 115 14 115 2z"/>
<path d="M4405 3890 c-55 -10 -105 -38 -105 -58 0 -9 11 -24 23 -32 13 -8 53
-34 88 -57 62 -42 119 -56 119 -30 0 6 -28 25 -61 41 -52 26 -60 33 -57 55 6
51 86 64 202 35 62 -16 116 -52 116 -78 0 -8 -9 -24 -19 -37 -16 -20 -28 -24
-64 -22 -34 1 -47 -3 -52 -15 -9 -23 21 -42 68 -42 69 0 124 85 97 150 -29 70
-213 116 -355 90z"/>
<path d="M1238 3802 c-16 -9 -35 -31 -44 -50 -14 -31 -14 -35 10 -89 50 -107
193 -219 289 -224 55 -3 64 3 50 34 -6 12 -16 40 -22 62 -15 55 -52 126 -73
139 -31 19 -32 -4 -4 -58 32 -62 32 -99 -2 -104 -53 -8 -183 105 -211 183 -13
37 -13 40 13 62 22 19 31 21 54 12 14 -6 35 -19 44 -29 10 -11 25 -17 32 -14
28 11 24 33 -11 63 -41 35 -83 40 -125 13z"/>
<path d="M1852 3788 c-7 -7 -12 -42 -12 -87 0 -143 69 -205 223 -200 54 2 82
0 84 -8 5 -15 -42 -89 -75 -119 -46 -40 -90 -49 -195 -36 -130 16 -171 8 -197
-35 -33 -56 -22 -93 28 -93 23 0 24 3 18 40 -7 44 9 60 58 60 32 0 135 -27
150 -39 6 -5 60 -34 119 -66 97 -50 113 -56 148 -50 34 6 42 13 59 48 11 22
20 56 20 75 0 18 4 42 10 52 5 10 13 57 16 104 8 104 2 116 -66 116 -46 0 -48
1 -72 48 -18 35 -36 53 -73 74 -49 26 -99 36 -108 21 -3 -5 -2 -22 0 -40 5
-32 6 -32 66 -35 55 -3 63 -6 76 -30 9 -15 12 -30 7 -35 -15 -15 -121 -8 -161
11 -64 29 -105 74 -105 114 0 28 5 36 30 45 34 13 37 23 14 55 -17 24 -43 29
-62 10z m412 -291 c14 -10 17 -22 13 -48 -3 -19 -11 -65 -17 -104 -13 -79 -26
-104 -64 -124 -28 -16 -28 -16 -136 39 -60 30 -67 42 -29 50 53 10 133 101
144 163 7 34 10 37 39 37 18 0 40 -6 50 -13z"/>
<path d="M4283 3667 c-18 -7 -40 -19 -48 -28 -26 -26 -31 -93 -10 -139 20 -44
29 -48 52 -24 19 18 44 14 122 -22 63 -28 79 -29 109 -8 18 12 22 24 20 51 -2
20 -10 39 -18 44 -82 42 -185 58 -185 29 0 -10 14 -17 46 -20 53 -6 119 -46
119 -72 0 -25 -18 -22 -85 11 -32 16 -80 33 -106 36 -36 5 -48 11 -52 27 -9
32 10 67 39 74 39 10 192 -4 244 -22 50 -17 120 -54 120 -63 0 -3 -6 -39 -14
-80 -16 -85 -27 -101 -51 -77 -33 33 -55 39 -81 21 -25 -16 -32 -49 -13 -61 6
-3 16 -1 22 5 17 17 35 13 71 -14 18 -14 43 -25 54 -25 20 0 22 5 22 63 1 34
7 89 15 122 21 87 20 102 -11 109 -14 4 -45 15 -68 26 -84 38 -257 58 -313 37z"/>
<path d="M915 3630 c-3 -5 -3 -26 1 -46 8 -41 -4 -103 -47 -251 -34 -119 -36
-143 -11 -143 10 0 22 4 28 10 5 5 46 11 91 12 67 3 84 0 102 -16 25 -23 18
-38 -14 -30 -28 7 -52 -25 -33 -44 16 -16 59 -15 81 2 38 29 16 75 -66 143
-22 17 -27 30 -27 65 0 48 10 65 52 91 35 22 66 21 104 -2 47 -29 88 -35 122
-17 38 19 45 40 23 60 -26 24 -50 21 -44 -5 6 -20 3 -21 -23 -15 -16 4 -44 14
-62 24 -28 14 -31 20 -26 47 8 46 -10 85 -41 85 -29 0 -35 -29 -10 -50 18 -15
20 -40 3 -40 -6 0 -42 29 -79 65 -65 63 -107 82 -124 55z m118 -100 c54 -34
59 -53 18 -75 -48 -24 -74 -69 -68 -118 2 -23 8 -51 12 -63 6 -19 2 -21 -46
-22 -29 0 -56 1 -60 4 -4 2 1 28 11 56 19 53 39 141 47 211 6 46 22 48 86 7z"/>
<path d="M4775 3534 c-43 -22 -55 -36 -66 -80 -15 -55 -13 -71 11 -102 31 -39
58 -51 113 -52 86 0 137 43 137 116 0 45 -34 107 -62 112 -18 4 -34 -56 -18
-72 24 -24 -5 -111 -39 -119 -75 -15 -144 80 -93 126 10 10 28 17 40 17 12 0
29 11 38 25 28 43 -4 59 -61 29z"/>
<path d="M1684 3497 c-83 -59 -155 -160 -171 -237 -3 -17 -9 -32 -13 -35 -3
-2 -28 18 -54 44 -85 89 -167 106 -231 50 -30 -27 -35 -37 -35 -77 0 -41 5
-50 44 -87 40 -39 96 -62 117 -49 8 4 3 52 -7 63 -2 2 -24 7 -50 12 -73 14
-100 72 -49 105 36 23 93 10 162 -38 89 -61 111 -86 118 -130 16 -94 78 -178
131 -178 33 0 30 14 -8 49 -36 32 -86 116 -76 126 3 4 20 -1 37 -9 35 -19 44
-19 94 -5 31 8 38 14 35 32 -2 16 -9 21 -23 19 -11 -2 -33 -6 -50 -8 -16 -3
-47 2 -67 10 -33 14 -38 21 -38 49 0 18 9 61 21 94 16 48 32 73 74 112 30 28
58 51 64 51 5 0 31 -9 57 -20 38 -17 49 -18 56 -8 14 22 4 41 -31 65 -42 28
-67 28 -107 0z"/>
<path d="M4300 3427 c0 -6 14 -25 30 -41 35 -32 85 -114 77 -123 -4 -3 -23 2
-43 12 -42 20 -93 14 -117 -13 -26 -29 -7 -47 34 -32 26 9 44 9 74 1 69 -19
70 -21 56 -93 -20 -101 -59 -163 -128 -203 -30 -17 -34 -17 -75 -2 -58 23 -68
21 -68 -8 0 -28 30 -51 77 -61 35 -7 68 13 139 83 44 42 94 128 94 160 0 10 4
25 9 32 8 12 20 6 61 -33 28 -26 71 -57 97 -68 41 -18 50 -19 85 -7 51 17 88
60 88 105 0 56 -95 144 -156 144 -16 0 -18 -33 -4 -61 7 -13 21 -19 44 -19 36
0 86 -32 86 -56 0 -8 -7 -26 -16 -39 -13 -20 -25 -25 -55 -25 -40 0 -57 7
-119 50 -91 63 -120 98 -120 142 0 39 -42 115 -79 143 -37 27 -71 33 -71 12z"/>
<path d="M4840 3241 c-15 -29 -4 -50 56 -107 48 -45 54 -56 54 -91 0 -42 -11
-60 -50 -87 -34 -23 -70 -20 -130 10 -48 24 -53 25 -88 11 -52 -21 -63 -43
-33 -68 26 -21 41 -17 41 12 0 11 7 19 16 19 25 0 106 -51 101 -64 -3 -6 -8
-18 -11 -26 -6 -16 28 -80 43 -80 5 0 14 7 21 15 9 11 8 19 -4 37 -9 12 -16
28 -16 35 0 26 26 11 72 -41 50 -57 99 -89 123 -80 9 4 15 30 18 82 6 92 15
137 52 260 32 104 28 123 -22 104 -53 -20 -138 -24 -177 -8 -47 19 -49 47 -4
44 28 -3 34 1 36 20 3 20 -1 22 -42 22 -34 0 -48 -5 -56 -19z m230 -163 c-22
-61 -41 -141 -47 -200 -5 -51 -8 -58 -27 -58 -25 0 -103 47 -110 67 -3 6 10
22 29 33 53 33 78 74 72 118 -3 20 -8 47 -12 59 -6 20 -3 22 41 25 27 2 53 0
58 -4 5 -3 3 -21 -4 -40z"/>
<path d="M3762 3222 c-38 -4 -61 -40 -73 -112 -4 -25 -15 -83 -23 -129 -20
-111 -14 -138 33 -151 20 -5 46 -10 59 -10 12 0 25 -8 29 -17 14 -41 55 -82
108 -107 69 -34 87 -30 83 21 -3 38 -3 38 -54 38 -59 0 -94 23 -94 62 0 21 4
23 48 23 153 -1 287 -135 187 -189 -26 -14 -29 -19 -20 -39 12 -27 49 -39 70
-22 11 9 15 33 15 82 0 148 -79 215 -242 206 -79 -4 -85 5 -42 67 55 82 105
109 188 101 223 -22 223 -22 254 33 28 49 28 57 -3 77 -34 22 -58 4 -44 -33
12 -31 7 -39 -29 -46 -62 -13 -144 9 -235 62 -49 28 -95 51 -102 51 -8 0 -16
4 -19 9 -9 14 -58 27 -94 23z m138 -98 c75 -37 75 -37 36 -54 -58 -27 -124
-96 -137 -144 -6 -23 -13 -46 -14 -53 -3 -8 -15 -9 -41 -3 -62 14 -62 15 -34
175 23 124 63 141 190 79z"/>
<path d="M1055 3062 c-45 -28 -56 -45 -57 -95 -1 -86 63 -150 85 -84 7 22 5
32 -7 46 -23 25 -20 42 14 83 28 34 33 36 63 27 37 -10 77 -54 77 -85 0 -27
-30 -54 -62 -54 -23 0 -48 -31 -48 -60 0 -15 47 -12 79 4 38 20 57 51 65 109
7 48 7 50 -34 88 -37 35 -46 39 -93 39 -33 0 -63 -7 -82 -18z"/>
<path d="M2165 3045 c-37 -26 -37 -26 -81 -4 -38 18 -54 20 -114 14 -56 -6
-73 -11 -81 -27 -9 -16 -6 -25 12 -44 29 -31 32 -30 79 7 39 32 62 34 100 10
12 -8 11 -13 -5 -31 -38 -42 -100 -70 -167 -77 -62 -5 -66 -4 -99 25 -34 30
-34 30 -16 66 17 37 17 37 -10 47 -34 13 -73 -3 -73 -29 0 -10 9 -28 20 -40
11 -12 20 -25 20 -30 0 -13 51 -58 87 -76 72 -36 143 -18 240 61 24 19 47 31
53 28 14 -8 13 -151 -1 -178 -22 -42 -64 -79 -124 -107 -33 -15 -79 -44 -102
-65 -36 -31 -43 -42 -43 -73 1 -47 20 -72 54 -72 39 0 45 27 12 54 -28 21 -28
21 -8 47 47 59 128 85 331 108 77 8 87 12 119 44 33 34 34 36 22 73 -19 60
-110 246 -133 272 -26 28 -46 28 -92 -3z m78 -39 c9 -7 17 -16 17 -19 0 -4 19
-45 42 -92 38 -79 40 -88 30 -122 -13 -43 -32 -53 -130 -72 -77 -15 -90 -8
-59 29 36 43 47 196 16 216 -20 12 -7 41 24 57 39 19 38 19 60 3z"/>
<path d="M1307 2993 c-3 -38 -11 -90 -17 -118 -17 -71 -17 -86 0 -95 138 -74
369 -100 433 -49 33 25 43 98 21 145 -20 41 -32 50 -47 35 -19 -19 -89 -12
-136 14 -23 14 -53 25 -65 25 -32 0 -56 -31 -56 -72 0 -35 2 -37 65 -62 74
-30 135 -35 135 -11 0 9 -9 15 -24 15 -57 0 -157 64 -141 89 10 17 32 13 73
-13 20 -13 62 -29 92 -36 30 -7 61 -14 68 -16 13 -4 16 -52 4 -71 -15 -24 -59
-31 -138 -23 -95 10 -138 21 -198 49 -57 28 -70 44 -57 69 5 10 13 42 17 71 4
29 12 55 19 57 7 3 27 -4 46 -15 37 -21 74 -15 86 14 9 26 -13 42 -38 27 -17
-11 -24 -9 -53 13 -18 14 -44 25 -58 25 -25 0 -26 -3 -31 -67z"/>
<path d="M4429 2934 c-20 -24 70 -244 101 -244 20 0 20 22 -3 62 -33 60 -38
86 -20 104 50 49 233 -112 233 -204 0 -48 -66 -59 -108 -19 -21 20 -31 23 -44
16 -28 -15 -22 -32 24 -67 46 -35 58 -38 91 -19 51 28 77 60 77 94 0 67 -116
204 -214 256 -54 27 -123 38 -137 21z"/>
<path d="M579 2860 c-47 -4 -91 -10 -97 -14 -20 -12 -13 -31 18 -49 88 -52
196 -197 232 -312 39 -123 50 -251 29 -309 -7 -18 -6 -27 3 -35 11 -9 40 18
132 119 135 149 152 180 136 249 -6 25 -13 58 -16 73 -10 45 -81 87 -189 112
-20 5 -29 2 -34 -10 -3 -9 0 -20 8 -24 7 -5 23 -28 34 -51 25 -54 51 -66 42
-20 -6 30 -5 31 26 31 44 0 74 -23 87 -68 17 -63 12 -102 -21 -153 -28 -44
-116 -119 -139 -119 -6 0 -10 22 -10 48 0 106 -79 287 -165 378 -30 32 -51 62
-47 66 33 33 265 62 310 39 9 -5 41 -19 71 -32 29 -13 69 -38 87 -55 29 -26
37 -42 49 -109 16 -83 11 -105 -26 -105 -25 0 -30 -13 -17 -42 11 -23 15 -24
46 -14 58 17 61 49 23 201 -6 22 -13 54 -17 70 -8 38 -41 67 -99 89 -25 10
-45 21 -45 25 0 19 -270 32 -411 21z"/>
<path d="M4214 2788 c-33 -36 -54 -78 -54 -108 0 -15 7 -20 29 -20 22 0 38
-10 65 -42 20 -23 36 -47 36 -53 0 -26 42 -65 69 -65 38 0 75 41 66 72 -20 62
-109 158 -128 139 -7 -7 1 -21 22 -43 54 -55 80 -138 43 -138 -13 0 -27 17
-43 52 -13 28 -44 71 -67 96 -40 40 -43 47 -32 67 23 44 53 47 106 13 68 -43
154 -135 189 -203 30 -58 30 -58 -35 -116 -35 -33 -67 -59 -71 -59 -3 0 -13
18 -22 40 -17 44 -35 55 -73 46 -32 -8 -29 -38 6 -46 17 -4 28 -16 36 -38 12
-39 39 -72 56 -72 7 0 24 19 38 41 14 22 53 64 87 92 35 29 63 58 63 65 0 25
-83 137 -154 207 -111 111 -177 132 -232 73z"/>
<path d="M3557 2751 c-43 -28 -215 -199 -222 -222 -8 -23 14 -62 49 -84 22
-15 24 -21 19 -70 -5 -46 -1 -63 23 -115 32 -67 61 -79 89 -36 16 25 11 56
-10 56 -25 0 -65 48 -65 79 0 42 13 46 59 17 56 -35 103 -108 109 -166 6 -69
-9 -90 -63 -90 -43 0 -45 -2 -45 -28 0 -62 51 -70 95 -15 64 80 78 145 47 216
-20 45 -99 118 -142 132 -27 8 -25 29 3 43 35 18 110 42 133 42 33 0 124 -50
147 -82 27 -38 124 -108 148 -108 10 0 34 8 53 18 27 13 36 23 36 43 0 35 -24
56 -45 39 -8 -7 -15 -20 -15 -30 0 -30 -26 -30 -72 -1 -51 33 -86 76 -119 150
-54 123 -98 197 -126 213 -36 21 -51 21 -86 -1z m91 -92 c26 -32 75 -130 69
-136 -3 -2 -15 1 -28 7 -15 8 -44 10 -87 6 -63 -7 -95 -20 -140 -60 -22 -20
-22 -20 -52 9 -17 16 -30 35 -30 42 0 21 159 167 189 174 29 6 51 -6 79 -42z"/>
<path d="M5347 2743 c-4 -3 -26 -10 -49 -14 -128 -22 -174 -32 -182 -40 -6 -5
-23 -9 -40 -9 -44 0 -91 -43 -126 -114 -36 -76 -36 -84 -9 -133 66 -117 118
-157 117 -90 0 17 3 51 7 75 9 48 -9 60 -25 17 -12 -31 -17 -31 -52 2 -36 35
-36 73 1 138 24 42 37 52 77 66 27 10 84 20 127 24 86 8 98 -2 53 -44 -14 -13
-30 -37 -36 -54 -7 -18 -16 -41 -21 -52 -29 -63 -48 -230 -37 -313 4 -35 6
-68 3 -72 -8 -13 -157 52 -213 94 -67 49 -133 151 -147 228 -6 29 0 50 30 112
36 76 36 76 74 70 34 -5 39 -3 44 17 7 27 -16 48 -55 49 -35 0 -62 -40 -113
-168 -37 -93 -37 -93 -21 -137 10 -24 24 -49 32 -55 7 -7 14 -20 14 -30 0 -37
204 -206 343 -283 57 -32 103 -37 92 -9 -4 9 -10 26 -13 37 -2 11 -9 25 -14
32 -5 6 -12 58 -15 115 -6 113 10 211 46 291 12 25 21 50 21 55 0 15 81 125
113 153 17 15 27 31 23 38 -8 12 -39 15 -49 4z"/>
<path d="M1793 2728 c-61 -30 -90 -244 -45 -337 12 -25 21 -45 19 -47 -1 -1
-33 1 -72 5 -103 9 -151 0 -186 -36 -38 -38 -50 -100 -25 -138 28 -43 94 -60
167 -44 56 13 64 27 33 56 -20 18 -29 21 -44 13 -10 -6 -22 -15 -25 -20 -9
-14 -79 -12 -93 2 -20 20 -14 63 14 89 24 22 35 24 146 27 120 4 120 4 152
-26 59 -56 112 -82 166 -82 37 0 52 4 57 16 8 21 -13 34 -55 34 -38 0 -135 46
-127 60 3 6 21 10 38 10 18 0 39 6 48 13 26 20 52 66 45 82 -8 23 -35 18 -48
-10 -10 -23 -82 -65 -112 -65 -8 0 -29 30 -47 66 -35 70 -42 129 -26 207 9 41
53 77 95 77 27 0 39 24 22 45 -14 17 -65 19 -97 3z"/>
<path d="M1226 2683 c-46 -67 -31 -122 41 -157 21 -10 47 -23 58 -29 11 -6 68
-13 126 -15 98 -4 109 -3 162 23 31 14 57 32 57 39 0 24 -170 136 -207 136
-40 0 -25 -24 35 -55 61 -33 76 -61 46 -86 -25 -20 -177 -17 -229 5 -51 22
-75 44 -75 70 0 36 16 48 71 54 45 6 54 10 54 27 0 17 -8 20 -57 23 -56 3 -57
2 -82 -35z"/>
<path d="M2431 2637 c-6 -8 -17 -29 -25 -48 -13 -30 -22 -37 -67 -48 -38 -10
-66 -26 -101 -60 -56 -53 -61 -83 -13 -92 42 -7 55 -1 55 28 0 43 36 83 75 83
33 0 33 0 23 -32 -30 -92 -78 -156 -137 -182 -34 -16 -45 -17 -71 -6 -23 10
-30 19 -30 41 0 36 -14 44 -51 29 -31 -13 -40 -49 -16 -67 25 -20 104 -43 145
-43 93 0 172 76 188 181 4 21 12 46 19 56 12 16 15 15 45 -17 39 -42 61 -84
71 -135 7 -35 2 -51 -38 -135 -25 -52 -48 -114 -51 -137 -4 -36 0 -46 24 -73
31 -32 64 -39 84 -15 21 26 8 50 -28 49 -31 -2 -32 0 -32 35 0 67 42 130 159
239 105 98 109 104 113 148 3 43 1 49 -29 71 -18 14 -47 33 -65 42 -18 10 -68
36 -110 59 -79 44 -118 52 -137 29z m129 -62 c19 -12 56 -31 81 -44 51 -24 76
-63 65 -105 -8 -31 -103 -136 -123 -136 -11 0 -13 7 -8 29 11 53 -69 178 -126
196 -13 4 -18 12 -15 22 3 8 6 19 6 24 0 5 9 18 19 28 22 22 48 19 101 -14z"/>
<path d="M4185 2583 c10 -35 10 -110 1 -146 -7 -28 -26 -37 -26 -13 0 48 -97
103 -128 72 -19 -18 -7 -36 23 -36 24 0 95 -71 95 -96 0 -21 -86 -100 -134
-123 -30 -14 -65 -21 -104 -21 -52 0 -60 3 -78 28 -11 15 -23 35 -27 45 -12
32 -42 16 -45 -23 -5 -67 80 -118 152 -91 15 6 42 11 59 11 36 0 119 40 158
76 14 13 28 24 31 24 3 0 9 -26 13 -57 19 -159 138 -245 225 -163 31 29 33 33
27 90 -9 104 -67 166 -91 97 -9 -25 -7 -31 22 -53 26 -21 32 -32 32 -65 0 -33
-4 -41 -26 -51 -51 -24 -108 33 -139 140 -9 31 -21 69 -25 83 -5 17 -2 37 10
61 25 52 41 124 34 156 -12 57 -26 82 -46 82 -17 0 -19 -4 -13 -27z"/>
<path d="M3045 2484 c-180 -24 -192 -32 -176 -117 7 -40 6 -49 -11 -64 -35
-32 -56 -78 -63 -138 -9 -76 5 -94 54 -69 34 17 37 27 16 64 -22 38 -18 74 10
100 25 23 25 23 42 -16 38 -88 25 -204 -29 -254 -30 -27 -54 -25 -82 7 -24 28
-24 28 -45 3 -23 -29 -26 -51 -9 -68 16 -16 40 -15 100 5 66 21 123 75 138
132 14 51 9 84 -24 164 -28 66 -22 74 40 62 107 -20 166 -88 178 -205 7 -61
23 -114 46 -149 20 -30 99 -41 119 -17 15 18 7 66 -11 66 -6 0 -22 -9 -34 -21
-22 -20 -22 -20 -43 10 -25 34 -42 148 -30 195 55 223 48 307 -28 320 -21 3
-42 5 -48 5 -5 -1 -55 -7 -110 -15z m140 -46 c28 -21 28 -22 22 -114 -3 -51
-8 -98 -12 -104 -4 -7 -16 1 -30 22 -34 51 -113 88 -185 88 -59 0 -59 0 -66
35 -9 49 15 75 70 76 23 1 55 5 71 9 58 15 101 11 130 -12z"/>
<path d="M1243 2433 c-25 -9 -14 -41 18 -52 18 -6 29 -16 27 -23 -6 -16 -2
-16 -109 1 -66 11 -90 11 -107 2 -30 -16 -28 -31 9 -77 46 -58 116 -215 138
-309 11 -47 34 -41 95 23 55 57 120 93 144 78 14 -8 4 -36 -13 -36 -13 0 -27
-35 -17 -44 22 -23 82 20 82 58 0 34 -43 56 -111 56 -46 0 -55 4 -85 36 -40
42 -41 50 -13 109 17 36 28 47 58 55 20 5 47 10 60 10 26 0 91 60 91 84 0 25
-45 42 -66 25 -15 -12 -14 -14 1 -25 15 -12 15 -13 -2 -22 -10 -6 -38 -13 -63
-16 -42 -6 -46 -5 -65 25 -20 33 -50 50 -72 42z m37 -117 c0 -2 -7 -20 -15
-39 -8 -20 -15 -56 -15 -81 0 -37 5 -48 34 -74 19 -16 40 -32 48 -35 10 -4 8
-9 -7 -20 -11 -8 -31 -24 -44 -36 -30 -26 -37 -21 -55 37 -12 43 -48 120 -90
197 -15 28 -15 31 1 43 15 10 143 18 143 8z"/>
<path d="M4532 2384 c-40 -34 -42 -38 -42 -91 0 -49 4 -59 33 -88 92 -92 227
-43 227 81 0 51 -11 60 -45 38 -19 -13 -25 -23 -21 -39 7 -28 -28 -62 -72 -71
-38 -8 -57 6 -78 54 -13 32 -12 38 4 66 21 36 51 44 84 22 19 -12 28 -13 47
-3 36 18 36 34 2 51 -50 27 -92 20 -139 -20z"/>
<path d="M2105 2198 c-13 -29 -66 -54 -130 -62 -54 -6 -75 -24 -75 -64 0 -43
18 -62 58 -62 55 0 172 48 172 70 0 19 -20 20 -52 0 -45 -27 -151 -29 -146 -2
2 12 18 19 53 26 51 8 79 17 128 42 16 8 35 14 43 14 21 0 47 -47 40 -74 -8
-33 -114 -101 -231 -147 -11 -4 -43 -10 -71 -13 -45 -6 -52 -4 -62 16 -15 29
-62 139 -62 144 0 2 18 4 39 4 59 0 71 8 71 45 0 19 -4 36 -9 40 -10 6 -41
-21 -41 -36 0 -5 -21 -9 -47 -9 -29 0 -53 -6 -64 -16 -17 -16 -17 -18 16 -59
19 -23 35 -48 35 -56 0 -8 11 -34 25 -58 14 -23 25 -49 25 -57 0 -8 6 -17 14
-20 17 -7 146 29 202 55 21 10 56 26 77 36 45 21 127 109 127 137 0 29 -26 73
-60 102 -39 32 -62 33 -75 4z"/>
<path d="M2338 2164 c-40 -21 -59 -62 -48 -108 21 -93 99 -204 169 -240 17 -9
31 -21 31 -26 0 -5 -20 -18 -44 -29 -25 -10 -65 -38 -90 -61 -69 -63 -74 -133
-16 -191 36 -37 76 -38 133 -3 72 45 99 96 56 107 -32 8 -47 -1 -59 -39 -21
-64 -91 -78 -120 -24 -23 43 60 145 165 204 38 20 50 23 78 15 57 -16 154 5
195 43 45 43 19 63 -40 30 -18 -10 -49 -21 -68 -24 -19 -4 -43 -9 -52 -13 -27
-11 -22 11 8 38 32 30 44 101 21 131 -20 27 -41 11 -33 -26 4 -21 -1 -40 -18
-66 -40 -64 -47 -67 -108 -37 -67 34 -114 79 -138 130 -34 77 -34 82 4 129 41
50 42 52 18 65 -12 6 -26 5 -44 -5z"/>
<path d="M3664 2106 c-39 -34 -39 -34 -11 -59 22 -22 27 -34 27 -76 0 -28 -5
-62 -12 -76 -10 -22 -8 -30 9 -53 24 -32 82 -42 102 -18 17 20 17 182 0 202
-6 8 -14 12 -17 10 -2 -3 -5 -41 -6 -85 -1 -60 -5 -84 -18 -97 -9 -9 -20 -14
-25 -11 -4 3 -7 61 -7 128 2 114 4 124 22 132 34 15 70 0 85 -36 46 -109 57
-316 18 -351 -16 -15 -155 -26 -167 -13 -3 3 -1 22 6 42 11 35 10 39 -13 63
-15 15 -31 22 -41 19 -21 -8 -21 -47 0 -47 12 0 15 -6 10 -22 -15 -57 -18 -99
-7 -112 10 -12 19 -11 59 4 26 9 83 20 127 24 44 4 82 9 84 12 3 3 8 33 12 67
13 121 -22 298 -73 362 -16 21 -28 25 -72 25 -46 0 -58 -5 -92 -34z"/>
<path d="M3990 2119 c-44 -82 -67 -239 -35 -239 10 0 15 10 15 28 0 27 18 86
33 110 29 44 82 -27 103 -139 16 -82 15 -85 -5 -131 -16 -38 -25 -48 -44 -48
-30 0 -57 30 -66 72 -7 33 -26 45 -47 30 -18 -12 -4 -79 22 -107 19 -21 32
-25 77 -25 78 0 98 25 105 125 8 120 -31 239 -101 313 -36 38 -43 39 -57 11z"/>
<path d="M4503 2133 c-16 -6 -18 -109 -3 -118 20 -12 11 -81 -14 -108 -30 -32
-59 -40 -110 -30 -34 7 -43 15 -63 55 -42 83 -118 125 -143 78 -8 -14 -8 -26
0 -40 13 -24 26 -26 38 -4 12 22 28 11 52 -36 26 -50 25 -58 -5 -82 -31 -24
-34 -72 -6 -87 23 -13 31 -5 31 29 0 27 24 58 33 43 3 -4 8 -39 12 -78 9 -90
29 -135 61 -135 16 0 28 9 38 28 20 38 128 142 211 203 69 50 84 75 55 89
-140 67 -170 92 -170 141 0 22 0 22 23 0 25 -22 51 -21 61 4 11 30 -61 65
-101 48z m68 -179 c7 -8 25 -22 41 -30 36 -19 35 -25 -4 -49 -18 -10 -69 -54
-114 -97 -44 -43 -87 -78 -93 -78 -16 0 -64 109 -56 128 4 10 14 12 38 8 72
-13 157 47 157 110 0 28 12 31 31 8z"/>
<path d="M1559 2023 c-32 -20 -79 -89 -79 -118 0 -53 76 -125 134 -125 23 0
27 3 21 18 -4 9 -10 25 -12 35 -3 9 -14 17 -24 17 -21 0 -34 21 -43 72 -5 30
-3 40 16 57 33 31 106 24 130 -13 15 -22 8 -65 -12 -76 -13 -7 -20 -21 -20
-40 0 -50 33 -51 63 -1 33 56 11 157 -40 180 -35 16 -104 13 -134 -6z"/>
<path d="M3411 2006 c-10 -11 -7 -19 10 -35 15 -14 23 -36 26 -68 7 -71 -7
-83 -99 -90 -85 -6 -135 8 -196 54 -32 24 -34 28 -30 82 3 54 2 56 -22 56 -28
0 -50 -34 -50 -78 0 -73 211 -178 320 -161 22 4 40 4 40 0 0 -4 -10 -26 -22
-49 -52 -99 -60 -153 -28 -204 37 -61 103 -83 153 -50 33 22 67 94 67 143 0
51 -6 57 -42 38 -27 -14 -28 -17 -22 -63 8 -64 -6 -91 -50 -91 -19 0 -39 7
-47 16 -21 26 -14 130 15 209 14 38 26 71 26 72 0 2 17 11 38 22 95 50 140
112 133 189 -2 24 -29 12 -40 -18 -13 -40 -79 -120 -98 -120 -11 0 -13 5 -7
18 17 36 8 82 -21 112 -33 34 -38 36 -54 16z"/>
<path d="M2872 1910 c-20 -8 -23 -15 -17 -40 7 -33 -14 -71 -72 -127 -47 -46
-44 -92 9 -119 29 -15 31 -15 60 13 46 43 88 109 88 137 0 34 -13 33 -30 -1
-18 -37 -91 -113 -107 -113 -33 0 -24 33 20 78 25 26 57 67 70 92 27 49 53 56
90 22 21 -19 18 -68 -8 -118 -8 -16 -15 -34 -15 -40 0 -14 -70 -120 -107 -161
-36 -41 -60 -41 -116 -3 -25 17 -49 30 -55 30 -5 0 -14 6 -20 13 -8 10 -3 20
24 40 47 38 46 97 -3 97 -22 0 -24 -3 -18 -29 5 -23 2 -32 -12 -40 -37 -22
-52 -38 -58 -64 -6 -21 -4 -27 10 -27 19 0 172 -75 196 -96 8 -8 20 -14 27
-14 14 0 93 93 126 150 66 112 80 156 77 242 -2 52 -103 101 -159 78z"/>
<path d="M2061 1887 c-60 -30 -14 -51 58 -26 40 14 81 -1 81 -30 0 -76 -237
-190 -288 -139 -19 19 -14 63 11 86 13 12 28 22 35 22 6 0 13 4 16 9 9 15 -5
41 -21 41 -23 0 -82 -39 -94 -62 -15 -28 -3 -82 27 -118 21 -24 34 -30 64 -30
102 0 259 86 318 174 54 81 50 86 -75 86 -66 0 -118 -5 -132 -13z"/>
<path d="M1630 1740 c-8 -5 -29 -9 -47 -8 -18 1 -40 -5 -50 -14 -10 -9 -30
-20 -46 -23 -15 -4 -29 -11 -32 -15 -3 -5 -42 -33 -88 -63 -97 -65 -207 -166
-207 -190 0 -15 11 -17 78 -17 62 0 98 -7 167 -31 49 -17 101 -39 116 -50 15
-10 30 -19 33 -19 4 0 37 -25 74 -55 71 -59 122 -121 146 -179 34 -82 54 -27
77 209 12 134 4 161 -72 229 -45 40 -57 46 -96 46 -44 0 -137 -25 -160 -43
-18 -13 -16 -37 2 -37 9 0 37 -11 63 -25 32 -17 49 -22 57 -14 7 7 2 16 -15
29 -28 21 -28 21 19 45 46 23 76 13 128 -43 41 -43 43 -49 43 -106 0 -60 -35
-186 -51 -186 -5 0 -15 13 -23 29 -14 26 -115 121 -129 121 -3 0 -32 16 -64
35 -67 39 -170 75 -219 75 -19 0 -34 2 -34 5 0 3 17 29 38 58 95 127 208 190
344 190 67 0 67 0 133 -57 36 -32 65 -63 65 -69 0 -6 -7 -18 -16 -28 -32 -36
11 -76 46 -44 46 42 19 89 -112 199 -59 49 -73 56 -110 56 -24 0 -50 -5 -58
-10z"/>
<path d="M3114 1697 c-67 -49 -124 -110 -124 -132 0 -26 20 -16 72 35 28 28
53 50 57 50 45 -1 49 -92 6 -176 -35 -70 -87 -124 -119 -124 -47 0 -72 63 -41
103 17 24 9 47 -16 47 -14 0 -26 -14 -39 -46 -18 -42 -19 -48 -4 -75 19 -37
69 -69 108 -69 41 0 116 80 157 167 49 102 54 263 9 263 -4 0 -34 -19 -66 -43z"/>
<path d="M2196 1684 c-22 -21 -20 -34 4 -34 26 0 17 -25 -28 -72 -34 -36 -34
-36 -66 -17 -40 24 -58 24 -81 -1 -17 -19 -18 -22 -2 -37 13 -13 20 -14 29 -5
19 19 48 15 48 -8 0 -11 -6 -20 -13 -20 -17 0 -127 -57 -150 -78 -33 -29 -17
-53 49 -77 79 -28 130 -57 232 -128 45 -32 88 -57 95 -54 7 2 12 21 13 43 2
94 44 194 80 194 12 0 14 -7 9 -30 -8 -37 10 -66 31 -49 20 16 29 76 14 94
-20 24 -91 15 -120 -15 -14 -15 -61 -40 -76 -40 -57 0 -119 95 -95 147 7 14
23 35 37 45 52 42 73 127 35 148 -25 13 -27 13 -45 -6z m-63 -252 c4 -20 19
-53 35 -72 27 -32 33 -34 86 -34 35 0 55 -4 52 -11 -3 -5 -10 -29 -17 -52 -6
-24 -15 -43 -19 -43 -4 0 -37 20 -74 45 -36 24 -95 58 -131 75 -74 35 -75 44
-8 99 51 42 69 40 76 -7z"/>
<path d="M4137 1657 c-177 -98 -197 -119 -197 -207 0 -25 -5 -51 -11 -57 -8
-8 -8 -17 0 -31 6 -11 11 -39 11 -61 0 -22 4 -42 9 -45 5 -3 11 -16 14 -28 14
-61 39 -145 54 -177 48 -109 67 -141 85 -141 10 0 18 7 18 18 1 68 96 222 192
307 88 78 224 145 294 145 41 0 64 9 64 24 0 12 -152 89 -255 129 -108 43
-199 26 -264 -48 -30 -34 -31 -39 -31 -126 0 -75 3 -91 17 -96 10 -4 19 -1 21
7 3 7 22 32 43 55 22 23 39 45 39 49 0 12 -34 6 -51 -10 -17 -15 -18 -14 -25
22 -10 52 15 95 72 122 24 12 55 22 67 22 38 0 108 -29 163 -68 55 -38 64 -50
42 -56 -54 -14 -97 -33 -128 -55 -114 -83 -195 -171 -233 -253 -10 -20 -21
-39 -26 -42 -11 -7 -62 65 -101 144 -30 61 -32 72 -31 167 0 56 4 110 9 120 6
10 15 30 23 46 7 15 24 33 38 41 14 7 48 26 75 41 49 28 49 28 72 0 40 -51 82
-9 44 45 -26 37 -40 37 -113 -3z"/>
<path d="M3684 1594 c-29 -30 -34 -42 -34 -86 0 -38 6 -59 28 -88 42 -60 94
-75 152 -45 35 18 84 80 75 94 -8 14 -67 1 -82 -18 -13 -19 -99 -19 -117 -1
-6 6 -11 31 -10 56 1 56 25 84 71 84 27 0 35 -5 43 -25 11 -28 51 -51 74 -42
25 10 19 26 -23 68 -35 35 -43 39 -91 39 -47 0 -56 -4 -86 -36z"/>
<path d="M3237 1533 c-10 -10 -8 -51 2 -58 5 -3 12 -1 16 5 13 22 25 8 24 -27
-2 -67 -12 -87 -47 -94 -36 -7 -72 -35 -72 -54 0 -7 7 -18 15 -25 13 -11 19
-8 40 14 24 26 45 34 45 17 0 -6 -18 -43 -40 -83 -43 -78 -49 -118 -24 -139
12 -10 20 -10 34 -1 39 24 109 35 249 41 117 5 146 9 154 22 8 12 5 22 -9 37
-33 36 -67 136 -60 176 8 44 21 46 35 6 13 -39 51 -43 51 -5 0 36 -28 75 -55
75 -23 0 -55 -28 -55 -48 0 -7 -4 -12 -10 -12 -5 0 -10 -12 -10 -26 0 -18 -12
-38 -36 -60 -49 -47 -81 -45 -135 6 -36 34 -40 43 -34 67 18 73 17 102 -5 138
-20 33 -55 47 -73 28z m83 -264 c0 -14 70 -39 107 -39 27 0 46 7 65 25 34 31
48 32 48 3 0 -13 7 -32 15 -42 29 -38 19 -43 -97 -49 -62 -4 -129 -11 -149
-16 -53 -12 -63 -2 -55 53 4 25 11 48 17 51 5 4 9 15 9 26 0 17 3 18 20 7 11
-7 20 -16 20 -19z"/>
<path d="M2598 1487 c-59 -27 -98 -87 -98 -153 0 -26 9 -43 40 -74 45 -45 83
-52 147 -25 36 15 36 15 13 40 -20 21 -30 24 -58 19 -28 -5 -38 -2 -63 22 -39
37 -38 74 2 108 60 50 119 27 119 -46 0 -48 18 -75 45 -64 21 8 20 79 -1 112
-16 24 -92 75 -110 73 -5 0 -21 -6 -36 -12z"/>
<path d="M2758 1239 c-29 -30 -57 -54 -62 -54 -5 0 -13 -12 -17 -27 -4 -15
-16 -40 -28 -57 -12 -16 -21 -37 -21 -48 0 -10 -6 -30 -14 -44 -13 -25 -30
-80 -61 -191 -17 -62 -20 -124 -6 -132 5 -3 29 10 53 28 51 39 118 71 168 81
19 4 41 12 48 18 8 6 68 10 155 9 146 -1 222 -16 279 -56 28 -20 48 -20 48 -2
0 13 -120 234 -140 260 -6 6 -21 25 -35 43 -30 37 -98 63 -167 63 -45 0 -53
-4 -96 -47 -85 -86 -108 -164 -38 -128 16 8 46 15 67 15 28 0 39 4 39 15 0 10
-10 15 -30 15 -34 0 -37 10 -13 51 24 39 61 51 129 38 40 -7 63 -18 80 -37 30
-35 74 -119 74 -142 0 -11 5 -22 10 -25 6 -3 10 -13 10 -21 0 -17 -31 -19 -49
-1 -15 15 -291 15 -324 -1 -12 -5 -44 -18 -72 -27 -27 -10 -58 -24 -67 -32
-29 -25 -36 -7 -32 79 7 135 38 209 121 289 69 67 108 89 143 78 14 -4 45 -7
70 -8 53 -1 70 -14 70 -54 0 -25 3 -28 27 -25 22 2 27 9 31 36 2 18 -2 39 -8
47 -12 14 -96 30 -217 41 -72 6 -72 6 -125 -47z"/>
</g>
</svg>
