<?xml version="1.0" standalone="no"?>
<!DOCTYPE svg PUBLIC "-//W3C//DTD SVG 20010904//EN"
 "http://www.w3.org/TR/2001/REC-SVG-20010904/DTD/svg10.dtd">
<svg version="1.0" xmlns="http://www.w3.org/2000/svg"
 width="600.000000pt" height="562.000000pt" viewBox="0 0 600.000000 562.000000"
 preserveAspectRatio="xMidYMid meet">
<g transform="translate(0.000000,562.000000) scale(0.100000,-0.100000)"
fill="#000000" stroke="none">
<path d="M3478 5197 c-15 -12 -34 -38 -42 -57 -12 -30 -12 -43 0 -89 7 -30 21
-62 30 -73 26 -28 74 -23 114 12 51 43 82 39 185 -25 22 -13 54 -31 71 -39 17
-8 36 -22 44 -30 7 -9 18 -16 25 -16 11 0 27 -12 88 -65 23 -20 22 -51 -3 -82
-11 -14 -20 -34 -20 -43 0 -10 -7 -23 -16 -30 -8 -8 -22 -27 -30 -44 -8 -17
-26 -49 -39 -71 -14 -22 -30 -51 -37 -65 -14 -29 -95 -158 -133 -212 -29 -41
-50 -46 -117 -27 -26 7 -40 17 -44 33 -7 28 19 132 39 154 8 10 18 28 22 42 4
14 16 36 26 49 11 13 19 34 19 46 0 35 39 76 96 101 78 35 94 76 48 128 -21
24 -36 30 -79 34 -46 4 -54 2 -69 -19 -9 -13 -16 -40 -16 -61 0 -54 -19 -135
-35 -148 -8 -7 -17 -27 -21 -45 -3 -19 -15 -41 -25 -51 -10 -9 -19 -24 -19
-33 0 -9 -11 -34 -25 -56 -13 -22 -25 -48 -25 -57 0 -10 -8 -34 -17 -54 l-18
-36 31 -27 c19 -17 49 -31 75 -35 68 -11 101 -55 64 -86 -8 -7 -15 -18 -15
-25 0 -7 -7 -19 -16 -26 -9 -7 -20 -22 -24 -34 -4 -11 -37 -64 -74 -119 -36
-54 -66 -104 -66 -111 0 -6 -9 -20 -20 -30 -11 -10 -20 -22 -20 -28 0 -5 -18
-31 -40 -57 -22 -26 -40 -52 -40 -56 0 -9 -46 -81 -75 -119 -8 -10 -15 -24
-15 -30 0 -7 -9 -20 -19 -29 -11 -10 -22 -29 -26 -43 -10 -40 -57 -92 -89 -99
-17 -4 -37 -11 -46 -16 -12 -8 -28 -4 -59 12 -34 17 -57 21 -105 19 -92 -5
-137 19 -165 87 -13 29 -21 67 -19 86 l3 33 89 -3 c62 -2 102 -9 132 -23 24
-10 47 -19 51 -19 20 1 54 41 59 72 7 35 21 58 35 58 4 0 20 -18 36 -40 33
-47 67 -52 107 -15 31 29 38 98 10 109 -25 10 -79 7 -91 -5 -6 -6 -21 -9 -34
-7 -21 3 -24 9 -24 43 0 35 4 42 34 57 53 27 65 50 46 95 -19 45 -30 53 -72
53 -46 0 -63 -35 -56 -121 4 -51 0 -83 -17 -142 -13 -43 -29 -82 -36 -88 -8
-6 -30 -8 -59 -4 -81 13 -98 70 -40 141 41 50 43 63 11 93 -23 22 -27 22 -68
9 -49 -16 -60 -43 -34 -80 20 -28 21 -82 2 -101 -16 -16 -119 -32 -136 -22 -5
3 -10 20 -10 37 0 28 -23 112 -40 148 -17 35 -20 76 -8 92 15 21 141 49 181
41 15 -3 33 -13 40 -23 16 -22 49 -32 80 -25 35 9 59 72 46 120 -13 47 -40 60
-79 40 -16 -9 -30 -20 -30 -25 0 -6 -16 -18 -36 -27 -35 -17 -36 -17 -55 6
-27 33 -25 78 4 86 12 3 39 11 60 17 55 17 324 -16 392 -48 65 -30 130 -41
150 -24 8 7 15 24 15 39 0 34 8 45 46 64 24 12 33 26 38 52 8 39 0 76 -18 87
-25 17 -82 8 -104 -15 -23 -24 -30 -71 -12 -82 15 -9 12 -51 -4 -64 -18 -15
-65 -7 -159 26 -87 30 -295 51 -355 36 -80 -21 -100 3 -88 100 18 135 19 131
-4 160 -12 15 -27 27 -34 27 -22 0 -96 -71 -96 -91 0 -11 11 -30 23 -42 56
-53 69 -94 83 -265 7 -73 1 -83 -57 -102 -48 -16 -70 -7 -83 36 -14 48 -37
107 -52 137 -8 16 -14 36 -14 46 0 9 -6 25 -14 36 -7 11 -16 34 -19 50 -10 56
-29 120 -43 147 -8 14 -14 34 -14 45 0 10 -7 27 -15 37 -8 11 -15 28 -15 38 0
10 -5 27 -12 37 -9 15 -9 26 -1 43 10 23 19 25 134 36 121 12 311 4 340 -13
17 -11 4 -87 -25 -151 -22 -48 -23 -54 -9 -76 35 -52 67 -60 126 -32 30 15 37
15 63 1 17 -8 58 -20 92 -27 34 -6 79 -22 99 -35 39 -27 84 -32 101 -12 6 6
13 29 17 49 4 21 13 42 21 49 8 6 19 30 25 52 6 23 19 52 30 65 10 14 19 30
19 37 0 7 7 18 15 25 8 7 20 31 26 54 6 22 29 63 51 89 54 65 61 114 22 151
-47 44 -57 47 -92 26 -42 -26 -60 -72 -54 -140 3 -46 0 -64 -22 -104 -14 -27
-26 -58 -26 -68 0 -11 -8 -31 -19 -44 -10 -13 -22 -44 -25 -68 -10 -65 -22
-71 -109 -57 -39 7 -99 15 -131 19 -57 7 -61 9 -93 55 -34 48 -34 50 -28 122
7 69 6 74 -15 85 -41 22 -294 35 -436 23 -113 -10 -131 -9 -146 5 -10 8 -18
20 -18 25 0 5 -9 28 -19 51 -34 74 -51 114 -51 123 0 5 -9 26 -20 47 -10 22
-17 43 -14 47 3 5 24 9 47 9 23 0 60 6 82 13 26 8 100 13 215 12 165 0 178 -1
222 -24 49 -26 72 -61 66 -103 -2 -16 -9 -22 -23 -21 -11 2 -80 7 -153 12 -98
7 -138 14 -151 25 -28 25 -56 19 -90 -19 -38 -43 -44 -107 -12 -125 37 -19 79
-11 117 22 l36 32 131 -14 c73 -8 152 -14 177 -15 44 0 45 0 47 35 1 19 8 77
14 128 14 112 7 124 -80 144 -80 18 -507 17 -540 -1 -14 -8 -50 -17 -80 -22
-205 -31 -398 -89 -513 -155 -73 -42 -80 -43 -135 -38 -54 6 -60 4 -86 -21
-35 -35 -42 -64 -27 -109 18 -55 108 -114 157 -101 13 3 35 23 49 44 21 33 24
44 16 73 -10 39 -6 58 14 58 9 0 36 12 62 26 26 15 61 30 77 35 17 4 55 17 85
29 51 20 97 33 162 47 23 4 29 1 41 -30 8 -19 20 -38 26 -41 6 -4 11 -16 11
-26 0 -11 7 -36 16 -57 30 -67 42 -97 59 -143 9 -25 23 -58 31 -73 8 -16 14
-39 14 -52 0 -13 4 -26 9 -30 5 -3 12 -19 16 -35 4 -17 13 -44 22 -60 21 -43
9 -84 -31 -108 -63 -37 -74 -37 -111 4 -19 21 -35 42 -35 46 0 5 -29 68 -65
140 l-65 132 21 43 c19 40 20 46 6 81 -12 31 -21 38 -55 46 -35 7 -44 5 -75
-18 -61 -47 -55 -138 11 -165 16 -7 36 -26 45 -44 9 -18 21 -39 27 -47 5 -8
23 -46 40 -85 17 -38 35 -77 40 -85 5 -8 21 -40 36 -70 14 -30 37 -63 50 -73
23 -17 25 -17 81 13 32 17 67 37 78 45 18 13 24 13 42 0 11 -8 23 -27 26 -42
2 -16 15 -53 27 -83 12 -30 26 -73 31 -95 6 -22 14 -44 20 -49 5 -6 9 -19 9
-31 0 -12 7 -30 15 -41 8 -10 15 -28 15 -40 0 -11 7 -29 15 -40 8 -10 14 -28
15 -39 0 -24 27 -110 46 -147 8 -14 14 -37 14 -51 0 -13 7 -30 15 -37 8 -7 15
-25 15 -40 0 -15 7 -33 15 -40 8 -7 15 -21 15 -32 0 -10 7 -30 16 -43 12 -19
14 -37 8 -82 -6 -48 -12 -62 -37 -83 -17 -14 -56 -51 -88 -84 -87 -89 -165
-117 -216 -76 -14 11 -31 20 -38 20 -25 0 -37 27 -24 51 16 30 76 90 119 119
72 48 84 81 50 138 -34 56 -29 66 35 62 42 -2 68 29 69 82 1 37 -3 44 -27 56
-40 19 -75 8 -83 -26 -7 -30 -41 -72 -59 -72 -6 0 -22 11 -34 24 -19 21 -22
30 -16 71 7 40 4 49 -16 71 -12 13 -30 24 -40 24 -30 0 -79 -34 -86 -58 -7
-31 26 -76 59 -80 18 -2 43 -26 88 -88 35 -46 67 -84 72 -84 4 0 8 -14 8 -31
0 -22 -5 -32 -20 -36 -11 -3 -20 -9 -20 -13 0 -9 -46 -30 -66 -30 -25 0 -74
59 -74 89 0 17 -10 37 -26 52 -23 22 -27 23 -52 8 -17 -9 -30 -28 -36 -51 -12
-46 1 -63 51 -71 38 -7 83 -41 83 -64 0 -8 -14 -35 -31 -60 -29 -41 -34 -44
-62 -39 -17 4 -58 19 -92 35 -33 16 -77 32 -98 36 -28 4 -40 13 -47 31 -11 27
0 63 24 83 9 7 16 19 16 26 0 25 51 75 76 75 36 0 84 39 84 67 0 47 -57 112
-97 113 -32 0 -57 -42 -49 -84 10 -52 -7 -86 -44 -86 -30 0 -70 29 -70 51 0
23 75 125 135 184 85 85 119 113 205 170 81 54 99 88 65 125 -9 10 -19 38 -22
62 -9 70 -27 95 -70 100 -47 6 -58 2 -78 -28 -15 -23 -14 -28 4 -69 11 -25 26
-45 34 -45 22 0 67 -39 67 -59 0 -10 -20 -26 -52 -43 -49 -23 -228 -170 -228
-186 0 -4 -15 -24 -34 -44 -19 -20 -49 -58 -67 -83 -29 -41 -37 -46 -62 -41
-30 6 -65 39 -98 92 -39 64 -137 62 -153 -2 -5 -19 0 -37 19 -65 27 -42 40
-46 90 -28 27 10 37 8 85 -20 30 -18 63 -36 73 -41 31 -18 52 -30 82 -50 17
-11 34 -21 40 -23 6 -2 4 -26 -5 -63 -14 -57 -16 -59 -49 -62 -21 -2 -49 4
-70 16 -20 11 -61 25 -91 31 -30 5 -73 19 -95 30 -21 12 -49 21 -61 21 -12 0
-33 9 -46 20 -14 10 -46 24 -71 30 -26 5 -66 19 -89 29 -24 11 -60 23 -80 26
-57 9 -62 49 -14 119 52 78 165 218 219 274 12 12 31 22 43 22 25 0 74 -53 74
-80 0 -9 7 -23 15 -30 8 -7 15 -18 15 -25 0 -19 56 -38 87 -30 40 10 63 34 63
66 0 18 9 35 28 49 90 70 160 118 182 123 14 4 36 16 50 26 l25 20 -34 63
c-53 98 -78 149 -101 203 -11 28 -25 57 -30 65 -26 42 -50 106 -50 135 0 76
-109 116 -165 60 -47 -46 -27 -98 63 -159 26 -18 51 -46 64 -75 13 -25 38 -68
56 -96 17 -27 32 -53 32 -58 0 -5 11 -23 25 -41 14 -18 25 -38 25 -44 0 -7
-19 -24 -41 -38 -23 -14 -69 -53 -103 -86 l-61 -60 -65 5 c-61 5 -66 7 -100
47 -41 48 -73 55 -112 24 -22 -18 -134 -145 -185 -210 -12 -16 -36 -46 -53
-68 -16 -21 -42 -63 -56 -92 -31 -63 -40 -65 -135 -30 -35 12 -92 29 -126 36
-34 7 -69 20 -78 30 -14 15 -14 21 -1 52 8 19 22 40 30 48 9 7 16 17 16 23 0
5 17 34 38 65 20 30 42 61 47 71 35 54 163 184 205 206 28 15 33 14 75 -4 25
-11 45 -25 45 -30 0 -6 -24 -35 -53 -64 -28 -29 -70 -76 -92 -104 -24 -31 -51
-54 -66 -58 -69 -16 -79 -101 -19 -156 38 -35 46 -35 84 -5 23 20 28 31 28 67
-1 23 5 56 12 73 12 29 91 111 179 186 29 25 37 39 37 66 0 28 -5 37 -27 46
-32 14 -71 50 -101 94 -30 43 -63 50 -116 23 -48 -24 -88 -66 -208 -219 -108
-138 -121 -156 -145 -211 -12 -26 -26 -50 -32 -53 -6 -4 -11 -15 -11 -25 0
-10 -9 -28 -20 -41 -11 -13 -25 -40 -30 -60 -6 -21 -16 -43 -24 -49 -7 -6 -16
-25 -20 -42 -3 -17 -14 -41 -25 -55 -10 -13 -22 -41 -26 -61 -4 -20 -15 -54
-25 -74 -11 -20 -24 -76 -30 -125 -10 -86 -12 -90 -49 -124 -27 -24 -42 -47
-46 -72 -7 -34 -4 -41 28 -73 31 -31 40 -35 90 -35 36 0 59 5 67 15 7 8 17 15
22 15 14 0 47 42 48 61 0 38 -30 87 -60 97 -16 6 -30 15 -30 19 1 48 24 153
39 177 10 17 22 51 26 76 4 25 18 65 31 90 13 25 24 52 24 60 0 27 17 45 32
33 7 -6 27 -13 43 -16 94 -16 153 -31 185 -47 19 -10 55 -21 80 -25 25 -4 62
-15 83 -26 21 -11 60 -24 85 -30 26 -6 67 -20 92 -33 l45 -22 0 -60 c0 -93 -2
-94 -148 -73 -67 10 -150 26 -184 35 -56 14 -67 22 -99 65 -20 27 -41 49 -47
49 -7 0 -21 3 -33 6 -32 9 -81 -38 -89 -86 -6 -33 -3 -45 17 -69 30 -37 80
-48 115 -26 32 21 137 13 201 -16 23 -11 95 -27 158 -36 139 -19 138 -19 160
87 8 41 19 79 24 84 12 12 127 -12 165 -34 17 -10 46 -21 65 -25 19 -4 49 -15
67 -25 18 -11 57 -23 87 -29 31 -6 73 -19 93 -30 65 -33 136 -60 188 -71 27
-6 57 -18 66 -26 9 -8 44 -19 77 -24 69 -12 119 -40 152 -87 18 -27 21 -40 15
-82 -5 -35 -2 -62 11 -98 16 -46 16 -56 3 -118 -13 -62 -17 -69 -45 -79 -16
-6 -44 -21 -61 -33 -17 -13 -35 -23 -41 -23 -5 0 -17 21 -27 46 -14 37 -17 66
-13 141 5 82 3 97 -14 118 -14 18 -29 25 -53 25 -70 0 -82 22 -40 72 32 38 31
56 -1 96 -31 37 -55 40 -95 11 -34 -24 -36 -46 -9 -96 17 -32 18 -40 6 -58
-22 -34 -54 -31 -91 9 -39 43 -69 46 -108 11 -45 -42 -33 -107 23 -118 20 -4
43 0 68 12 31 14 55 17 143 13 102 -4 107 -5 118 -28 19 -42 13 -78 -17 -107
-33 -32 -72 -35 -97 -7 -24 27 -82 24 -100 -5 -17 -28 -2 -78 29 -94 26 -14
63 -2 79 25 5 9 26 14 53 14 51 0 61 -15 66 -93 l3 -42 -66 -35 c-37 -19 -82
-45 -100 -56 -59 -38 -74 -38 -103 -4 -14 18 -26 42 -26 55 0 13 -4 26 -9 30
-20 11 -23 65 -6 108 23 60 10 91 -43 104 -55 14 -90 6 -106 -26 -18 -35 -6
-63 38 -89 43 -26 56 -64 31 -92 -41 -45 -98 -4 -117 84 -25 116 -36 289 -28
431 l5 80 -60 7 c-43 6 -64 13 -74 28 -18 27 -99 28 -122 2 -29 -33 -30 -42
-14 -76 22 -47 74 -66 111 -41 14 9 37 15 52 13 l27 -3 2 -110 c3 -205 13
-281 50 -397 8 -26 12 -56 8 -67 -9 -28 -74 -46 -155 -42 -62 3 -66 2 -88 -28
-19 -26 -21 -35 -11 -54 15 -29 60 -66 80 -67 23 0 69 38 80 66 5 15 27 32 56
45 27 12 60 28 75 35 14 8 34 14 45 14 10 0 27 7 37 15 11 8 36 15 56 15 34 0
38 -3 58 -51 12 -27 20 -54 18 -58 -3 -5 -29 -24 -58 -43 -213 -142 -256 -168
-270 -168 -8 0 -21 -7 -28 -15 -7 -8 -16 -15 -20 -15 -5 0 -52 -29 -106 -65
-90 -61 -99 -64 -119 -51 -22 14 -65 112 -65 147 0 11 -4 27 -9 37 -10 18 -35
135 -47 210 -5 34 -2 48 12 64 18 19 26 20 121 13 l102 -7 15 31 c21 39 20 49
-5 96 -18 36 -20 51 -15 142 3 56 11 124 16 149 14 61 5 70 -81 83 -37 6 -82
17 -100 25 -19 8 -77 22 -129 31 -52 10 -126 31 -165 47 -87 36 -120 33 -152
-17 -28 -42 -28 -51 -3 -92 19 -31 23 -33 77 -33 36 0 62 5 73 15 14 13 30 13
101 5 113 -14 252 -41 263 -51 5 -5 11 -50 13 -101 2 -51 4 -112 6 -136 1 -31
-4 -48 -20 -65 -12 -12 -31 -32 -43 -45 -16 -17 -31 -22 -73 -22 -44 0 -58 -4
-77 -25 -19 -20 -22 -30 -15 -62 10 -56 23 -130 33 -199 5 -33 14 -70 21 -82
6 -11 11 -30 11 -40 0 -11 13 -53 30 -93 16 -41 27 -81 25 -89 -3 -8 -37 -37
-75 -65 -39 -27 -94 -67 -122 -87 -28 -21 -57 -38 -64 -38 -17 0 -44 39 -44
63 0 10 -6 31 -14 45 -21 42 -38 94 -43 132 -3 19 -10 41 -15 47 -6 7 -14 41
-19 75 -28 190 -23 223 34 251 52 26 67 18 67 -38 0 -43 7 -82 36 -190 11 -42
11 -53 -1 -72 -22 -33 -18 -49 18 -77 37 -28 58 -31 105 -15 51 17 55 103 6
115 -48 12 -64 72 -80 289 -3 44 -11 86 -16 93 -15 17 -74 15 -103 -4 -19 -12
-38 -14 -87 -9 -35 3 -69 2 -76 -3 -7 -5 -18 -27 -22 -48 -13 -53 -12 -161 0
-169 6 -3 10 -22 10 -41 0 -19 7 -51 15 -71 8 -19 15 -50 15 -69 0 -18 4 -35
9 -38 5 -3 12 -27 16 -53 4 -26 27 -88 51 -139 24 -51 44 -97 44 -103 0 -8 15
-42 41 -91 5 -8 25 -49 45 -90 51 -101 112 -195 179 -271 43 -51 55 -71 55
-98 0 -83 81 -140 144 -101 53 32 80 78 81 135 0 48 -1 50 -42 73 -36 20 -48
22 -78 13 -45 -12 -65 -5 -97 34 -29 35 -158 225 -158 233 0 3 -6 13 -14 21
-8 9 -16 34 -20 56 l-6 40 78 54 c86 61 201 138 277 186 28 18 75 49 106 69
31 20 66 36 78 36 29 0 101 -67 101 -94 0 -26 -51 -76 -180 -178 -123 -96
-113 -91 -186 -89 -73 2 -84 -8 -84 -82 0 -39 4 -48 34 -71 19 -14 43 -26 54
-26 34 0 86 43 97 80 11 37 56 83 163 164 35 27 75 59 90 73 15 14 36 33 48
42 29 23 44 54 37 79 -3 12 -29 47 -59 78 -58 62 -60 85 -8 104 21 8 79 45 94
60 8 8 42 28 94 56 28 15 73 43 100 64 28 21 87 57 131 80 44 23 86 47 94 53
7 6 21 16 31 22 10 5 57 36 104 68 47 31 90 57 95 57 5 0 15 7 22 16 11 13 26
15 72 11 49 -4 63 -10 90 -39 18 -18 58 -46 90 -62 31 -16 69 -45 83 -63 24
-32 25 -39 19 -106 -4 -40 -12 -78 -17 -84 -13 -16 -56 -7 -83 17 -11 10 -29
20 -41 24 -11 3 -38 24 -60 46 -58 57 -91 61 -140 16 -48 -44 -68 -43 -72 4
-9 96 -124 110 -147 18 -9 -34 31 -78 70 -78 33 0 65 -17 65 -34 0 -25 -45
-56 -83 -56 -48 0 -77 -28 -77 -74 0 -45 22 -66 69 -66 47 0 81 33 81 78 0 24
12 45 48 85 26 30 58 68 72 86 14 17 28 31 31 31 14 0 81 -66 90 -88 13 -35
-9 -71 -62 -98 -27 -13 -52 -32 -58 -41 -14 -26 12 -70 47 -78 29 -6 81 8 83
22 0 5 3 30 5 57 3 27 9 57 15 67 12 23 61 26 78 5 7 -8 22 -17 35 -20 13 -3
26 -11 28 -18 4 -12 -17 -197 -28 -255 -4 -20 -11 -23 -49 -23 -24 0 -64 9
-87 19 -24 11 -51 22 -60 25 -9 3 -26 23 -37 44 -31 60 -90 70 -136 22 -31
-32 -38 -78 -15 -105 14 -17 45 -17 127 0 29 6 34 4 43 -19 7 -21 6 -34 -6
-58 -15 -29 -18 -30 -61 -23 -40 6 -158 58 -173 76 -3 3 -34 26 -70 50 -36 24
-100 77 -142 117 -85 81 -100 85 -138 31 -14 -19 -30 -29 -47 -29 -28 0 -93
-58 -93 -83 0 -29 19 -66 39 -77 32 -17 85 10 100 51 37 97 48 104 93 57 68
-70 243 -199 289 -213 13 -4 31 -13 39 -20 8 -8 29 -17 45 -20 17 -4 40 -13
51 -21 20 -12 21 -17 12 -64 -7 -42 -18 -60 -54 -94 -66 -64 -61 -117 14 -132
55 -11 80 2 92 47 9 33 8 45 -4 64 -18 27 -21 61 -7 70 5 3 17 38 26 78 17 77
60 177 75 177 5 0 32 -5 60 -11 40 -9 51 -15 56 -35 3 -13 3 -32 -1 -41 -4
-10 -11 -76 -15 -148 -5 -79 -16 -154 -28 -190 -11 -33 -23 -103 -27 -155 -8
-111 -26 -165 -52 -157 -71 23 -135 48 -155 60 -12 8 -36 18 -52 21 -16 4 -41
16 -54 27 -14 10 -29 19 -35 19 -6 0 -32 14 -60 32 -47 30 -49 33 -43 67 4 26
19 47 58 83 29 26 56 47 61 48 15 0 6 66 -13 88 -14 16 -34 25 -72 29 -44 5
-61 13 -98 47 -65 60 -122 118 -147 148 -28 34 -54 28 -113 -28 -25 -23 -95
-80 -155 -127 -61 -46 -116 -92 -124 -100 -7 -9 -28 -19 -46 -23 -51 -9 -79
-45 -72 -91 8 -49 37 -87 69 -91 14 -2 42 7 62 18 29 18 37 30 42 60 5 30 22
54 79 112 117 119 185 178 203 178 9 0 35 -18 56 -40 22 -22 43 -40 47 -40 4
0 20 -11 36 -23 15 -13 40 -27 56 -31 21 -5 27 -12 27 -33 0 -14 5 -43 11 -64
11 -35 9 -41 -20 -85 -56 -85 -38 -120 94 -184 39 -18 77 -39 85 -46 8 -6 26
-15 40 -19 14 -4 32 -13 40 -20 8 -7 35 -18 60 -25 25 -6 54 -17 65 -25 11 -7
35 -16 52 -19 18 -4 34 -15 36 -24 4 -16 4 -69 -1 -251 l-2 -74 -51 7 c-29 4
-68 15 -88 25 -20 10 -51 22 -70 26 -29 6 -83 32 -191 91 -14 8 -29 14 -33 14
-19 0 -117 87 -123 108 -4 13 -1 41 5 63 l12 39 37 -15 c20 -9 44 -23 54 -31
21 -19 128 -74 145 -74 6 0 22 -15 34 -32 29 -42 38 -48 72 -48 40 0 64 15 84
53 19 36 18 54 -4 79 -13 15 -30 17 -93 15 -84 -2 -66 -10 -213 89 -133 89
-141 89 -184 3 -18 -36 -46 -81 -63 -99 -38 -41 -33 -69 23 -127 37 -39 78
-62 242 -139 33 -15 67 -33 75 -39 8 -7 29 -15 45 -19 17 -4 57 -18 90 -31 33
-12 85 -26 115 -30 30 -4 77 -16 103 -26 77 -30 220 -50 388 -54 145 -3 160
-5 195 -28 33 -20 45 -22 74 -14 19 5 42 15 51 23 21 19 32 99 18 126 -23 42
-82 98 -104 98 -31 0 -70 -33 -101 -86 -25 -42 -28 -44 -74 -44 -52 0 -318 26
-363 36 l-28 6 6 186 c4 103 13 234 21 291 8 58 14 119 14 136 0 18 9 41 21
54 18 19 29 22 82 19 l62 -3 9 -70 c6 -38 9 -128 8 -200 -2 -113 -4 -132 -20
-145 -29 -23 -62 -76 -62 -99 0 -24 57 -70 91 -72 35 -2 76 17 90 42 15 28 6
95 -17 120 -15 17 -17 45 -19 234 -1 267 -6 275 -130 244 -25 -6 -57 -8 -71
-5 -30 8 -29 -9 -3 196 24 194 41 343 64 558 14 129 28 238 31 244 15 24 90
68 116 68 16 0 57 14 90 30 55 27 68 30 119 24 52 -6 61 -11 109 -59 l53 -54
-29 -25 c-16 -14 -38 -26 -49 -26 -11 0 -29 -7 -39 -15 -11 -8 -35 -15 -54
-15 -19 0 -56 -8 -84 -17 -55 -20 -68 -45 -48 -93 23 -55 -5 -76 -60 -44 -52
31 -112 -1 -112 -60 0 -66 60 -87 122 -41 37 28 60 31 78 13 19 -19 14 -64 -8
-79 -12 -8 -23 -30 -26 -51 -6 -31 -3 -38 21 -54 32 -21 86 -24 109 -5 9 8 16
29 16 50 0 30 -6 42 -30 59 -23 18 -30 30 -30 57 0 19 -7 55 -16 80 -8 25 -14
62 -12 82 3 33 7 37 48 49 60 18 66 18 91 -7 18 -18 20 -28 14 -92 -6 -65 -5
-74 14 -91 19 -17 24 -18 47 -5 61 32 69 96 15 123 -47 25 -49 100 -3 117 15
5 35 14 44 19 32 18 46 11 96 -52 28 -35 67 -76 86 -92 52 -43 48 -67 -20
-117 -88 -64 -102 -70 -138 -55 -65 27 -112 -18 -100 -95 7 -43 34 -69 70 -69
26 0 38 13 54 63 21 67 87 72 111 9 9 -24 7 -29 -23 -54 -18 -15 -49 -35 -68
-44 -19 -9 -43 -21 -53 -26 -68 -33 -224 -72 -350 -87 -34 -4 -62 -13 -67 -21
-6 -8 -7 -36 -4 -62 5 -38 2 -54 -15 -82 -21 -34 -22 -36 -4 -63 9 -15 27 -39
40 -51 l22 -24 31 22 c54 38 57 67 15 140 -34 59 -5 97 66 86 21 -3 50 -1 66
5 15 7 46 15 68 19 55 11 94 26 214 82 70 34 110 48 126 44 34 -9 68 -69 60
-106 -5 -22 -1 -39 14 -64 24 -38 39 -46 81 -46 36 0 52 26 52 84 1 56 -4 63
-52 71 -37 6 -51 18 -98 80 -14 19 -79 120 -97 152 l-19 32 45 40 c24 22 48
40 53 41 23 1 496 -480 496 -504 0 -22 -65 -73 -133 -106 -34 -17 -69 -34 -77
-39 -8 -4 -33 -16 -55 -25 -22 -10 -53 -24 -68 -32 -34 -17 -81 -18 -108 -4
-16 9 -19 22 -19 92 0 77 -2 82 -30 109 -16 16 -40 29 -51 29 -12 0 -44 -20
-70 -45 -43 -40 -53 -45 -96 -45 -26 0 -66 -7 -88 -14 -23 -8 -61 -12 -90 -10
-27 3 -56 1 -64 -4 -11 -8 -14 -58 -14 -253 0 -177 -4 -253 -13 -275 -11 -26
-11 -36 4 -65 14 -27 25 -36 59 -43 54 -11 89 -2 97 26 13 51 6 94 -23 134
-26 35 -29 49 -35 144 -7 114 -7 242 0 250 3 2 20 3 39 2 20 -2 68 9 108 24
103 38 121 39 143 16 11 -12 31 -25 45 -31 21 -7 31 -23 44 -66 23 -71 47 -89
96 -73 50 16 137 54 259 113 89 43 104 51 151 88 20 15 47 27 59 27 23 0 87
-50 165 -127 22 -22 47 -44 56 -49 9 -5 19 -19 23 -31 5 -17 1 -25 -16 -34
-13 -6 -40 -25 -60 -41 -48 -37 -152 -94 -253 -138 -27 -12 -58 -25 -67 -31
-10 -5 -27 -9 -39 -9 -12 0 -39 -5 -60 -12 -34 -10 -42 -9 -60 8 -21 19 -54
73 -47 78 2 2 28 11 58 21 30 10 88 34 128 53 51 24 81 33 101 29 63 -13 91
17 91 98 0 53 -19 75 -65 75 -29 0 -37 -7 -69 -54 -23 -35 -48 -59 -73 -70
-21 -9 -46 -21 -55 -26 -10 -6 -28 -10 -41 -10 -13 0 -32 -7 -43 -15 -10 -8
-29 -15 -42 -15 -32 0 -102 -38 -102 -55 0 -7 16 -44 35 -82 21 -41 35 -83 35
-104 0 -20 6 -42 14 -48 30 -25 140 -15 206 20 8 4 49 24 90 44 198 96 228
112 270 145 25 19 50 39 56 45 6 5 22 17 34 25 30 20 122 91 138 107 7 7 39
33 70 57 71 56 149 137 187 196 46 72 76 100 105 100 41 0 80 47 80 96 0 32
-6 46 -30 69 -25 24 -39 29 -105 33 l-75 5 -16 -39 c-17 -40 -13 -106 6 -112
34 -12 -16 -103 -100 -181 -14 -13 -61 -59 -105 -102 l-81 -80 -32 16 c-32 17
-100 77 -317 285 -144 138 -160 158 -141 180 8 8 21 29 30 47 29 57 49 60 113
16 30 -21 63 -42 72 -48 9 -5 31 -24 48 -42 17 -17 45 -39 62 -47 17 -9 31
-20 31 -25 0 -4 11 -13 24 -19 21 -9 26 -20 32 -72 7 -66 27 -90 74 -90 72 1
119 113 70 165 -16 18 -34 25 -59 25 -25 0 -52 11 -86 35 -27 20 -61 43 -75
52 -14 10 -43 34 -65 55 -22 21 -43 38 -46 38 -4 0 -29 17 -56 38 -50 40 -91
56 -108 44 -6 -4 -23 -27 -40 -52 -38 -59 -66 -90 -80 -90 -10 0 -86 76 -481
475 -66 67 -133 132 -149 145 -17 14 -41 38 -53 55 -21 26 -23 37 -17 85 4 30
16 69 26 87 11 17 24 57 29 89 8 48 16 62 50 94 37 34 47 38 108 42 37 3 71 2
76 -3 12 -10 -1 -108 -19 -139 -8 -14 -20 -39 -28 -56 -8 -17 -20 -35 -26 -38
-15 -10 -13 -57 3 -79 8 -10 27 -22 43 -26 23 -6 28 -13 28 -37 0 -24 -6 -31
-32 -39 -40 -13 -39 -12 -47 -56 -5 -29 -2 -40 18 -62 31 -34 66 -34 96 -2 22
23 23 29 12 59 -15 41 -7 64 25 72 33 9 73 -29 73 -68 0 -32 28 -48 81 -48 63
0 92 75 45 119 -20 19 -31 22 -61 17 -27 -5 -48 -2 -83 15 -26 13 -50 27 -53
31 -3 5 -26 15 -50 22 -44 13 -44 14 -43 60 1 101 105 134 151 48 17 -34 22
-37 63 -37 l45 0 3 47 c3 40 0 49 -20 62 -19 12 -32 13 -60 6 -40 -12 -85 0
-94 24 -3 8 -2 39 3 68 l8 53 85 11 c114 16 183 17 203 2 16 -12 16 -23 8
-108 -8 -71 -14 -97 -27 -105 -49 -29 -67 -52 -61 -76 17 -61 88 -100 138 -75
38 19 41 57 7 112 -34 53 -30 72 16 89 42 15 60 -3 64 -63 4 -65 -23 -197 -49
-238 -10 -17 -19 -38 -19 -46 0 -20 -52 -117 -96 -179 -19 -27 -34 -55 -34
-63 0 -7 16 -21 35 -30 21 -10 49 -38 71 -71 34 -53 38 -55 80 -55 57 0 81 30
67 87 -10 43 -39 63 -94 63 -19 0 -43 6 -53 13 -17 12 -17 15 4 51 11 21 28
45 36 53 7 8 14 23 14 32 0 10 7 24 15 31 8 7 20 31 26 54 6 22 17 48 25 57 8
8 23 66 33 128 25 140 37 161 93 161 31 0 49 -6 68 -25 19 -18 42 -27 76 -31
60 -6 73 2 81 50 5 31 2 41 -22 67 -16 16 -37 29 -47 29 -19 0 -61 -24 -87
-48 -8 -7 -23 -11 -35 -9 -12 3 -66 9 -121 12 -55 4 -113 13 -130 20 -28 11
-30 15 -28 65 1 29 4 58 7 65 3 9 31 15 78 18 40 3 111 11 158 18 47 7 119 12
160 11 41 -1 91 4 110 10 19 6 70 12 113 13 62 1 80 -2 86 -14 11 -20 -15
-231 -35 -291 -8 -25 -23 -72 -32 -105 -14 -50 -21 -61 -41 -63 -28 -4 -98 32
-123 63 -25 30 -103 28 -129 -4 -21 -26 -25 -71 -8 -88 8 -8 3 -28 -20 -75
-57 -112 -63 -122 -96 -158 -18 -19 -35 -42 -37 -50 -7 -20 22 -69 45 -76 16
-5 151 -108 197 -151 8 -7 38 -31 65 -52 28 -22 66 -60 85 -85 44 -57 82 -62
135 -15 44 39 46 75 7 117 -23 24 -39 31 -90 37 -39 4 -70 14 -80 24 -9 10
-24 21 -32 24 -8 4 -49 31 -90 62 -41 30 -87 60 -102 66 -35 14 -35 35 -3 79
14 19 25 41 25 50 0 8 7 26 16 39 9 13 22 44 28 70 11 40 16 46 42 49 16 2 37
11 46 19 21 19 81 12 125 -14 28 -16 31 -15 56 3 16 11 31 35 37 59 5 22 21
76 35 120 26 83 55 256 55 326 0 37 3 41 38 56 40 17 125 31 235 40 l67 5 0
-51 c0 -85 -40 -343 -59 -386 -10 -22 -24 -56 -30 -75 -17 -50 -49 -80 -87
-80 -71 0 -79 20 -40 94 14 26 26 72 31 111 6 57 12 73 42 106 41 45 40 69 -4
111 -40 37 -86 45 -112 19 -25 -25 -28 -83 -5 -102 22 -18 14 -126 -13 -172
-11 -18 -26 -56 -32 -85 -7 -28 -19 -56 -27 -63 -8 -6 -14 -25 -14 -40 0 -32
27 -49 80 -49 15 0 54 -13 85 -30 31 -16 66 -30 77 -30 28 0 76 59 104 127 13
32 33 111 44 176 11 65 25 128 32 140 10 19 20 234 21 467 0 86 -15 240 -25
246 -4 3 -8 16 -8 30 0 14 -7 39 -16 56 -11 22 -14 44 -9 77 15 108 12 131
-23 162 -38 34 -53 35 -109 6 -46 -24 -93 -85 -93 -120 0 -37 40 -77 85 -84
47 -7 74 -35 75 -79 0 -17 7 -51 15 -74 8 -23 15 -66 15 -95 0 -29 5 -66 11
-84 6 -18 8 -51 4 -76 -7 -52 -38 -75 -99 -75 -19 0 -47 -5 -63 -11 -44 -18
-313 -51 -427 -53 -85 -1 -79 -5 -110 66 -19 46 -8 88 24 88 12 0 31 5 43 12
12 6 40 15 62 19 105 21 151 32 167 40 33 17 96 10 116 -11 11 -12 36 -24 56
-27 75 -12 123 76 79 145 -24 37 -32 42 -79 42 -31 0 -46 -6 -65 -26 -28 -30
-99 -64 -135 -64 -14 0 -35 -5 -46 -11 -11 -6 -44 -15 -72 -19 -57 -10 -144
-32 -193 -50 -27 -10 -33 -17 -33 -41 0 -16 4 -37 9 -47 20 -41 42 -125 34
-132 -8 -9 -49 -14 -203 -30 -52 -5 -131 -15 -175 -20 -44 -6 -127 -15 -185
-20 -175 -15 -274 -27 -297 -35 -13 -4 -53 -4 -89 0 -53 5 -72 13 -100 37 -19
16 -34 39 -34 49 0 20 -26 62 -66 107 -12 13 -24 44 -28 68 -3 24 -8 54 -11
66 -4 16 3 32 22 53 16 17 37 43 47 60 l19 29 43 -48 c42 -48 52 -65 96 -164
26 -60 48 -71 93 -48 38 20 50 20 69 0 14 -14 14 -18 1 -37 -22 -31 -19 -50
13 -80 34 -32 54 -34 93 -6 35 25 39 70 9 97 -11 9 -29 25 -40 35 -31 27 -25
52 15 65 28 8 42 7 63 -4 38 -20 53 -18 85 11 32 31 34 63 6 99 -26 34 -68 34
-100 2 -13 -14 -35 -36 -49 -50 -13 -15 -31 -26 -38 -26 -7 0 -40 -13 -74 -30
-73 -36 -78 -37 -108 -5 -26 27 -34 105 -13 126 6 6 34 12 62 14 61 3 101 26
101 58 0 24 -31 59 -63 70 -19 7 -57 -24 -57 -46 0 -18 -40 -53 -69 -60 -19
-5 -32 2 -62 36 -21 23 -38 48 -39 56 0 8 19 38 43 67 69 86 77 97 77 110 0
21 30 44 56 44 16 0 45 -20 86 -59 58 -55 61 -61 64 -111 3 -62 17 -80 67 -82
50 -2 100 48 95 95 -3 34 -15 40 -91 52 -66 10 -70 71 -6 106 34 18 141 -96
204 -215 18 -34 44 -83 59 -110 14 -27 26 -56 26 -65 0 -9 6 -28 14 -42 7 -14
16 -37 20 -52 5 -21 12 -27 34 -27 15 0 36 7 47 16 15 11 34 13 78 8 52 -6 60
-4 82 16 19 18 25 34 25 66 0 38 -3 43 -31 53 -51 17 -63 14 -113 -34 -27 -25
-52 -45 -56 -45 -12 0 -50 82 -50 108 0 11 -4 23 -8 26 -5 3 -28 42 -51 88
-23 46 -78 128 -121 182 -44 55 -80 104 -80 109 0 12 50 61 77 75 12 7 30 12
41 12 29 0 82 53 82 82 0 60 -103 96 -142 49 -10 -14 -18 -39 -18 -61 0 -33
-10 -49 -85 -133 -47 -52 -97 -103 -111 -111 -23 -16 -26 -15 -64 15 -32 26
-40 39 -40 64 0 18 7 38 16 46 15 12 35 46 68 115 8 17 22 36 30 44 9 7 16 18
16 25 0 8 11 27 25 43 14 17 25 35 25 41 0 5 9 15 20 21 11 6 20 17 20 24 0 8
7 19 16 26 8 8 21 29 29 47 8 19 21 41 30 49 8 9 15 21 15 27 0 7 14 27 31 45
l30 34 37 -26 c20 -14 53 -45 72 -68 19 -23 51 -60 71 -83 19 -22 46 -57 58
-77 12 -21 26 -38 30 -38 9 0 41 -65 41 -83 0 -20 -56 -57 -85 -57 -31 0 -93
-30 -118 -58 -25 -27 -14 -65 32 -102 62 -52 66 -58 90 -117 12 -32 29 -73 37
-91 8 -18 14 -48 14 -67 0 -35 21 -65 45 -65 8 0 29 6 47 14 65 27 104 38 158
47 30 5 78 13 105 17 28 5 61 14 74 21 16 9 43 11 85 7 58 -7 63 -5 94 23 25
24 32 38 32 68 0 47 -38 93 -77 93 -32 0 -86 -32 -107 -64 -8 -13 -29 -27 -46
-31 -17 -4 -43 -13 -58 -21 -15 -8 -39 -14 -54 -14 -15 0 -30 -4 -33 -10 -3
-5 -18 -10 -33 -10 -15 0 -36 -6 -47 -14 -11 -7 -39 -17 -61 -20 -41 -7 -42
-7 -48 27 -6 34 -57 138 -82 167 -16 20 -19 47 -9 95 11 57 23 75 58 90 67 28
96 77 62 105 -8 7 -15 16 -15 21 0 28 -201 282 -265 335 -25 21 -47 46 -50 55
-6 18 19 78 65 154 16 28 37 66 46 85 18 38 30 50 55 50 21 0 175 -157 245
-250 93 -124 106 -148 108 -202 1 -42 -3 -51 -29 -73 -16 -13 -32 -24 -35 -25
-3 0 -18 24 -33 53 -14 29 -39 67 -54 85 -53 60 -88 117 -89 145 -3 56 -46 72
-117 42 -75 -31 -58 -125 24 -125 25 0 95 -62 112 -100 4 -8 25 -44 47 -79 22
-34 40 -66 40 -69 0 -11 51 -72 61 -72 5 0 31 20 57 43 26 24 73 56 105 70 53
24 57 28 57 60 0 31 -13 69 -43 124 -12 21 -210 274 -232 296 -6 7 -36 32 -65
57 -30 25 -74 63 -99 86 -77 68 -234 188 -289 221 -59 35 -165 84 -194 90 -18
3 -36 19 -50 42 -48 81 -99 101 -150 58z m-515 -1984 c4 -2 16 -22 27 -42 19
-39 53 -57 83 -45 18 7 84 -49 93 -79 3 -12 13 -30 21 -39 14 -15 13 -21 -6
-51 -27 -45 -27 -68 4 -113 30 -45 31 -55 3 -121 -19 -47 -26 -54 -71 -70 -49
-18 -60 -30 -71 -84 -12 -56 -145 -82 -204 -40 -29 20 -36 22 -63 11 -16 -7
-51 -10 -77 -8 -67 7 -110 49 -121 120 -6 37 -15 57 -31 68 -58 40 -70 60 -70
123 0 57 2 63 36 93 34 32 35 35 29 86 l-7 53 48 49 48 48 57 -6 c55 -5 58 -4
93 30 l37 36 67 -7 c37 -4 70 -9 75 -12z"/>
</g>
</svg>
