<?xml version="1.0" standalone="no"?>
<!DOCTYPE svg PUBLIC "-//W3C//DTD SVG 20010904//EN"
 "http://www.w3.org/TR/2001/REC-SVG-20010904/DTD/svg10.dtd">
<svg version="1.0" xmlns="http://www.w3.org/2000/svg"
 width="600.000000pt" height="589.000000pt" viewBox="0 0 600.000000 589.000000"
 preserveAspectRatio="xMidYMid meet">
<g transform="translate(0.000000,589.000000) scale(0.100000,-0.100000)"
fill="#000000" stroke="none">
<path d="M3583 5298 c-21 -24 -93 -141 -93 -152 0 -4 -16 -38 -35 -77 -19 -39
-35 -78 -35 -87 0 -8 -8 -33 -19 -56 -10 -23 -24 -61 -30 -86 -7 -25 -19 -67
-27 -95 -8 -27 -17 -72 -20 -100 l-6 -50 66 -38 c36 -21 66 -41 66 -45 0 -4
-13 -15 -28 -24 -55 -33 -122 -108 -152 -173 -29 -62 -30 -66 -14 -90 12 -18
25 -25 49 -25 17 0 97 -13 176 -30 138 -29 145 -29 168 -12 21 16 76 102 101
161 19 43 51 81 69 81 10 0 28 -11 40 -24 20 -21 22 -30 15 -72 -8 -56 -26
-83 -86 -128 -75 -56 -255 -123 -405 -150 -34 -6 -65 -14 -69 -19 -4 -4 -13
-7 -21 -7 -29 0 -105 -45 -148 -87 -50 -49 -70 -50 -78 -6 -21 112 -49 175
-127 278 -73 96 -120 147 -183 198 -26 21 -54 54 -62 73 -18 44 -27 140 -17
184 16 71 62 37 62 -47 0 -70 51 -217 78 -228 22 -8 268 -45 303 -45 55 0 62
53 23 177 -14 46 -24 89 -20 98 3 8 35 28 70 45 77 35 92 55 101 135 4 33 15
80 26 104 26 60 25 71 -21 114 -27 25 -40 46 -40 65 0 15 -7 36 -15 46 -8 11
-24 50 -36 88 -12 37 -33 79 -47 93 -53 54 -168 19 -237 -71 -39 -51 -95 -164
-95 -191 0 -33 -23 -38 -76 -18 -44 17 -78 16 -141 -1 -21 -6 -23 -3 -23 37 0
24 5 71 10 104 12 74 7 91 -31 104 -40 14 -180 25 -212 18 -13 -4 -44 -26 -68
-49 l-44 -43 2 -88 c0 -48 6 -93 11 -100 5 -7 15 -61 22 -121 11 -107 7 -180
-11 -191 -4 -3 -16 -21 -25 -40 -21 -45 -12 -96 26 -144 15 -20 42 -63 60 -96
17 -33 35 -64 40 -70 27 -35 319 -637 325 -670 3 -22 20 -67 37 -99 16 -33 39
-87 50 -120 36 -109 76 -127 173 -77 33 17 65 31 72 31 21 0 45 59 51 129 7
62 9 66 32 66 25 0 25 0 25 -97 0 -96 0 -97 34 -132 38 -40 90 -61 126 -52 13
3 52 41 87 83 91 110 348 367 443 443 44 35 116 102 160 148 103 109 127 131
210 194 103 80 104 81 115 243 9 135 31 230 59 258 6 6 11 15 11 19 0 8 95
140 159 222 35 43 39 77 15 124 -22 45 -44 61 -156 112 -48 22 -93 5 -138 -51
-22 -28 -40 -57 -40 -65 0 -9 -12 -14 -36 -14 -81 0 -143 -69 -164 -185 -18
-104 -14 -97 -67 -89 -27 3 -49 8 -51 9 -1 1 4 29 13 61 8 32 21 105 30 161
14 95 14 105 -2 138 -17 35 -121 115 -150 115 -7 0 -13 4 -13 9 0 5 -10 13
-22 16 -39 11 -118 49 -118 57 0 17 -38 7 -57 -14z m-453 -100 c8 -12 28 -58
44 -102 15 -44 42 -100 59 -123 22 -31 27 -46 19 -55 -20 -25 -42 -103 -42
-154 0 -53 -12 -74 -42 -74 -10 0 -26 -4 -36 -9 -9 -5 -32 -15 -49 -21 -42
-16 -42 -37 -3 -150 16 -47 30 -95 30 -107 0 -26 -4 -27 -138 -14 -110 11
-123 24 -136 136 -12 95 -31 158 -59 187 -7 7 -20 25 -30 41 -10 15 -26 27
-37 27 -47 0 -109 -164 -110 -288 0 -96 39 -143 236 -287 21 -15 54 -48 72
-73 44 -58 94 -184 90 -224 -3 -29 -7 -33 -54 -43 -79 -18 -144 -79 -144 -135
0 -39 19 -52 169 -111 21 -9 23 -14 18 -62 -4 -44 -10 -56 -43 -85 -21 -18
-45 -31 -53 -30 -9 2 -28 28 -43 58 -47 95 -108 230 -108 240 0 23 -80 208
-157 360 -100 201 -123 240 -207 366 -36 55 -66 105 -66 112 0 7 14 38 30 69
25 46 30 68 30 122 0 37 -8 94 -17 126 -10 33 -18 90 -18 127 0 60 3 70 29 97
28 29 104 61 146 61 25 0 35 -22 21 -47 -5 -11 -17 -68 -26 -127 -8 -59 -23
-118 -31 -131 -12 -18 -13 -28 -4 -44 15 -29 20 -27 65 19 75 77 180 100 285
64 53 -18 74 -35 90 -73 10 -25 8 -32 -15 -56 -27 -30 -41 -67 -31 -84 10 -15
29 -4 80 44 28 28 58 46 81 51 19 3 38 10 40 15 7 10 -27 29 -54 29 -12 0 -28
14 -42 38 -13 20 -33 47 -46 59 -14 14 -23 34 -23 52 0 43 54 145 106 198 39
41 46 45 76 39 18 -3 40 -16 48 -28z m597 0 c38 -18 87 -46 110 -63 40 -28 43
-33 43 -77 0 -79 -28 -191 -70 -278 -8 -18 -85 -45 -103 -36 -6 3 -27 15 -46
26 -40 25 -71 18 -71 -15 0 -16 8 -26 28 -33 33 -11 92 -120 92 -171 0 -34 19
-41 40 -16 9 11 11 33 6 77 -9 72 -4 78 70 78 120 0 205 -33 295 -116 51 -48
89 -17 46 39 -14 17 -41 49 -61 70 -31 32 -36 43 -36 86 0 31 5 53 15 61 8 7
15 19 15 28 0 21 68 82 91 82 26 0 79 28 79 41 0 17 54 80 82 94 24 14 30 12
82 -22 71 -47 74 -72 16 -135 -34 -37 -55 -66 -110 -158 -16 -28 -50 -106 -50
-117 0 -6 -9 -30 -19 -54 -10 -24 -22 -71 -26 -104 -4 -33 -13 -67 -20 -75 -8
-9 -15 -45 -17 -85 l-3 -69 -55 -38 c-116 -82 -285 -238 -540 -499 -146 -149
-280 -283 -297 -296 -38 -29 -71 -26 -108 11 -21 21 -22 28 -14 71 12 63 23
75 74 75 88 0 142 43 152 121 6 44 -17 89 -45 89 -10 0 -27 7 -38 14 -12 8
-42 20 -67 27 -38 9 -47 16 -46 33 0 11 12 30 27 42 28 21 113 54 141 54 15 0
181 52 266 84 124 45 230 131 266 214 24 54 24 86 0 137 -25 55 -53 77 -103
82 -39 4 -47 0 -83 -34 -56 -53 -76 -88 -89 -152 -15 -75 -34 -82 -153 -53
-49 12 -100 22 -114 22 -14 0 -33 6 -42 13 -16 11 -16 15 3 52 28 54 72 91
148 126 50 23 62 33 62 52 0 21 -45 66 -67 67 -4 1 -19 10 -33 21 -18 16 -26
34 -31 77 -8 69 7 182 31 231 132 270 168 331 196 331 8 0 44 -15 81 -32z
m-577 -1403 c58 -8 170 -49 182 -69 15 -22 7 -36 -32 -56 -39 -20 -44 -20
-128 -6 -48 8 -112 17 -142 21 -59 8 -140 38 -140 53 0 5 7 15 15 22 18 15
153 49 175 45 8 -2 40 -7 70 -10z"/>
<path d="M4314 4935 c-45 -20 -94 -80 -94 -115 0 -45 27 -38 81 20 32 35 54
50 71 50 33 0 46 29 22 47 -22 16 -40 15 -80 -2z"/>
<path d="M1482 5010 c-41 -10 -86 -46 -128 -106 -50 -70 -48 -121 7 -186 35
-42 38 -50 28 -69 -35 -66 54 -192 169 -238 44 -18 43 -44 -4 -109 -1 -2 -30
14 -65 36 -35 21 -104 57 -153 81 -71 33 -96 40 -120 35 -36 -8 -125 -74 -176
-130 -19 -22 -52 -58 -73 -81 -44 -47 -44 -68 -5 -115 13 -15 41 -48 62 -73
22 -26 92 -86 155 -133 209 -157 326 -197 416 -143 40 23 65 22 65 -4 0 -8 11
-43 25 -78 27 -67 110 -160 152 -170 30 -7 60 17 68 56 4 17 12 38 18 46 6 7
16 21 22 32 5 10 29 50 53 89 70 115 70 120 -34 231 -49 52 -96 108 -104 123
-13 26 -13 29 5 42 51 38 147 -3 184 -78 44 -91 53 -197 38 -455 -11 -191 -3
-239 49 -317 35 -51 24 -59 -62 -46 -70 11 -132 5 -214 -19 -19 -6 -58 -17
-87 -25 -63 -18 -108 -38 -188 -86 -89 -52 -109 -57 -186 -48 -74 9 -138 41
-139 71 0 21 8 21 142 1 59 -9 122 -14 142 -10 32 6 86 49 86 68 0 4 14 27 30
51 17 25 30 48 30 53 0 8 32 81 56 128 8 16 13 29 12 30 -2 1 -12 9 -24 18
-21 18 -207 51 -254 46 -21 -3 -25 2 -31 37 -5 22 -8 56 -8 76 -1 38 -17 55
-101 99 -25 14 -61 36 -80 51 -49 37 -78 42 -110 19 -21 -15 -53 -20 -166 -26
-76 -4 -149 -10 -161 -15 -60 -22 -74 -122 -30 -212 34 -69 100 -143 161 -182
25 -16 46 -33 46 -38 0 -5 -9 -24 -19 -41 -11 -17 -25 -62 -31 -99 -10 -53
-16 -67 -27 -63 -8 4 -27 9 -41 12 -15 4 -34 12 -42 19 -8 7 -38 18 -66 25
-46 12 -54 11 -77 -6 -15 -10 -27 -24 -27 -30 0 -6 -6 -17 -14 -23 -8 -7 -18
-26 -21 -42 -4 -16 -13 -42 -21 -58 -12 -24 -12 -38 -4 -73 6 -24 17 -50 23
-58 36 -45 148 -94 255 -110 37 -6 98 -20 136 -31 58 -17 77 -29 120 -75 51
-53 53 -54 86 -43 19 6 64 17 100 24 36 7 88 20 117 29 81 25 234 54 498 91
55 8 118 19 140 25 77 19 201 28 342 24 l143 -4 16 25 c9 14 21 63 26 109 12
98 -1 130 -55 142 -18 3 -43 12 -57 20 -14 7 -42 20 -62 28 -30 12 -38 20 -38
40 0 30 22 34 67 12 53 -26 134 -45 156 -36 12 4 46 31 76 58 51 48 53 53 47
87 -4 20 -24 59 -46 87 -21 28 -44 63 -51 77 -7 14 -21 37 -30 51 -61 95 -169
312 -215 435 -19 52 -72 157 -122 241 -16 27 -45 94 -66 149 -57 153 -66 167
-116 192 -25 12 -61 25 -80 29 -37 8 -135 56 -190 94 -71 49 -164 157 -203
234 -21 41 -51 85 -67 96 -30 22 -30 22 -78 10z m58 -97 c11 -16 38 -55 60
-88 43 -66 97 -127 148 -165 19 -14 39 -29 46 -35 22 -18 75 -55 80 -55 3 0
42 -18 88 -40 46 -22 93 -40 104 -40 28 0 48 -31 75 -116 19 -62 65 -179 106
-274 25 -57 57 -119 105 -210 80 -149 143 -271 223 -426 l77 -151 -17 -33
c-16 -31 -19 -32 -59 -27 -35 5 -63 16 -115 44 -2 1 2 31 9 66 11 53 11 69 0
94 -16 35 -67 73 -98 73 -27 0 -99 -70 -117 -114 -7 -17 -22 -39 -32 -49 -19
-16 -21 -16 -48 12 -45 48 -56 110 -40 231 13 99 8 286 -11 388 -18 100 -101
204 -171 215 -44 8 -94 -7 -142 -41 -31 -23 -33 -28 -29 -73 7 -65 72 -153
134 -180 40 -18 88 -64 80 -78 -13 -27 -81 -137 -86 -141 -4 -3 -17 -24 -30
-47 -28 -50 -44 -53 -86 -15 -43 39 -90 146 -81 183 7 27 -11 79 -29 79 -8 0
-43 -20 -80 -45 -62 -43 -106 -56 -119 -36 -3 6 -25 13 -49 16 -80 12 -229
130 -356 283 -61 74 -64 79 -47 105 22 33 97 109 139 141 44 33 73 30 148 -14
26 -15 58 -31 71 -35 32 -10 126 -73 132 -88 2 -7 2 -37 0 -68 -5 -51 -8 -57
-39 -74 -19 -10 -37 -29 -41 -42 -7 -30 11 -52 31 -38 67 49 69 50 158 50 78
0 88 2 88 18 0 19 -35 36 -92 44 -43 6 -54 26 -38 67 5 15 10 39 10 52 0 14
11 44 25 67 35 60 128 155 156 159 16 2 25 11 27 26 5 32 -34 29 -107 -8 -52
-26 -63 -28 -97 -18 -54 14 -120 70 -134 114 -7 20 -9 54 -6 76 6 37 3 43 -39
90 -25 28 -45 56 -45 63 0 46 77 135 116 135 13 0 32 -12 44 -27z m-325 -1183
c17 -11 36 -20 44 -20 8 0 22 -6 30 -14 9 -8 31 -18 50 -23 31 -8 35 -14 48
-63 8 -30 11 -69 8 -87 -9 -50 18 -70 96 -72 35 0 88 -4 118 -7 l53 -7 -6 -37
c-8 -49 -54 -151 -79 -172 -23 -21 -72 -23 -167 -7 -83 13 -249 2 -257 -17
-14 -36 103 -150 187 -182 106 -41 164 -33 295 42 183 105 285 141 395 137 90
-3 87 1 86 -105 -1 -105 14 -141 67 -159 41 -13 70 11 119 98 24 41 48 75 54
75 7 0 18 -10 27 -23 10 -16 32 -26 74 -35 64 -13 83 -33 83 -88 0 -35 -20
-40 -210 -58 -393 -37 -444 -44 -670 -93 -14 -3 -79 -18 -145 -33 -66 -15
-162 -34 -213 -40 -83 -12 -94 -11 -110 4 -10 9 -23 16 -28 16 -5 0 -19 11
-32 24 -40 43 -99 66 -210 82 -120 17 -159 37 -191 95 -21 37 -26 99 -12 149
6 21 12 25 41 22 18 -2 49 -12 69 -23 20 -10 41 -19 47 -19 6 0 17 -7 24 -15
7 -8 20 -15 29 -15 10 0 32 -20 51 -45 19 -25 36 -45 39 -45 3 0 16 -3 29 -6
28 -8 30 17 3 54 -47 66 -58 169 -25 232 7 14 15 33 18 42 3 10 24 31 47 48
53 38 102 41 124 7 19 -30 64 -52 78 -38 7 7 0 32 -22 76 -24 49 -31 73 -26
95 14 63 -29 61 -64 -4 -21 -37 -30 -44 -70 -52 -95 -20 -177 24 -238 127 -43
73 -49 109 -24 140 18 22 26 24 127 25 113 2 170 10 180 25 8 14 27 11 59 -11z
m1161 -362 c-4 -34 -16 -79 -27 -99 -10 -21 -19 -42 -19 -47 0 -9 -40 -96 -64
-138 -22 -40 -38 -54 -61 -54 -29 0 -50 46 -40 90 17 79 168 310 202 310 13 0
15 -9 9 -62z"/>
<path d="M1526 4805 c-14 -37 -6 -102 16 -131 28 -36 38 -44 61 -44 24 0 21
26 -9 65 -20 27 -25 43 -22 77 3 37 0 43 -18 46 -13 2 -24 -4 -28 -13z"/>
<path d="M4850 4313 c-36 -6 -75 -21 -150 -57 -62 -29 -71 -31 -186 -31 -132
0 -144 -5 -202 -80 -57 -74 -391 -398 -484 -469 -24 -19 -55 -46 -69 -62 -14
-16 -61 -60 -105 -99 -136 -121 -294 -283 -294 -302 0 -20 53 -102 93 -145 21
-23 35 -28 71 -28 25 0 47 4 50 9 3 4 26 11 51 14 25 4 56 9 70 13 20 5 25 3
25 -14 0 -20 -26 -34 -85 -48 -33 -8 -94 -43 -112 -65 -11 -13 -33 -114 -33
-150 0 -22 78 -78 150 -108 68 -28 112 -50 215 -106 44 -24 87 -44 95 -44 8
-1 31 -9 50 -20 19 -10 46 -22 60 -26 13 -4 32 -18 42 -31 10 -12 31 -25 47
-29 16 -3 35 -13 42 -21 6 -8 19 -14 29 -14 10 0 23 -6 29 -14 7 -8 25 -18 41
-21 16 -3 34 -13 41 -21 6 -8 16 -14 22 -14 6 0 31 -13 56 -29 25 -16 60 -32
78 -36 17 -3 37 -13 44 -21 6 -8 16 -14 21 -14 5 0 24 -11 41 -24 18 -13 54
-36 80 -51 l49 -27 66 18 c37 9 72 21 77 25 6 4 60 12 120 18 124 12 274 -3
316 -33 13 -9 31 -16 41 -16 9 0 23 -7 31 -15 8 -8 35 -19 59 -24 37 -9 47 -7
75 12 48 33 68 87 66 177 -3 95 -17 114 -108 149 -54 20 -70 31 -75 50 -3 13
-22 37 -41 53 -45 36 -138 52 -211 37 -60 -13 -78 -2 -78 51 l0 37 98 10 c120
14 210 31 240 46 44 21 61 68 82 218 11 79 22 150 23 158 8 51 -236 97 -468
88 -138 -6 -173 -13 -245 -51 -44 -24 -67 -50 -75 -87 -9 -42 -21 -44 -63 -12
-59 44 -95 62 -163 78 -95 22 -127 20 -140 -9 -9 -18 -8 -33 0 -58 7 -18 15
-78 17 -133 12 -214 9 -210 175 -236 68 -10 127 -19 130 -19 4 0 18 -10 33
-21 26 -20 26 -22 10 -40 -27 -30 -113 -53 -168 -45 -42 7 -57 16 -120 79 -72
72 -172 207 -234 316 -30 52 -93 126 -134 157 -8 6 -30 17 -50 23 -30 10 -48
27 -48 46 0 2 26 18 57 35 106 60 240 217 311 365 10 22 22 53 26 68 11 47 84
110 148 131 69 21 113 19 113 -7 0 -13 -19 -26 -66 -46 -64 -27 -157 -89 -192
-129 -16 -17 -17 -26 -9 -54 6 -18 16 -71 22 -118 13 -98 30 -162 45 -172 32
-23 96 2 191 74 l54 40 38 -30 c21 -17 47 -42 58 -57 23 -31 85 -50 113 -36
10 6 57 11 102 13 93 2 112 11 134 65 8 18 31 43 54 58 23 14 41 29 41 33 0 4
17 18 37 32 104 70 128 113 99 174 -42 88 -167 148 -311 150 l-70 1 -12 35
c-6 19 -12 46 -12 60 -1 14 -12 42 -26 62 -31 46 -31 48 3 48 45 0 134 30 170
57 33 25 34 26 27 82 -8 64 -28 96 -98 164 -52 49 -72 54 -157 40z m117 -107
c21 -19 47 -51 57 -70 18 -34 18 -38 4 -53 -9 -8 -52 -23 -95 -31 -71 -15 -98
-16 -218 -9 -31 2 -40 -2 -43 -16 -2 -9 2 -19 10 -22 88 -31 130 -64 166 -130
23 -42 23 -167 -1 -193 -9 -10 -17 -24 -17 -30 0 -24 -37 -32 -70 -16 -25 13
-37 14 -57 5 -32 -15 -26 -30 23 -56 70 -37 94 -57 100 -81 4 -15 14 -24 25
-24 22 0 26 43 8 84 -10 21 -7 30 26 73 49 65 87 78 180 62 120 -19 215 -77
215 -131 0 -11 -19 -32 -47 -51 -81 -56 -157 -123 -183 -160 -21 -30 -31 -36
-70 -40 -25 -2 -72 -10 -105 -16 l-60 -13 -65 71 c-36 39 -72 71 -80 71 -8 0
-32 -18 -55 -39 -48 -47 -151 -106 -160 -91 -25 41 -57 205 -45 236 5 12 39
36 82 58 99 51 161 93 181 125 9 14 23 35 32 47 14 19 13 22 -15 43 -71 52
-217 44 -304 -17 -41 -28 -104 -107 -105 -130 -1 -8 -7 -26 -15 -40 -8 -15
-33 -66 -55 -113 -64 -131 -186 -249 -257 -249 -20 0 -43 28 -44 52 0 21 -101
88 -133 88 -14 0 -35 -9 -48 -19 -22 -17 -24 -26 -20 -83 2 -34 4 -79 5 -98
l1 -35 -97 -19 -98 -18 -20 23 c-38 46 -35 56 27 115 173 165 253 238 363 329
57 46 112 105 220 230 47 54 132 147 189 207 l104 108 103 0 c81 0 115 4 156
21 29 11 73 28 98 36 25 9 54 22 65 29 11 8 39 14 62 14 35 0 50 -6 80 -34z
m-1126 -927 c58 -62 114 -342 77 -386 -22 -27 -99 -9 -118 28 -24 44 -39 334
-19 371 14 25 27 23 60 -13z m1492 -194 c54 -7 100 -15 103 -17 2 -3 -4 -58
-13 -124 -15 -105 -20 -122 -44 -144 -39 -38 -90 -51 -215 -57 l-111 -5 -41
43 c-45 46 -50 63 -27 93 21 28 19 82 -2 90 -19 8 -43 -17 -43 -45 0 -23 -76
-104 -120 -127 -73 -39 -27 -67 54 -32 26 11 53 20 61 20 7 0 23 -24 36 -52
21 -45 24 -67 23 -154 -1 -85 -5 -109 -25 -148 -21 -43 -22 -48 -6 -63 15 -16
18 -15 40 5 12 12 33 46 47 77 16 36 30 55 42 55 9 0 19 4 22 9 9 14 120 23
149 12 37 -14 67 -47 67 -74 0 -41 21 -57 89 -67 35 -5 70 -15 77 -22 18 -19
20 -65 5 -127 l-14 -53 -50 5 c-27 4 -59 13 -71 20 -29 19 -109 36 -244 51
-92 10 -124 10 -175 -1 -34 -7 -73 -13 -87 -13 -14 0 -43 -7 -65 -15 -74 -26
-99 -21 -184 44 -68 52 -137 96 -206 131 -11 6 -33 19 -50 29 -16 11 -118 63
-225 116 -107 53 -202 100 -210 105 -8 5 -69 36 -135 70 -242 124 -223 107
-209 179 6 26 13 33 48 42 22 6 49 15 58 20 40 21 46 15 80 -84 16 -48 60 -77
132 -84 l54 -6 27 47 c23 39 27 56 25 113 -1 38 -2 74 -1 81 2 22 30 13 72
-25 50 -45 84 -94 138 -198 45 -88 151 -227 200 -263 31 -23 151 -52 212 -52
117 0 205 160 120 217 -78 52 -93 56 -188 54 -118 -2 -132 9 -134 102 -1 34
-3 89 -5 122 -4 77 3 84 67 74 60 -10 110 -40 170 -103 49 -53 65 -57 80 -18
24 63 53 114 73 126 23 14 93 34 141 39 56 6 289 -5 388 -18z"/>
<path d="M5209 2364 c-10 -13 -10 -17 2 -25 8 -5 22 -9 31 -9 22 0 88 -57 88
-76 0 -8 10 -14 25 -14 18 0 25 5 25 20 0 26 -44 96 -69 110 -29 15 -87 12
-102 -6z"/>
<path d="M2550 2771 c-8 -5 -33 -12 -55 -15 -22 -4 -53 -11 -70 -16 -16 -5
-57 -16 -90 -25 -33 -9 -69 -21 -80 -26 -20 -9 -133 -29 -190 -34 -16 -1 -50
-6 -75 -9 -25 -4 -83 -9 -130 -11 -47 -2 -96 -6 -110 -8 -14 -3 -59 -10 -100
-17 -41 -7 -85 -16 -99 -21 -13 -5 -87 -12 -165 -14 -77 -3 -153 -10 -168 -16
-14 -6 -39 -30 -55 -52 -39 -58 -41 -60 -106 -132 -69 -75 -130 -108 -297
-161 -172 -54 -175 -55 -193 -109 -17 -52 -12 -84 22 -138 61 -99 136 -128
224 -87 45 21 49 22 67 5 11 -10 39 -20 63 -22 60 -7 122 22 192 88 l56 53 36
-37 37 -36 -30 -22 c-16 -12 -72 -66 -125 -119 -115 -115 -124 -139 -88 -229
13 -31 45 -91 71 -134 26 -43 48 -84 48 -91 0 -14 41 -56 55 -56 30 0 255 130
360 208 178 133 236 229 210 350 l-7 33 48 -1 c108 -4 230 36 278 89 17 19 18
24 6 46 -7 14 -17 25 -22 25 -9 0 -54 45 -112 114 -82 99 -113 126 -140 126
-14 0 -73 -23 -130 -50 -123 -59 -163 -70 -172 -46 -19 51 36 136 98 151 66
16 270 -11 313 -41 11 -8 27 -14 36 -14 18 0 167 -57 184 -70 17 -13 117 -33
175 -35 35 -1 68 4 93 16 l37 17 0 -28 c0 -15 -6 -33 -14 -39 -8 -7 -18 -27
-21 -44 -4 -18 -13 -42 -21 -54 -24 -39 -34 -149 -24 -278 5 -66 10 -124 10
-128 0 -17 -21 0 -117 94 -54 53 -107 101 -119 107 -34 18 -61 4 -84 -46 -13
-26 -29 -60 -36 -75 -8 -16 -17 -46 -20 -68 -8 -45 -12 -46 -124 -28 l-69 12
-47 -39 c-25 -21 -63 -52 -83 -67 -80 -62 -77 -56 -95 -183 -10 -66 -24 -152
-33 -193 -15 -65 -15 -77 -2 -100 53 -94 262 -78 400 30 26 22 51 39 55 39 4
0 27 -18 51 -41 25 -22 64 -50 89 -60 52 -24 52 -25 -28 -113 -54 -60 -78
-103 -78 -138 0 -34 53 -72 144 -102 79 -27 90 -28 129 -16 23 7 54 21 69 31
38 27 106 135 113 180 4 22 11 42 16 45 6 3 14 17 19 30 5 13 41 44 80 70 84
54 116 99 125 174 10 86 45 333 50 350 2 8 22 152 45 320 23 168 50 341 61
385 38 151 51 229 42 244 -12 19 -102 40 -169 41 -56 0 -67 -7 -135 -88 -25
-29 -41 -40 -53 -36 -25 10 -19 39 17 78 81 88 88 113 56 194 -45 112 -64 133
-99 113z m26 -136 c25 -39 11 -98 -34 -135 -43 -36 -53 -37 -78 -9 -28 31 -68
49 -109 49 -47 0 -102 -37 -107 -71 -6 -36 24 -98 73 -153 l40 -45 -21 -21
c-11 -11 -27 -20 -36 -20 -34 0 -224 53 -304 85 -106 42 -102 41 -233 60 -111
16 -116 15 -207 -17 -44 -15 -88 -61 -99 -103 -19 -69 -14 -101 21 -141 32
-36 33 -36 92 -30 33 3 65 11 70 16 6 6 17 10 26 10 9 0 33 18 54 39 22 22 52
45 68 52 27 11 32 9 64 -22 50 -48 144 -173 144 -191 0 -18 -84 -53 -146 -62
-22 -3 -63 0 -91 7 -53 14 -93 7 -93 -15 0 -7 12 -41 27 -76 26 -63 26 -64 8
-95 -38 -65 -72 -101 -160 -171 -178 -142 -289 -205 -339 -192 -20 5 -36 28
-76 109 -27 57 -50 117 -50 134 0 40 46 98 148 191 86 77 81 76 160 40 32 -15
42 -25 42 -43 0 -39 21 -73 48 -80 37 -9 49 9 32 48 -20 46 -15 122 11 172 27
51 21 82 -13 64 -32 -17 -56 -49 -63 -86 -7 -41 -17 -41 -65 -3 -21 17 -42 30
-47 30 -34 0 -159 185 -148 219 3 10 -2 28 -13 42 l-19 23 -13 -24 c-9 -16
-10 -46 -5 -102 l7 -80 -41 -37 c-44 -41 -118 -81 -147 -81 -10 0 -34 14 -53
30 -33 29 -58 29 -76 0 -8 -13 -70 -13 -118 1 -31 8 -42 18 -58 52 -23 52 -25
97 -4 97 8 0 23 4 33 9 9 4 47 15 83 24 84 20 145 48 237 109 66 45 222 192
222 210 0 14 59 38 92 38 91 -2 139 2 203 15 39 8 129 21 200 30 143 17 133
16 325 44 132 20 350 55 440 70 73 13 79 12 96 -14z m-147 -190 c50 -37 167
-155 218 -219 55 -69 37 -116 -32 -83 -93 44 -252 189 -281 254 -19 44 -18 58
9 71 33 16 35 15 86 -23z m409 -46 c18 -7 21 -14 16 -36 -4 -16 -10 -32 -14
-38 -4 -5 -11 -30 -14 -55 -15 -98 -58 -331 -82 -436 -13 -61 -24 -134 -24
-161 0 -51 -42 -409 -59 -498 -10 -52 -18 -62 -121 -138 -43 -32 -112 -128
-124 -174 -12 -44 -52 -93 -91 -113 -37 -18 -47 -19 -104 -9 -37 7 -73 20 -88
34 l-26 22 39 44 c65 74 117 117 172 146 52 28 73 56 54 75 -6 6 -17 6 -32 -2
-12 -6 -47 -12 -79 -13 -66 -2 -115 18 -174 73 -50 45 -66 83 -58 139 5 40 9
46 38 53 32 8 67 44 57 59 -3 5 -43 8 -90 6 -62 -1 -87 2 -93 11 -10 16 -42
13 -48 -5 -2 -6 12 -26 31 -45 50 -49 57 -100 21 -162 -33 -56 -63 -79 -151
-112 -54 -20 -78 -24 -116 -19 -65 9 -74 28 -52 103 31 106 43 167 44 217 0
48 2 51 71 117 39 38 74 68 77 68 4 0 39 -7 77 -15 39 -8 87 -15 107 -15 35 0
37 2 43 35 3 19 8 52 11 73 3 20 12 48 19 62 7 14 16 33 19 43 7 21 35 22 61
2 149 -112 151 -116 107 -208 -17 -34 -33 -73 -37 -87 -4 -14 -14 -36 -22 -49
-9 -14 -15 -48 -16 -84 0 -55 -3 -61 -29 -76 -39 -22 -30 -35 28 -39 43 -3 57
2 109 36 33 21 86 68 118 104 55 62 58 69 63 129 5 60 -9 168 -35 264 -16 62
-13 164 8 246 33 128 69 172 111 134 48 -44 157 -37 193 11 26 34 15 57 -61
136 l-65 67 26 35 c50 65 54 67 110 60 29 -4 62 -11 75 -15z m-434 -858 c13
-21 -5 -128 -25 -153 -44 -53 -55 -64 -79 -81 -13 -9 -28 -17 -32 -17 -14 0
-8 47 7 60 8 7 15 18 15 26 0 7 6 19 13 26 14 16 53 111 62 153 12 55 17 62
25 29 4 -17 10 -36 14 -43z"/>
<path d="M777 2103 c-24 -23 11 -62 67 -75 39 -8 116 26 116 52 0 26 -19 30
-60 13 -36 -15 -100 -10 -100 7 0 11 -14 13 -23 3z"/>
<path d="M3408 2666 c-10 -7 -18 -17 -18 -21 0 -4 -16 -33 -35 -65 -19 -32
-35 -65 -35 -74 0 -15 15 -52 48 -113 29 -55 30 -61 19 -72 -20 -20 -32 -12
-56 39 -41 82 -70 104 -149 108 -37 2 -83 0 -102 -5 -33 -9 -36 -13 -47 -69
-7 -32 -15 -106 -18 -164 -4 -58 -13 -125 -20 -150 -7 -25 -23 -112 -35 -195
-12 -82 -24 -153 -27 -158 -2 -4 -8 -44 -13 -90 -19 -180 -41 -321 -55 -354
-23 -55 -55 -191 -55 -234 0 -32 9 -47 63 -106 34 -37 72 -81 83 -98 49 -71
74 -233 54 -345 -25 -138 -24 -152 7 -189 l29 -34 80 12 c173 28 200 48 210
161 6 67 11 79 42 114 34 39 35 40 29 110 -4 50 -14 89 -35 131 -16 33 -28 65
-25 70 2 6 19 19 37 29 35 18 56 15 56 -8 0 -7 6 -26 14 -42 8 -16 24 -49 35
-74 90 -194 118 -215 260 -194 47 7 110 19 140 27 30 8 60 13 68 10 7 -3 19 2
28 10 17 18 20 113 5 187 -5 25 -14 71 -20 103 -6 32 -19 81 -30 110 -11 29
-20 58 -20 65 0 28 -84 182 -115 210 -48 44 -89 63 -123 56 -39 -8 -48 9 -28
51 49 102 41 285 -12 314 -15 8 -29 4 -63 -15 -43 -24 -93 -48 -134 -65 -86
-35 -152 -68 -164 -82 -12 -15 -11 -35 3 -140 20 -155 20 -163 -4 -187 -20
-20 -22 -20 -51 -3 -92 53 -88 196 7 340 21 32 90 117 127 158 35 38 113 144
136 184 29 51 51 135 45 168 -5 28 -3 33 14 33 11 0 26 -7 33 -17 22 -26 141
-113 155 -113 7 0 25 -7 41 -14 68 -35 192 -66 345 -86 82 -11 90 -14 127 -52
41 -40 94 -134 85 -149 -9 -15 -38 4 -79 50 -57 64 -151 131 -185 131 -30 0
-242 -105 -287 -142 -30 -24 -14 -64 47 -122 33 -31 64 -56 68 -56 5 0 19 -11
32 -25 21 -22 22 -27 10 -57 -7 -18 -20 -41 -28 -50 -8 -10 -17 -39 -20 -66
-3 -38 2 -58 26 -107 16 -33 35 -76 41 -96 16 -49 37 -65 93 -73 26 -4 51 -13
55 -20 5 -7 27 -24 50 -37 23 -13 67 -41 98 -63 48 -32 62 -37 93 -33 55 9 97
57 110 125 21 110 21 155 1 227 -28 99 -29 96 21 124 24 14 64 44 87 68 49 49
35 57 107 -65 42 -69 59 -82 109 -82 27 0 43 9 80 46 26 25 47 51 47 57 0 6 8
19 18 30 13 15 17 37 17 101 0 97 -5 106 -135 232 -86 84 -120 139 -120 195 0
52 -30 76 -175 139 -113 49 -387 183 -510 250 -38 21 -92 50 -120 65 -88 45
-160 87 -176 101 -8 8 -20 14 -26 14 -6 0 -13 3 -15 8 -5 10 -56 43 -113 72
-27 14 -56 31 -63 38 -18 16 -72 15 -94 -2z m142 -120 c25 -14 55 -30 67 -35
11 -5 24 -15 28 -20 3 -6 13 -11 21 -11 13 0 85 -40 179 -100 110 -70 196
-115 350 -185 17 -7 56 -25 87 -39 31 -14 61 -26 67 -26 5 0 22 -7 38 -15 15
-9 39 -20 53 -25 14 -6 32 -14 40 -19 8 -5 22 -12 30 -16 77 -31 140 -94 140
-138 0 -45 60 -145 125 -205 100 -95 122 -145 94 -219 -14 -37 -71 -112 -85
-113 -10 0 -84 101 -84 115 0 3 -12 23 -27 46 -21 32 -26 50 -24 93 1 37 -3
57 -14 66 -26 22 -45 4 -45 -41 0 -65 -50 -150 -115 -193 -72 -48 -140 -57
-190 -26 -34 21 -36 24 -30 64 5 34 3 45 -13 59 -24 22 -29 16 -43 -60 -7 -37
-21 -71 -41 -95 -52 -66 -13 -94 52 -38 21 18 41 28 50 24 8 -3 34 -13 57 -21
57 -20 82 -58 94 -141 19 -127 -9 -242 -59 -242 -10 0 -59 29 -110 64 -52 35
-112 69 -135 76 -23 6 -49 17 -57 23 -22 18 -96 176 -92 199 4 20 36 81 57
108 16 20 26 63 17 76 -4 6 -27 20 -52 32 -53 26 -130 93 -130 114 0 8 17 24
38 35 20 11 62 35 92 52 30 17 65 31 77 31 13 0 53 -31 109 -85 75 -72 98 -88
151 -105 34 -11 64 -20 67 -20 10 0 25 76 20 109 -9 74 -77 176 -158 239 -9 7
-94 24 -189 38 -163 23 -201 34 -316 87 -47 21 -101 64 -101 79 0 6 15 28 34
51 67 83 64 227 -4 227 -24 0 -119 -29 -152 -46 -14 -8 -39 -14 -55 -14 -25 0
-32 8 -62 69 -37 73 -37 73 13 132 29 35 31 36 60 23 17 -7 51 -24 76 -38z
m-279 -207 c29 -37 24 -68 -10 -80 -39 -14 -82 -71 -88 -117 -5 -45 21 -101
58 -121 30 -17 69 -8 161 36 64 31 71 30 65 -9 -3 -18 -9 -52 -12 -75 -4 -23
-13 -47 -21 -54 -8 -6 -14 -17 -14 -23 0 -6 -8 -19 -17 -28 -10 -8 -28 -29
-39 -44 -12 -16 -40 -51 -63 -79 -84 -103 -153 -217 -167 -274 -15 -65 -18
-159 -5 -193 24 -62 108 -114 168 -105 59 10 81 40 91 127 8 70 7 79 -20 144
-26 65 -27 70 -12 88 10 10 22 18 27 18 5 0 52 20 105 45 94 45 126 53 136 36
3 -4 8 -34 12 -65 6 -52 4 -62 -36 -142 -26 -52 -39 -89 -33 -95 5 -5 42 -13
83 -18 41 -5 77 -15 81 -23 5 -7 20 -31 34 -53 21 -34 52 -96 95 -190 47 -103
85 -320 62 -353 -11 -17 -110 -41 -197 -49 l-72 -6 -46 65 c-69 97 -88 148
-81 216 8 68 28 122 46 123 7 0 34 0 60 -1 26 -1 56 3 67 9 18 10 19 15 9 36
-9 21 -18 25 -51 25 -66 0 -116 21 -162 68 -29 29 -50 42 -60 39 -22 -9 -19
-18 26 -86 23 -34 40 -63 38 -65 -2 -1 -31 -24 -63 -50 -79 -63 -115 -77 -216
-83 -79 -5 -110 -14 -110 -33 0 -10 124 -50 155 -50 44 0 111 -143 100 -213
-6 -31 -14 -41 -45 -57 -50 -25 -54 -33 -39 -73 7 -20 9 -49 5 -71 -10 -53
-52 -77 -131 -74 l-60 3 -2 138 c-4 231 -22 292 -164 543 -22 40 -22 43 -9
130 7 49 21 114 30 144 27 84 36 135 75 395 20 132 45 283 55 335 10 52 26
140 35 195 18 118 27 129 99 122 36 -3 54 -10 67 -28z m397 -41 c5 -43 -87
-103 -313 -203 -61 -27 -84 -27 -110 -1 -27 28 -32 54 -12 77 19 24 79 55 122
63 22 4 69 23 105 42 132 68 202 75 208 22z"/>
<path d="M3166 683 c-3 -15 -8 -47 -11 -70 -4 -23 -16 -54 -27 -68 -21 -26
-18 -55 4 -55 23 0 57 30 73 64 21 44 9 149 -17 154 -11 2 -18 -6 -22 -25z"/>
</g>
</svg>
